G04 #@! TF.FileFunction,Copper,L1,Top,Signal*
%FSLAX46Y46*%
G04 Gerber Fmt 4.6, Leading zero omitted, Abs format (unit mm)*
G04 Created by KiCad (PCBNEW 4.0.0-rc2-stable) date 3/7/2016 10:16:44 PM*
%MOMM*%
G01*
G04 APERTURE LIST*
%ADD10C,0.600000*%
%ADD11C,1.524000*%
%ADD12R,0.600000X1.550000*%
%ADD13C,0.700000*%
%ADD14C,1.998980*%
%ADD15C,0.600000*%
%ADD16C,0.254000*%
G04 APERTURE END LIST*
D10*
D11*
X149771100Y-129133600D03*
X152311100Y-129133600D03*
X154851100Y-129133600D03*
X157391100Y-129133600D03*
X159931100Y-129133600D03*
X162471100Y-129133600D03*
X165011100Y-129133600D03*
X167551100Y-129133600D03*
X170091100Y-129133600D03*
X172631100Y-129133600D03*
X175171100Y-129133600D03*
X177711100Y-129133600D03*
X180251100Y-129133600D03*
X182791100Y-129133600D03*
X185331100Y-129133600D03*
X187871100Y-129133600D03*
X190411100Y-129133600D03*
X192951100Y-129133600D03*
X195491100Y-129133600D03*
X198031100Y-129133600D03*
X198031100Y-106273600D03*
X195491100Y-106273600D03*
X192951100Y-106273600D03*
X190411100Y-106273600D03*
X187871100Y-106273600D03*
X185331100Y-106273600D03*
X182791100Y-106273600D03*
X180251100Y-106273600D03*
X177711100Y-106273600D03*
X175171100Y-106273600D03*
X172631100Y-106273600D03*
X170091100Y-106273600D03*
X167551100Y-106273600D03*
X165011100Y-106273600D03*
X162471100Y-106273600D03*
X159931100Y-106273600D03*
X157391100Y-106273600D03*
X154851100Y-106273600D03*
X152311100Y-106273600D03*
X149771100Y-106273600D03*
D12*
X140373100Y-111848900D03*
X141643100Y-111848900D03*
X142913100Y-111848900D03*
X144183100Y-111848900D03*
X144183100Y-106448900D03*
X142913100Y-106448900D03*
X141643100Y-106448900D03*
X140373100Y-106448900D03*
D13*
X141408400Y-115406400D03*
X141408400Y-117406400D03*
X141408400Y-119406400D03*
X141408400Y-121406400D03*
X141408400Y-123406400D03*
X141408400Y-125406400D03*
X141408400Y-127406400D03*
X143408400Y-127406400D03*
X143408400Y-125406400D03*
X143408400Y-123406400D03*
X143408400Y-121406400D03*
X143408400Y-119406400D03*
X143408400Y-117406400D03*
X143408400Y-115406400D03*
D14*
X134874000Y-125501400D03*
X134874000Y-115341400D03*
D15*
X145415000Y-107569000D03*
X143383000Y-104775000D03*
X141224000Y-104775000D03*
X154686000Y-123317000D03*
X160528000Y-123317000D03*
X140843000Y-108839000D03*
X143891000Y-110363000D03*
X142875000Y-116459000D03*
X147320000Y-113030000D03*
X143383000Y-113665000D03*
X141859000Y-109855000D03*
X141097000Y-118364000D03*
X153924000Y-116332000D03*
X161544000Y-122936000D03*
X143764000Y-118364000D03*
X139192000Y-118745000D03*
X141478000Y-120396000D03*
X146812000Y-117348000D03*
X167640000Y-126746000D03*
D10*
X145415000Y-107569000D02*
X145288000Y-107569000D01*
X145288000Y-107569000D02*
X144145000Y-106426000D01*
X144145000Y-106426000D02*
X144183100Y-106448900D01*
X144183100Y-106448900D02*
X144145000Y-106426000D01*
X144145000Y-106426000D02*
X143764000Y-106807000D01*
X143764000Y-106807000D02*
X143764000Y-107823000D01*
X143764000Y-107823000D02*
X142875000Y-108712000D01*
X142875000Y-108712000D02*
X142875000Y-111887000D01*
X142875000Y-111887000D02*
X142913100Y-111848900D01*
X144183100Y-106448900D02*
X144145000Y-106426000D01*
X144145000Y-106426000D02*
X143764000Y-106045000D01*
X143764000Y-106045000D02*
X143764000Y-105156000D01*
X143764000Y-105156000D02*
X143383000Y-104775000D01*
X141224000Y-104775000D02*
X140335000Y-105664000D01*
X140335000Y-105664000D02*
X140335000Y-106426000D01*
X140335000Y-106426000D02*
X140373100Y-106448900D01*
X154686000Y-123317000D02*
X160528000Y-123317000D01*
X140373100Y-111848900D02*
X140843000Y-111379000D01*
X140843000Y-111379000D02*
X140843000Y-108839000D01*
X144183100Y-111848900D02*
X144018000Y-111760000D01*
X144018000Y-111760000D02*
X143891000Y-111633000D01*
X143891000Y-111633000D02*
X143891000Y-110363000D01*
X141643100Y-111848900D02*
X141732000Y-112014000D01*
X141732000Y-112014000D02*
X142113000Y-112395000D01*
X142113000Y-112395000D02*
X142113000Y-113157000D01*
X142113000Y-113157000D02*
X142367000Y-113411000D01*
X142367000Y-113411000D02*
X142367000Y-115697000D01*
X142367000Y-115697000D02*
X142494000Y-115824000D01*
X142494000Y-115824000D02*
X142494000Y-115951000D01*
X142494000Y-115951000D02*
X142621000Y-116078000D01*
X142621000Y-116078000D02*
X142621000Y-116205000D01*
X142621000Y-116205000D02*
X142875000Y-116459000D01*
X147320000Y-113030000D02*
X152273000Y-108077000D01*
X152273000Y-108077000D02*
X152273000Y-106299000D01*
X152273000Y-106299000D02*
X152311100Y-106273600D01*
X143408400Y-115406400D02*
X143383000Y-115443000D01*
X143383000Y-115443000D02*
X143383000Y-113665000D01*
X141859000Y-109855000D02*
X141859000Y-108458000D01*
X141859000Y-108458000D02*
X141986000Y-108331000D01*
X141986000Y-108331000D02*
X141986000Y-108204000D01*
X141986000Y-108204000D02*
X142113000Y-108077000D01*
X142113000Y-108077000D02*
X142113000Y-107950000D01*
X142113000Y-107950000D02*
X142240000Y-107950000D01*
X142240000Y-107950000D02*
X142367000Y-107823000D01*
X142367000Y-107823000D02*
X142494000Y-107823000D01*
X142494000Y-107823000D02*
X142875000Y-107442000D01*
X142875000Y-107442000D02*
X142875000Y-106426000D01*
X142875000Y-106426000D02*
X142913100Y-106448900D01*
X134874000Y-125501400D02*
X134874000Y-125476000D01*
X134874000Y-125476000D02*
X140462000Y-119888000D01*
X140462000Y-119888000D02*
X140462000Y-119126000D01*
X140462000Y-119126000D02*
X140589000Y-118999000D01*
X140589000Y-118999000D02*
X140589000Y-118872000D01*
X140589000Y-118872000D02*
X141097000Y-118364000D01*
X143408400Y-117406400D02*
X143383000Y-117348000D01*
X143383000Y-117348000D02*
X146304000Y-114427000D01*
X146304000Y-114427000D02*
X146304000Y-107061000D01*
X146304000Y-107061000D02*
X146177000Y-106934000D01*
X146177000Y-106934000D02*
X146177000Y-106807000D01*
X146177000Y-106807000D02*
X145034000Y-105664000D01*
X145034000Y-105664000D02*
X145034000Y-105156000D01*
X145034000Y-105156000D02*
X144653000Y-104775000D01*
X144653000Y-104775000D02*
X144653000Y-104648000D01*
X144653000Y-104648000D02*
X144526000Y-104521000D01*
X144526000Y-104521000D02*
X144526000Y-104394000D01*
X144526000Y-104394000D02*
X144399000Y-104394000D01*
X144399000Y-104394000D02*
X144272000Y-104267000D01*
X144272000Y-104267000D02*
X144145000Y-104267000D01*
X144145000Y-104267000D02*
X143637000Y-103759000D01*
X143637000Y-103759000D02*
X143129000Y-103759000D01*
X143129000Y-103759000D02*
X142113000Y-104775000D01*
X142113000Y-104775000D02*
X142113000Y-105029000D01*
X142113000Y-105029000D02*
X141986000Y-105156000D01*
X141986000Y-105156000D02*
X141986000Y-105283000D01*
X141986000Y-105283000D02*
X141605000Y-105664000D01*
X141605000Y-105664000D02*
X141605000Y-106426000D01*
X141605000Y-106426000D02*
X141643100Y-106448900D01*
X153924000Y-116332000D02*
X144145000Y-126111000D01*
X144145000Y-126111000D02*
X144018000Y-126111000D01*
X144018000Y-126111000D02*
X143891000Y-126238000D01*
X143891000Y-126238000D02*
X143764000Y-126238000D01*
X143764000Y-126238000D02*
X143637000Y-126365000D01*
X143637000Y-126365000D02*
X142367000Y-126365000D01*
X142367000Y-126365000D02*
X141351000Y-127381000D01*
X141351000Y-127381000D02*
X141408400Y-127406400D01*
X167551100Y-129133600D02*
X167513000Y-129159000D01*
X167513000Y-129159000D02*
X161544000Y-123190000D01*
X161544000Y-123190000D02*
X161544000Y-122936000D01*
X143764000Y-118364000D02*
X142367000Y-118364000D01*
X142367000Y-118364000D02*
X141351000Y-117348000D01*
X141351000Y-117348000D02*
X141408400Y-117406400D01*
X141408400Y-115406400D02*
X141351000Y-115443000D01*
X141351000Y-115443000D02*
X139192000Y-117602000D01*
X139192000Y-117602000D02*
X139192000Y-118745000D01*
X141478000Y-120396000D02*
X143764000Y-120396000D01*
X143764000Y-120396000D02*
X146812000Y-117348000D01*
X167640000Y-126746000D02*
X170053000Y-129159000D01*
X170053000Y-129159000D02*
X170091100Y-129133600D01*
D16*
G36*
X203695300Y-133337300D02*
X129552700Y-133337300D01*
X129552700Y-129410261D01*
X148373858Y-129410261D01*
X148586090Y-129923903D01*
X148978730Y-130317229D01*
X149492000Y-130530357D01*
X150047761Y-130530842D01*
X150561403Y-130318610D01*
X150766557Y-130113813D01*
X151510492Y-130113813D01*
X151579957Y-130355997D01*
X152103402Y-130542744D01*
X152658468Y-130514962D01*
X153042243Y-130355997D01*
X153111708Y-130113813D01*
X152311100Y-129313205D01*
X151510492Y-130113813D01*
X150766557Y-130113813D01*
X150954729Y-129925970D01*
X151034495Y-129733873D01*
X151088703Y-129864743D01*
X151330887Y-129934208D01*
X152131495Y-129133600D01*
X152490705Y-129133600D01*
X153291313Y-129934208D01*
X153533497Y-129864743D01*
X153583609Y-129724282D01*
X153666090Y-129923903D01*
X154058730Y-130317229D01*
X154572000Y-130530357D01*
X155127761Y-130530842D01*
X155641403Y-130318610D01*
X156034729Y-129925970D01*
X156121049Y-129718088D01*
X156206090Y-129923903D01*
X156598730Y-130317229D01*
X157112000Y-130530357D01*
X157667761Y-130530842D01*
X158181403Y-130318610D01*
X158574729Y-129925970D01*
X158661049Y-129718088D01*
X158746090Y-129923903D01*
X159138730Y-130317229D01*
X159652000Y-130530357D01*
X160207761Y-130530842D01*
X160721403Y-130318610D01*
X161114729Y-129925970D01*
X161201049Y-129718088D01*
X161286090Y-129923903D01*
X161678730Y-130317229D01*
X162192000Y-130530357D01*
X162747761Y-130530842D01*
X163261403Y-130318610D01*
X163654729Y-129925970D01*
X163741049Y-129718088D01*
X163826090Y-129923903D01*
X164218730Y-130317229D01*
X164732000Y-130530357D01*
X165287761Y-130530842D01*
X165801403Y-130318610D01*
X166194729Y-129925970D01*
X166281049Y-129718088D01*
X166366090Y-129923903D01*
X166758730Y-130317229D01*
X167272000Y-130530357D01*
X167827761Y-130530842D01*
X168341403Y-130318610D01*
X168734729Y-129925970D01*
X168821049Y-129718088D01*
X168906090Y-129923903D01*
X169298730Y-130317229D01*
X169812000Y-130530357D01*
X170367761Y-130530842D01*
X170881403Y-130318610D01*
X171274729Y-129925970D01*
X171361049Y-129718088D01*
X171446090Y-129923903D01*
X171838730Y-130317229D01*
X172352000Y-130530357D01*
X172907761Y-130530842D01*
X173421403Y-130318610D01*
X173814729Y-129925970D01*
X173901049Y-129718088D01*
X173986090Y-129923903D01*
X174378730Y-130317229D01*
X174892000Y-130530357D01*
X175447761Y-130530842D01*
X175961403Y-130318610D01*
X176354729Y-129925970D01*
X176441049Y-129718088D01*
X176526090Y-129923903D01*
X176918730Y-130317229D01*
X177432000Y-130530357D01*
X177987761Y-130530842D01*
X178501403Y-130318610D01*
X178894729Y-129925970D01*
X178981049Y-129718088D01*
X179066090Y-129923903D01*
X179458730Y-130317229D01*
X179972000Y-130530357D01*
X180527761Y-130530842D01*
X181041403Y-130318610D01*
X181434729Y-129925970D01*
X181521049Y-129718088D01*
X181606090Y-129923903D01*
X181998730Y-130317229D01*
X182512000Y-130530357D01*
X183067761Y-130530842D01*
X183581403Y-130318610D01*
X183974729Y-129925970D01*
X184061049Y-129718088D01*
X184146090Y-129923903D01*
X184538730Y-130317229D01*
X185052000Y-130530357D01*
X185607761Y-130530842D01*
X186121403Y-130318610D01*
X186514729Y-129925970D01*
X186601049Y-129718088D01*
X186686090Y-129923903D01*
X187078730Y-130317229D01*
X187592000Y-130530357D01*
X188147761Y-130530842D01*
X188661403Y-130318610D01*
X189054729Y-129925970D01*
X189141049Y-129718088D01*
X189226090Y-129923903D01*
X189618730Y-130317229D01*
X190132000Y-130530357D01*
X190687761Y-130530842D01*
X191201403Y-130318610D01*
X191594729Y-129925970D01*
X191681049Y-129718088D01*
X191766090Y-129923903D01*
X192158730Y-130317229D01*
X192672000Y-130530357D01*
X193227761Y-130530842D01*
X193741403Y-130318610D01*
X194134729Y-129925970D01*
X194221049Y-129718088D01*
X194306090Y-129923903D01*
X194698730Y-130317229D01*
X195212000Y-130530357D01*
X195767761Y-130530842D01*
X196281403Y-130318610D01*
X196674729Y-129925970D01*
X196761049Y-129718088D01*
X196846090Y-129923903D01*
X197238730Y-130317229D01*
X197752000Y-130530357D01*
X198307761Y-130530842D01*
X198821403Y-130318610D01*
X199214729Y-129925970D01*
X199427857Y-129412700D01*
X199428342Y-128856939D01*
X199216110Y-128343297D01*
X198823470Y-127949971D01*
X198310200Y-127736843D01*
X197754439Y-127736358D01*
X197240797Y-127948590D01*
X196847471Y-128341230D01*
X196761151Y-128549112D01*
X196676110Y-128343297D01*
X196283470Y-127949971D01*
X195770200Y-127736843D01*
X195214439Y-127736358D01*
X194700797Y-127948590D01*
X194307471Y-128341230D01*
X194221151Y-128549112D01*
X194136110Y-128343297D01*
X193743470Y-127949971D01*
X193230200Y-127736843D01*
X192674439Y-127736358D01*
X192160797Y-127948590D01*
X191767471Y-128341230D01*
X191681151Y-128549112D01*
X191596110Y-128343297D01*
X191203470Y-127949971D01*
X190690200Y-127736843D01*
X190134439Y-127736358D01*
X189620797Y-127948590D01*
X189227471Y-128341230D01*
X189141151Y-128549112D01*
X189056110Y-128343297D01*
X188663470Y-127949971D01*
X188150200Y-127736843D01*
X187594439Y-127736358D01*
X187080797Y-127948590D01*
X186687471Y-128341230D01*
X186601151Y-128549112D01*
X186516110Y-128343297D01*
X186123470Y-127949971D01*
X185610200Y-127736843D01*
X185054439Y-127736358D01*
X184540797Y-127948590D01*
X184147471Y-128341230D01*
X184061151Y-128549112D01*
X183976110Y-128343297D01*
X183583470Y-127949971D01*
X183070200Y-127736843D01*
X182514439Y-127736358D01*
X182000797Y-127948590D01*
X181607471Y-128341230D01*
X181521151Y-128549112D01*
X181436110Y-128343297D01*
X181043470Y-127949971D01*
X180530200Y-127736843D01*
X179974439Y-127736358D01*
X179460797Y-127948590D01*
X179067471Y-128341230D01*
X178981151Y-128549112D01*
X178896110Y-128343297D01*
X178503470Y-127949971D01*
X177990200Y-127736843D01*
X177434439Y-127736358D01*
X176920797Y-127948590D01*
X176527471Y-128341230D01*
X176441151Y-128549112D01*
X176356110Y-128343297D01*
X175963470Y-127949971D01*
X175450200Y-127736843D01*
X174894439Y-127736358D01*
X174380797Y-127948590D01*
X173987471Y-128341230D01*
X173901151Y-128549112D01*
X173816110Y-128343297D01*
X173423470Y-127949971D01*
X172910200Y-127736843D01*
X172354439Y-127736358D01*
X171840797Y-127948590D01*
X171447471Y-128341230D01*
X171361151Y-128549112D01*
X171276110Y-128343297D01*
X170883470Y-127949971D01*
X170370200Y-127736843D01*
X169814439Y-127736358D01*
X169300797Y-127948590D01*
X168907471Y-128341230D01*
X168821151Y-128549112D01*
X168736110Y-128343297D01*
X168343470Y-127949971D01*
X167830200Y-127736843D01*
X167274439Y-127736358D01*
X166760797Y-127948590D01*
X166367471Y-128341230D01*
X166281151Y-128549112D01*
X166196110Y-128343297D01*
X165803470Y-127949971D01*
X165290200Y-127736843D01*
X164734439Y-127736358D01*
X164220797Y-127948590D01*
X163827471Y-128341230D01*
X163741151Y-128549112D01*
X163656110Y-128343297D01*
X163263470Y-127949971D01*
X162750200Y-127736843D01*
X162194439Y-127736358D01*
X161680797Y-127948590D01*
X161287471Y-128341230D01*
X161201151Y-128549112D01*
X161116110Y-128343297D01*
X160723470Y-127949971D01*
X160210200Y-127736843D01*
X159654439Y-127736358D01*
X159140797Y-127948590D01*
X158747471Y-128341230D01*
X158661151Y-128549112D01*
X158576110Y-128343297D01*
X158183470Y-127949971D01*
X157670200Y-127736843D01*
X157114439Y-127736358D01*
X156600797Y-127948590D01*
X156207471Y-128341230D01*
X156121151Y-128549112D01*
X156036110Y-128343297D01*
X155643470Y-127949971D01*
X155130200Y-127736843D01*
X154574439Y-127736358D01*
X154060797Y-127948590D01*
X153667471Y-128341230D01*
X153587705Y-128533327D01*
X153533497Y-128402457D01*
X153291313Y-128332992D01*
X152490705Y-129133600D01*
X152131495Y-129133600D01*
X151330887Y-128332992D01*
X151088703Y-128402457D01*
X151038591Y-128542918D01*
X150956110Y-128343297D01*
X150766532Y-128153387D01*
X151510492Y-128153387D01*
X152311100Y-128953995D01*
X153111708Y-128153387D01*
X153042243Y-127911203D01*
X152518798Y-127724456D01*
X151963732Y-127752238D01*
X151579957Y-127911203D01*
X151510492Y-128153387D01*
X150766532Y-128153387D01*
X150563470Y-127949971D01*
X150050200Y-127736843D01*
X149494439Y-127736358D01*
X148980797Y-127948590D01*
X148587471Y-128341230D01*
X148374343Y-128854500D01*
X148373858Y-129410261D01*
X129552700Y-129410261D01*
X129552700Y-127601469D01*
X140423230Y-127601469D01*
X140572871Y-127963629D01*
X140849714Y-128240955D01*
X141211612Y-128391228D01*
X141603469Y-128391570D01*
X141965629Y-128241929D01*
X142242955Y-127965086D01*
X142393228Y-127603188D01*
X142393229Y-127601469D01*
X142423230Y-127601469D01*
X142572871Y-127963629D01*
X142849714Y-128240955D01*
X143211612Y-128391228D01*
X143603469Y-128391570D01*
X143965629Y-128241929D01*
X144242955Y-127965086D01*
X144393228Y-127603188D01*
X144393570Y-127211331D01*
X144243929Y-126849171D01*
X143967086Y-126571845D01*
X143605188Y-126421572D01*
X143213331Y-126421230D01*
X142851171Y-126570871D01*
X142573845Y-126847714D01*
X142423572Y-127209612D01*
X142423230Y-127601469D01*
X142393229Y-127601469D01*
X142393570Y-127211331D01*
X142243929Y-126849171D01*
X141967086Y-126571845D01*
X141605188Y-126421572D01*
X141213331Y-126421230D01*
X140851171Y-126570871D01*
X140573845Y-126847714D01*
X140423572Y-127209612D01*
X140423230Y-127601469D01*
X129552700Y-127601469D01*
X129552700Y-125825094D01*
X133239226Y-125825094D01*
X133487538Y-126426055D01*
X133946927Y-126886246D01*
X134547453Y-127135606D01*
X135197694Y-127136174D01*
X135798655Y-126887862D01*
X136258846Y-126428473D01*
X136508206Y-125827947D01*
X136508403Y-125601469D01*
X140423230Y-125601469D01*
X140572871Y-125963629D01*
X140849714Y-126240955D01*
X141211612Y-126391228D01*
X141603469Y-126391570D01*
X141965629Y-126241929D01*
X142120515Y-126087312D01*
X142907093Y-126087312D01*
X142925573Y-126287020D01*
X143299325Y-126404757D01*
X143689682Y-126370503D01*
X143891227Y-126287020D01*
X143909707Y-126087312D01*
X143408400Y-125586005D01*
X142907093Y-126087312D01*
X142120515Y-126087312D01*
X142242955Y-125965086D01*
X142393228Y-125603188D01*
X142393494Y-125297325D01*
X142410043Y-125297325D01*
X142444297Y-125687682D01*
X142527780Y-125889227D01*
X142727488Y-125907707D01*
X143228795Y-125406400D01*
X143588005Y-125406400D01*
X144089312Y-125907707D01*
X144289020Y-125889227D01*
X144406757Y-125515475D01*
X144372503Y-125125118D01*
X144289020Y-124923573D01*
X144089312Y-124905093D01*
X143588005Y-125406400D01*
X143228795Y-125406400D01*
X142727488Y-124905093D01*
X142527780Y-124923573D01*
X142410043Y-125297325D01*
X142393494Y-125297325D01*
X142393570Y-125211331D01*
X142243929Y-124849171D01*
X142120462Y-124725488D01*
X142907093Y-124725488D01*
X143408400Y-125226795D01*
X143909707Y-124725488D01*
X143891227Y-124525780D01*
X143517475Y-124408043D01*
X143127118Y-124442297D01*
X142925573Y-124525780D01*
X142907093Y-124725488D01*
X142120462Y-124725488D01*
X141967086Y-124571845D01*
X141605188Y-124421572D01*
X141213331Y-124421230D01*
X140851171Y-124570871D01*
X140573845Y-124847714D01*
X140423572Y-125209612D01*
X140423230Y-125601469D01*
X136508403Y-125601469D01*
X136508774Y-125177706D01*
X136260462Y-124576745D01*
X135801073Y-124116554D01*
X135200547Y-123867194D01*
X134550306Y-123866626D01*
X133949345Y-124114938D01*
X133489154Y-124574327D01*
X133239794Y-125174853D01*
X133239226Y-125825094D01*
X129552700Y-125825094D01*
X129552700Y-123601469D01*
X140423230Y-123601469D01*
X140572871Y-123963629D01*
X140849714Y-124240955D01*
X141211612Y-124391228D01*
X141603469Y-124391570D01*
X141965629Y-124241929D01*
X142242955Y-123965086D01*
X142393228Y-123603188D01*
X142393229Y-123601469D01*
X142423230Y-123601469D01*
X142572871Y-123963629D01*
X142849714Y-124240955D01*
X143211612Y-124391228D01*
X143603469Y-124391570D01*
X143965629Y-124241929D01*
X144242955Y-123965086D01*
X144393228Y-123603188D01*
X144393570Y-123211331D01*
X144243929Y-122849171D01*
X143967086Y-122571845D01*
X143605188Y-122421572D01*
X143213331Y-122421230D01*
X142851171Y-122570871D01*
X142573845Y-122847714D01*
X142423572Y-123209612D01*
X142423230Y-123601469D01*
X142393229Y-123601469D01*
X142393570Y-123211331D01*
X142243929Y-122849171D01*
X141967086Y-122571845D01*
X141605188Y-122421572D01*
X141213331Y-122421230D01*
X140851171Y-122570871D01*
X140573845Y-122847714D01*
X140423572Y-123209612D01*
X140423230Y-123601469D01*
X129552700Y-123601469D01*
X129552700Y-121601469D01*
X140423230Y-121601469D01*
X140572871Y-121963629D01*
X140849714Y-122240955D01*
X141211612Y-122391228D01*
X141603469Y-122391570D01*
X141965629Y-122241929D01*
X142242955Y-121965086D01*
X142393228Y-121603188D01*
X142393229Y-121601469D01*
X142423230Y-121601469D01*
X142572871Y-121963629D01*
X142849714Y-122240955D01*
X143211612Y-122391228D01*
X143603469Y-122391570D01*
X143965629Y-122241929D01*
X144242955Y-121965086D01*
X144393228Y-121603188D01*
X144393570Y-121211331D01*
X144243929Y-120849171D01*
X143967086Y-120571845D01*
X143605188Y-120421572D01*
X143213331Y-120421230D01*
X142851171Y-120570871D01*
X142573845Y-120847714D01*
X142423572Y-121209612D01*
X142423230Y-121601469D01*
X142393229Y-121601469D01*
X142393570Y-121211331D01*
X142243929Y-120849171D01*
X141967086Y-120571845D01*
X141605188Y-120421572D01*
X141213331Y-120421230D01*
X140851171Y-120570871D01*
X140573845Y-120847714D01*
X140423572Y-121209612D01*
X140423230Y-121601469D01*
X129552700Y-121601469D01*
X129552700Y-119601469D01*
X140423230Y-119601469D01*
X140572871Y-119963629D01*
X140849714Y-120240955D01*
X141211612Y-120391228D01*
X141603469Y-120391570D01*
X141965629Y-120241929D01*
X142242955Y-119965086D01*
X142393228Y-119603188D01*
X142393229Y-119601469D01*
X142423230Y-119601469D01*
X142572871Y-119963629D01*
X142849714Y-120240955D01*
X143211612Y-120391228D01*
X143603469Y-120391570D01*
X143965629Y-120241929D01*
X144242955Y-119965086D01*
X144393228Y-119603188D01*
X144393570Y-119211331D01*
X144243929Y-118849171D01*
X143967086Y-118571845D01*
X143605188Y-118421572D01*
X143213331Y-118421230D01*
X142851171Y-118570871D01*
X142573845Y-118847714D01*
X142423572Y-119209612D01*
X142423230Y-119601469D01*
X142393229Y-119601469D01*
X142393570Y-119211331D01*
X142243929Y-118849171D01*
X141967086Y-118571845D01*
X141605188Y-118421572D01*
X141213331Y-118421230D01*
X140851171Y-118570871D01*
X140573845Y-118847714D01*
X140423572Y-119209612D01*
X140423230Y-119601469D01*
X129552700Y-119601469D01*
X129552700Y-117601469D01*
X140423230Y-117601469D01*
X140572871Y-117963629D01*
X140849714Y-118240955D01*
X141211612Y-118391228D01*
X141603469Y-118391570D01*
X141965629Y-118241929D01*
X142242955Y-117965086D01*
X142393228Y-117603188D01*
X142393229Y-117601469D01*
X142423230Y-117601469D01*
X142572871Y-117963629D01*
X142849714Y-118240955D01*
X143211612Y-118391228D01*
X143603469Y-118391570D01*
X143965629Y-118241929D01*
X144242955Y-117965086D01*
X144393228Y-117603188D01*
X144393570Y-117211331D01*
X144243929Y-116849171D01*
X143967086Y-116571845D01*
X143605188Y-116421572D01*
X143213331Y-116421230D01*
X142851171Y-116570871D01*
X142573845Y-116847714D01*
X142423572Y-117209612D01*
X142423230Y-117601469D01*
X142393229Y-117601469D01*
X142393570Y-117211331D01*
X142243929Y-116849171D01*
X141967086Y-116571845D01*
X141605188Y-116421572D01*
X141213331Y-116421230D01*
X140851171Y-116570871D01*
X140573845Y-116847714D01*
X140423572Y-117209612D01*
X140423230Y-117601469D01*
X129552700Y-117601469D01*
X129552700Y-115665094D01*
X133239226Y-115665094D01*
X133487538Y-116266055D01*
X133946927Y-116726246D01*
X134547453Y-116975606D01*
X135197694Y-116976174D01*
X135798655Y-116727862D01*
X136258846Y-116268473D01*
X136508206Y-115667947D01*
X136508264Y-115601469D01*
X140423230Y-115601469D01*
X140572871Y-115963629D01*
X140849714Y-116240955D01*
X141211612Y-116391228D01*
X141603469Y-116391570D01*
X141965629Y-116241929D01*
X142242955Y-115965086D01*
X142393228Y-115603188D01*
X142393229Y-115601469D01*
X142423230Y-115601469D01*
X142572871Y-115963629D01*
X142849714Y-116240955D01*
X143211612Y-116391228D01*
X143603469Y-116391570D01*
X143965629Y-116241929D01*
X144242955Y-115965086D01*
X144393228Y-115603188D01*
X144393570Y-115211331D01*
X144243929Y-114849171D01*
X143967086Y-114571845D01*
X143605188Y-114421572D01*
X143213331Y-114421230D01*
X142851171Y-114570871D01*
X142573845Y-114847714D01*
X142423572Y-115209612D01*
X142423230Y-115601469D01*
X142393229Y-115601469D01*
X142393570Y-115211331D01*
X142243929Y-114849171D01*
X141967086Y-114571845D01*
X141605188Y-114421572D01*
X141213331Y-114421230D01*
X140851171Y-114570871D01*
X140573845Y-114847714D01*
X140423572Y-115209612D01*
X140423230Y-115601469D01*
X136508264Y-115601469D01*
X136508774Y-115017706D01*
X136260462Y-114416745D01*
X135801073Y-113956554D01*
X135200547Y-113707194D01*
X134550306Y-113706626D01*
X133949345Y-113954938D01*
X133489154Y-114414327D01*
X133239794Y-115014853D01*
X133239226Y-115665094D01*
X129552700Y-115665094D01*
X129552700Y-111073900D01*
X139425660Y-111073900D01*
X139425660Y-112623900D01*
X139469938Y-112859217D01*
X139609010Y-113075341D01*
X139821210Y-113220331D01*
X140073100Y-113271340D01*
X140673100Y-113271340D01*
X140908417Y-113227062D01*
X141007628Y-113163222D01*
X141091210Y-113220331D01*
X141343100Y-113271340D01*
X141943100Y-113271340D01*
X142178417Y-113227062D01*
X142277628Y-113163222D01*
X142361210Y-113220331D01*
X142613100Y-113271340D01*
X143213100Y-113271340D01*
X143448417Y-113227062D01*
X143547628Y-113163222D01*
X143631210Y-113220331D01*
X143883100Y-113271340D01*
X144483100Y-113271340D01*
X144718417Y-113227062D01*
X144934541Y-113087990D01*
X145079531Y-112875790D01*
X145130540Y-112623900D01*
X145130540Y-111073900D01*
X145086262Y-110838583D01*
X144947190Y-110622459D01*
X144734990Y-110477469D01*
X144483100Y-110426460D01*
X143883100Y-110426460D01*
X143647783Y-110470738D01*
X143548572Y-110534578D01*
X143464990Y-110477469D01*
X143213100Y-110426460D01*
X142613100Y-110426460D01*
X142377783Y-110470738D01*
X142278572Y-110534578D01*
X142194990Y-110477469D01*
X141943100Y-110426460D01*
X141343100Y-110426460D01*
X141107783Y-110470738D01*
X141008572Y-110534578D01*
X140924990Y-110477469D01*
X140673100Y-110426460D01*
X140073100Y-110426460D01*
X139837783Y-110470738D01*
X139621659Y-110609810D01*
X139476669Y-110822010D01*
X139425660Y-111073900D01*
X129552700Y-111073900D01*
X129552700Y-105673900D01*
X139425660Y-105673900D01*
X139425660Y-107223900D01*
X139469938Y-107459217D01*
X139609010Y-107675341D01*
X139821210Y-107820331D01*
X140073100Y-107871340D01*
X140673100Y-107871340D01*
X140908417Y-107827062D01*
X141007628Y-107763222D01*
X141091210Y-107820331D01*
X141343100Y-107871340D01*
X141943100Y-107871340D01*
X142178417Y-107827062D01*
X142277628Y-107763222D01*
X142361210Y-107820331D01*
X142613100Y-107871340D01*
X143213100Y-107871340D01*
X143448417Y-107827062D01*
X143547628Y-107763222D01*
X143631210Y-107820331D01*
X143883100Y-107871340D01*
X144483100Y-107871340D01*
X144718417Y-107827062D01*
X144934541Y-107687990D01*
X145079531Y-107475790D01*
X145130540Y-107223900D01*
X145130540Y-106550261D01*
X148373858Y-106550261D01*
X148586090Y-107063903D01*
X148978730Y-107457229D01*
X149492000Y-107670357D01*
X150047761Y-107670842D01*
X150561403Y-107458610D01*
X150954729Y-107065970D01*
X151041049Y-106858088D01*
X151126090Y-107063903D01*
X151518730Y-107457229D01*
X152032000Y-107670357D01*
X152587761Y-107670842D01*
X153101403Y-107458610D01*
X153494729Y-107065970D01*
X153581049Y-106858088D01*
X153666090Y-107063903D01*
X154058730Y-107457229D01*
X154572000Y-107670357D01*
X155127761Y-107670842D01*
X155641403Y-107458610D01*
X156034729Y-107065970D01*
X156121049Y-106858088D01*
X156206090Y-107063903D01*
X156598730Y-107457229D01*
X157112000Y-107670357D01*
X157667761Y-107670842D01*
X158181403Y-107458610D01*
X158574729Y-107065970D01*
X158661049Y-106858088D01*
X158746090Y-107063903D01*
X159138730Y-107457229D01*
X159652000Y-107670357D01*
X160207761Y-107670842D01*
X160721403Y-107458610D01*
X161114729Y-107065970D01*
X161201049Y-106858088D01*
X161286090Y-107063903D01*
X161678730Y-107457229D01*
X162192000Y-107670357D01*
X162747761Y-107670842D01*
X163261403Y-107458610D01*
X163654729Y-107065970D01*
X163741049Y-106858088D01*
X163826090Y-107063903D01*
X164218730Y-107457229D01*
X164732000Y-107670357D01*
X165287761Y-107670842D01*
X165801403Y-107458610D01*
X166194729Y-107065970D01*
X166281049Y-106858088D01*
X166366090Y-107063903D01*
X166758730Y-107457229D01*
X167272000Y-107670357D01*
X167827761Y-107670842D01*
X168341403Y-107458610D01*
X168734729Y-107065970D01*
X168821049Y-106858088D01*
X168906090Y-107063903D01*
X169298730Y-107457229D01*
X169812000Y-107670357D01*
X170367761Y-107670842D01*
X170881403Y-107458610D01*
X171274729Y-107065970D01*
X171361049Y-106858088D01*
X171446090Y-107063903D01*
X171838730Y-107457229D01*
X172352000Y-107670357D01*
X172907761Y-107670842D01*
X173421403Y-107458610D01*
X173814729Y-107065970D01*
X173901049Y-106858088D01*
X173986090Y-107063903D01*
X174378730Y-107457229D01*
X174892000Y-107670357D01*
X175447761Y-107670842D01*
X175961403Y-107458610D01*
X176354729Y-107065970D01*
X176441049Y-106858088D01*
X176526090Y-107063903D01*
X176918730Y-107457229D01*
X177432000Y-107670357D01*
X177987761Y-107670842D01*
X178501403Y-107458610D01*
X178894729Y-107065970D01*
X178981049Y-106858088D01*
X179066090Y-107063903D01*
X179458730Y-107457229D01*
X179972000Y-107670357D01*
X180527761Y-107670842D01*
X181041403Y-107458610D01*
X181434729Y-107065970D01*
X181521049Y-106858088D01*
X181606090Y-107063903D01*
X181998730Y-107457229D01*
X182512000Y-107670357D01*
X183067761Y-107670842D01*
X183581403Y-107458610D01*
X183974729Y-107065970D01*
X184061049Y-106858088D01*
X184146090Y-107063903D01*
X184538730Y-107457229D01*
X185052000Y-107670357D01*
X185607761Y-107670842D01*
X186121403Y-107458610D01*
X186514729Y-107065970D01*
X186601049Y-106858088D01*
X186686090Y-107063903D01*
X187078730Y-107457229D01*
X187592000Y-107670357D01*
X188147761Y-107670842D01*
X188661403Y-107458610D01*
X189054729Y-107065970D01*
X189141049Y-106858088D01*
X189226090Y-107063903D01*
X189618730Y-107457229D01*
X190132000Y-107670357D01*
X190687761Y-107670842D01*
X191201403Y-107458610D01*
X191594729Y-107065970D01*
X191681049Y-106858088D01*
X191766090Y-107063903D01*
X192158730Y-107457229D01*
X192672000Y-107670357D01*
X193227761Y-107670842D01*
X193741403Y-107458610D01*
X194134729Y-107065970D01*
X194221049Y-106858088D01*
X194306090Y-107063903D01*
X194698730Y-107457229D01*
X195212000Y-107670357D01*
X195767761Y-107670842D01*
X196281403Y-107458610D01*
X196674729Y-107065970D01*
X196761049Y-106858088D01*
X196846090Y-107063903D01*
X197238730Y-107457229D01*
X197752000Y-107670357D01*
X198307761Y-107670842D01*
X198821403Y-107458610D01*
X199214729Y-107065970D01*
X199427857Y-106552700D01*
X199428342Y-105996939D01*
X199216110Y-105483297D01*
X198823470Y-105089971D01*
X198310200Y-104876843D01*
X197754439Y-104876358D01*
X197240797Y-105088590D01*
X196847471Y-105481230D01*
X196761151Y-105689112D01*
X196676110Y-105483297D01*
X196283470Y-105089971D01*
X195770200Y-104876843D01*
X195214439Y-104876358D01*
X194700797Y-105088590D01*
X194307471Y-105481230D01*
X194221151Y-105689112D01*
X194136110Y-105483297D01*
X193743470Y-105089971D01*
X193230200Y-104876843D01*
X192674439Y-104876358D01*
X192160797Y-105088590D01*
X191767471Y-105481230D01*
X191681151Y-105689112D01*
X191596110Y-105483297D01*
X191203470Y-105089971D01*
X190690200Y-104876843D01*
X190134439Y-104876358D01*
X189620797Y-105088590D01*
X189227471Y-105481230D01*
X189141151Y-105689112D01*
X189056110Y-105483297D01*
X188663470Y-105089971D01*
X188150200Y-104876843D01*
X187594439Y-104876358D01*
X187080797Y-105088590D01*
X186687471Y-105481230D01*
X186601151Y-105689112D01*
X186516110Y-105483297D01*
X186123470Y-105089971D01*
X185610200Y-104876843D01*
X185054439Y-104876358D01*
X184540797Y-105088590D01*
X184147471Y-105481230D01*
X184061151Y-105689112D01*
X183976110Y-105483297D01*
X183583470Y-105089971D01*
X183070200Y-104876843D01*
X182514439Y-104876358D01*
X182000797Y-105088590D01*
X181607471Y-105481230D01*
X181521151Y-105689112D01*
X181436110Y-105483297D01*
X181043470Y-105089971D01*
X180530200Y-104876843D01*
X179974439Y-104876358D01*
X179460797Y-105088590D01*
X179067471Y-105481230D01*
X178981151Y-105689112D01*
X178896110Y-105483297D01*
X178503470Y-105089971D01*
X177990200Y-104876843D01*
X177434439Y-104876358D01*
X176920797Y-105088590D01*
X176527471Y-105481230D01*
X176441151Y-105689112D01*
X176356110Y-105483297D01*
X175963470Y-105089971D01*
X175450200Y-104876843D01*
X174894439Y-104876358D01*
X174380797Y-105088590D01*
X173987471Y-105481230D01*
X173901151Y-105689112D01*
X173816110Y-105483297D01*
X173423470Y-105089971D01*
X172910200Y-104876843D01*
X172354439Y-104876358D01*
X171840797Y-105088590D01*
X171447471Y-105481230D01*
X171361151Y-105689112D01*
X171276110Y-105483297D01*
X170883470Y-105089971D01*
X170370200Y-104876843D01*
X169814439Y-104876358D01*
X169300797Y-105088590D01*
X168907471Y-105481230D01*
X168821151Y-105689112D01*
X168736110Y-105483297D01*
X168343470Y-105089971D01*
X167830200Y-104876843D01*
X167274439Y-104876358D01*
X166760797Y-105088590D01*
X166367471Y-105481230D01*
X166281151Y-105689112D01*
X166196110Y-105483297D01*
X165803470Y-105089971D01*
X165290200Y-104876843D01*
X164734439Y-104876358D01*
X164220797Y-105088590D01*
X163827471Y-105481230D01*
X163741151Y-105689112D01*
X163656110Y-105483297D01*
X163263470Y-105089971D01*
X162750200Y-104876843D01*
X162194439Y-104876358D01*
X161680797Y-105088590D01*
X161287471Y-105481230D01*
X161201151Y-105689112D01*
X161116110Y-105483297D01*
X160723470Y-105089971D01*
X160210200Y-104876843D01*
X159654439Y-104876358D01*
X159140797Y-105088590D01*
X158747471Y-105481230D01*
X158661151Y-105689112D01*
X158576110Y-105483297D01*
X158183470Y-105089971D01*
X157670200Y-104876843D01*
X157114439Y-104876358D01*
X156600797Y-105088590D01*
X156207471Y-105481230D01*
X156121151Y-105689112D01*
X156036110Y-105483297D01*
X155643470Y-105089971D01*
X155130200Y-104876843D01*
X154574439Y-104876358D01*
X154060797Y-105088590D01*
X153667471Y-105481230D01*
X153581151Y-105689112D01*
X153496110Y-105483297D01*
X153103470Y-105089971D01*
X152590200Y-104876843D01*
X152034439Y-104876358D01*
X151520797Y-105088590D01*
X151127471Y-105481230D01*
X151041151Y-105689112D01*
X150956110Y-105483297D01*
X150563470Y-105089971D01*
X150050200Y-104876843D01*
X149494439Y-104876358D01*
X148980797Y-105088590D01*
X148587471Y-105481230D01*
X148374343Y-105994500D01*
X148373858Y-106550261D01*
X145130540Y-106550261D01*
X145130540Y-105673900D01*
X145086262Y-105438583D01*
X144947190Y-105222459D01*
X144734990Y-105077469D01*
X144483100Y-105026460D01*
X143883100Y-105026460D01*
X143647783Y-105070738D01*
X143548572Y-105134578D01*
X143464990Y-105077469D01*
X143213100Y-105026460D01*
X142613100Y-105026460D01*
X142377783Y-105070738D01*
X142278572Y-105134578D01*
X142194990Y-105077469D01*
X141943100Y-105026460D01*
X141343100Y-105026460D01*
X141107783Y-105070738D01*
X141008572Y-105134578D01*
X140924990Y-105077469D01*
X140673100Y-105026460D01*
X140073100Y-105026460D01*
X139837783Y-105070738D01*
X139621659Y-105209810D01*
X139476669Y-105422010D01*
X139425660Y-105673900D01*
X129552700Y-105673900D01*
X129552700Y-100342700D01*
X203695300Y-100342700D01*
X203695300Y-133337300D01*
X203695300Y-133337300D01*
G37*
X203695300Y-133337300D02*
X129552700Y-133337300D01*
X129552700Y-129410261D01*
X148373858Y-129410261D01*
X148586090Y-129923903D01*
X148978730Y-130317229D01*
X149492000Y-130530357D01*
X150047761Y-130530842D01*
X150561403Y-130318610D01*
X150766557Y-130113813D01*
X151510492Y-130113813D01*
X151579957Y-130355997D01*
X152103402Y-130542744D01*
X152658468Y-130514962D01*
X153042243Y-130355997D01*
X153111708Y-130113813D01*
X152311100Y-129313205D01*
X151510492Y-130113813D01*
X150766557Y-130113813D01*
X150954729Y-129925970D01*
X151034495Y-129733873D01*
X151088703Y-129864743D01*
X151330887Y-129934208D01*
X152131495Y-129133600D01*
X152490705Y-129133600D01*
X153291313Y-129934208D01*
X153533497Y-129864743D01*
X153583609Y-129724282D01*
X153666090Y-129923903D01*
X154058730Y-130317229D01*
X154572000Y-130530357D01*
X155127761Y-130530842D01*
X155641403Y-130318610D01*
X156034729Y-129925970D01*
X156121049Y-129718088D01*
X156206090Y-129923903D01*
X156598730Y-130317229D01*
X157112000Y-130530357D01*
X157667761Y-130530842D01*
X158181403Y-130318610D01*
X158574729Y-129925970D01*
X158661049Y-129718088D01*
X158746090Y-129923903D01*
X159138730Y-130317229D01*
X159652000Y-130530357D01*
X160207761Y-130530842D01*
X160721403Y-130318610D01*
X161114729Y-129925970D01*
X161201049Y-129718088D01*
X161286090Y-129923903D01*
X161678730Y-130317229D01*
X162192000Y-130530357D01*
X162747761Y-130530842D01*
X163261403Y-130318610D01*
X163654729Y-129925970D01*
X163741049Y-129718088D01*
X163826090Y-129923903D01*
X164218730Y-130317229D01*
X164732000Y-130530357D01*
X165287761Y-130530842D01*
X165801403Y-130318610D01*
X166194729Y-129925970D01*
X166281049Y-129718088D01*
X166366090Y-129923903D01*
X166758730Y-130317229D01*
X167272000Y-130530357D01*
X167827761Y-130530842D01*
X168341403Y-130318610D01*
X168734729Y-129925970D01*
X168821049Y-129718088D01*
X168906090Y-129923903D01*
X169298730Y-130317229D01*
X169812000Y-130530357D01*
X170367761Y-130530842D01*
X170881403Y-130318610D01*
X171274729Y-129925970D01*
X171361049Y-129718088D01*
X171446090Y-129923903D01*
X171838730Y-130317229D01*
X172352000Y-130530357D01*
X172907761Y-130530842D01*
X173421403Y-130318610D01*
X173814729Y-129925970D01*
X173901049Y-129718088D01*
X173986090Y-129923903D01*
X174378730Y-130317229D01*
X174892000Y-130530357D01*
X175447761Y-130530842D01*
X175961403Y-130318610D01*
X176354729Y-129925970D01*
X176441049Y-129718088D01*
X176526090Y-129923903D01*
X176918730Y-130317229D01*
X177432000Y-130530357D01*
X177987761Y-130530842D01*
X178501403Y-130318610D01*
X178894729Y-129925970D01*
X178981049Y-129718088D01*
X179066090Y-129923903D01*
X179458730Y-130317229D01*
X179972000Y-130530357D01*
X180527761Y-130530842D01*
X181041403Y-130318610D01*
X181434729Y-129925970D01*
X181521049Y-129718088D01*
X181606090Y-129923903D01*
X181998730Y-130317229D01*
X182512000Y-130530357D01*
X183067761Y-130530842D01*
X183581403Y-130318610D01*
X183974729Y-129925970D01*
X184061049Y-129718088D01*
X184146090Y-129923903D01*
X184538730Y-130317229D01*
X185052000Y-130530357D01*
X185607761Y-130530842D01*
X186121403Y-130318610D01*
X186514729Y-129925970D01*
X186601049Y-129718088D01*
X186686090Y-129923903D01*
X187078730Y-130317229D01*
X187592000Y-130530357D01*
X188147761Y-130530842D01*
X188661403Y-130318610D01*
X189054729Y-129925970D01*
X189141049Y-129718088D01*
X189226090Y-129923903D01*
X189618730Y-130317229D01*
X190132000Y-130530357D01*
X190687761Y-130530842D01*
X191201403Y-130318610D01*
X191594729Y-129925970D01*
X191681049Y-129718088D01*
X191766090Y-129923903D01*
X192158730Y-130317229D01*
X192672000Y-130530357D01*
X193227761Y-130530842D01*
X193741403Y-130318610D01*
X194134729Y-129925970D01*
X194221049Y-129718088D01*
X194306090Y-129923903D01*
X194698730Y-130317229D01*
X195212000Y-130530357D01*
X195767761Y-130530842D01*
X196281403Y-130318610D01*
X196674729Y-129925970D01*
X196761049Y-129718088D01*
X196846090Y-129923903D01*
X197238730Y-130317229D01*
X197752000Y-130530357D01*
X198307761Y-130530842D01*
X198821403Y-130318610D01*
X199214729Y-129925970D01*
X199427857Y-129412700D01*
X199428342Y-128856939D01*
X199216110Y-128343297D01*
X198823470Y-127949971D01*
X198310200Y-127736843D01*
X197754439Y-127736358D01*
X197240797Y-127948590D01*
X196847471Y-128341230D01*
X196761151Y-128549112D01*
X196676110Y-128343297D01*
X196283470Y-127949971D01*
X195770200Y-127736843D01*
X195214439Y-127736358D01*
X194700797Y-127948590D01*
X194307471Y-128341230D01*
X194221151Y-128549112D01*
X194136110Y-128343297D01*
X193743470Y-127949971D01*
X193230200Y-127736843D01*
X192674439Y-127736358D01*
X192160797Y-127948590D01*
X191767471Y-128341230D01*
X191681151Y-128549112D01*
X191596110Y-128343297D01*
X191203470Y-127949971D01*
X190690200Y-127736843D01*
X190134439Y-127736358D01*
X189620797Y-127948590D01*
X189227471Y-128341230D01*
X189141151Y-128549112D01*
X189056110Y-128343297D01*
X188663470Y-127949971D01*
X188150200Y-127736843D01*
X187594439Y-127736358D01*
X187080797Y-127948590D01*
X186687471Y-128341230D01*
X186601151Y-128549112D01*
X186516110Y-128343297D01*
X186123470Y-127949971D01*
X185610200Y-127736843D01*
X185054439Y-127736358D01*
X184540797Y-127948590D01*
X184147471Y-128341230D01*
X184061151Y-128549112D01*
X183976110Y-128343297D01*
X183583470Y-127949971D01*
X183070200Y-127736843D01*
X182514439Y-127736358D01*
X182000797Y-127948590D01*
X181607471Y-128341230D01*
X181521151Y-128549112D01*
X181436110Y-128343297D01*
X181043470Y-127949971D01*
X180530200Y-127736843D01*
X179974439Y-127736358D01*
X179460797Y-127948590D01*
X179067471Y-128341230D01*
X178981151Y-128549112D01*
X178896110Y-128343297D01*
X178503470Y-127949971D01*
X177990200Y-127736843D01*
X177434439Y-127736358D01*
X176920797Y-127948590D01*
X176527471Y-128341230D01*
X176441151Y-128549112D01*
X176356110Y-128343297D01*
X175963470Y-127949971D01*
X175450200Y-127736843D01*
X174894439Y-127736358D01*
X174380797Y-127948590D01*
X173987471Y-128341230D01*
X173901151Y-128549112D01*
X173816110Y-128343297D01*
X173423470Y-127949971D01*
X172910200Y-127736843D01*
X172354439Y-127736358D01*
X171840797Y-127948590D01*
X171447471Y-128341230D01*
X171361151Y-128549112D01*
X171276110Y-128343297D01*
X170883470Y-127949971D01*
X170370200Y-127736843D01*
X169814439Y-127736358D01*
X169300797Y-127948590D01*
X168907471Y-128341230D01*
X168821151Y-128549112D01*
X168736110Y-128343297D01*
X168343470Y-127949971D01*
X167830200Y-127736843D01*
X167274439Y-127736358D01*
X166760797Y-127948590D01*
X166367471Y-128341230D01*
X166281151Y-128549112D01*
X166196110Y-128343297D01*
X165803470Y-127949971D01*
X165290200Y-127736843D01*
X164734439Y-127736358D01*
X164220797Y-127948590D01*
X163827471Y-128341230D01*
X163741151Y-128549112D01*
X163656110Y-128343297D01*
X163263470Y-127949971D01*
X162750200Y-127736843D01*
X162194439Y-127736358D01*
X161680797Y-127948590D01*
X161287471Y-128341230D01*
X161201151Y-128549112D01*
X161116110Y-128343297D01*
X160723470Y-127949971D01*
X160210200Y-127736843D01*
X159654439Y-127736358D01*
X159140797Y-127948590D01*
X158747471Y-128341230D01*
X158661151Y-128549112D01*
X158576110Y-128343297D01*
X158183470Y-127949971D01*
X157670200Y-127736843D01*
X157114439Y-127736358D01*
X156600797Y-127948590D01*
X156207471Y-128341230D01*
X156121151Y-128549112D01*
X156036110Y-128343297D01*
X155643470Y-127949971D01*
X155130200Y-127736843D01*
X154574439Y-127736358D01*
X154060797Y-127948590D01*
X153667471Y-128341230D01*
X153587705Y-128533327D01*
X153533497Y-128402457D01*
X153291313Y-128332992D01*
X152490705Y-129133600D01*
X152131495Y-129133600D01*
X151330887Y-128332992D01*
X151088703Y-128402457D01*
X151038591Y-128542918D01*
X150956110Y-128343297D01*
X150766532Y-128153387D01*
X151510492Y-128153387D01*
X152311100Y-128953995D01*
X153111708Y-128153387D01*
X153042243Y-127911203D01*
X152518798Y-127724456D01*
X151963732Y-127752238D01*
X151579957Y-127911203D01*
X151510492Y-128153387D01*
X150766532Y-128153387D01*
X150563470Y-127949971D01*
X150050200Y-127736843D01*
X149494439Y-127736358D01*
X148980797Y-127948590D01*
X148587471Y-128341230D01*
X148374343Y-128854500D01*
X148373858Y-129410261D01*
X129552700Y-129410261D01*
X129552700Y-127601469D01*
X140423230Y-127601469D01*
X140572871Y-127963629D01*
X140849714Y-128240955D01*
X141211612Y-128391228D01*
X141603469Y-128391570D01*
X141965629Y-128241929D01*
X142242955Y-127965086D01*
X142393228Y-127603188D01*
X142393229Y-127601469D01*
X142423230Y-127601469D01*
X142572871Y-127963629D01*
X142849714Y-128240955D01*
X143211612Y-128391228D01*
X143603469Y-128391570D01*
X143965629Y-128241929D01*
X144242955Y-127965086D01*
X144393228Y-127603188D01*
X144393570Y-127211331D01*
X144243929Y-126849171D01*
X143967086Y-126571845D01*
X143605188Y-126421572D01*
X143213331Y-126421230D01*
X142851171Y-126570871D01*
X142573845Y-126847714D01*
X142423572Y-127209612D01*
X142423230Y-127601469D01*
X142393229Y-127601469D01*
X142393570Y-127211331D01*
X142243929Y-126849171D01*
X141967086Y-126571845D01*
X141605188Y-126421572D01*
X141213331Y-126421230D01*
X140851171Y-126570871D01*
X140573845Y-126847714D01*
X140423572Y-127209612D01*
X140423230Y-127601469D01*
X129552700Y-127601469D01*
X129552700Y-125825094D01*
X133239226Y-125825094D01*
X133487538Y-126426055D01*
X133946927Y-126886246D01*
X134547453Y-127135606D01*
X135197694Y-127136174D01*
X135798655Y-126887862D01*
X136258846Y-126428473D01*
X136508206Y-125827947D01*
X136508403Y-125601469D01*
X140423230Y-125601469D01*
X140572871Y-125963629D01*
X140849714Y-126240955D01*
X141211612Y-126391228D01*
X141603469Y-126391570D01*
X141965629Y-126241929D01*
X142120515Y-126087312D01*
X142907093Y-126087312D01*
X142925573Y-126287020D01*
X143299325Y-126404757D01*
X143689682Y-126370503D01*
X143891227Y-126287020D01*
X143909707Y-126087312D01*
X143408400Y-125586005D01*
X142907093Y-126087312D01*
X142120515Y-126087312D01*
X142242955Y-125965086D01*
X142393228Y-125603188D01*
X142393494Y-125297325D01*
X142410043Y-125297325D01*
X142444297Y-125687682D01*
X142527780Y-125889227D01*
X142727488Y-125907707D01*
X143228795Y-125406400D01*
X143588005Y-125406400D01*
X144089312Y-125907707D01*
X144289020Y-125889227D01*
X144406757Y-125515475D01*
X144372503Y-125125118D01*
X144289020Y-124923573D01*
X144089312Y-124905093D01*
X143588005Y-125406400D01*
X143228795Y-125406400D01*
X142727488Y-124905093D01*
X142527780Y-124923573D01*
X142410043Y-125297325D01*
X142393494Y-125297325D01*
X142393570Y-125211331D01*
X142243929Y-124849171D01*
X142120462Y-124725488D01*
X142907093Y-124725488D01*
X143408400Y-125226795D01*
X143909707Y-124725488D01*
X143891227Y-124525780D01*
X143517475Y-124408043D01*
X143127118Y-124442297D01*
X142925573Y-124525780D01*
X142907093Y-124725488D01*
X142120462Y-124725488D01*
X141967086Y-124571845D01*
X141605188Y-124421572D01*
X141213331Y-124421230D01*
X140851171Y-124570871D01*
X140573845Y-124847714D01*
X140423572Y-125209612D01*
X140423230Y-125601469D01*
X136508403Y-125601469D01*
X136508774Y-125177706D01*
X136260462Y-124576745D01*
X135801073Y-124116554D01*
X135200547Y-123867194D01*
X134550306Y-123866626D01*
X133949345Y-124114938D01*
X133489154Y-124574327D01*
X133239794Y-125174853D01*
X133239226Y-125825094D01*
X129552700Y-125825094D01*
X129552700Y-123601469D01*
X140423230Y-123601469D01*
X140572871Y-123963629D01*
X140849714Y-124240955D01*
X141211612Y-124391228D01*
X141603469Y-124391570D01*
X141965629Y-124241929D01*
X142242955Y-123965086D01*
X142393228Y-123603188D01*
X142393229Y-123601469D01*
X142423230Y-123601469D01*
X142572871Y-123963629D01*
X142849714Y-124240955D01*
X143211612Y-124391228D01*
X143603469Y-124391570D01*
X143965629Y-124241929D01*
X144242955Y-123965086D01*
X144393228Y-123603188D01*
X144393570Y-123211331D01*
X144243929Y-122849171D01*
X143967086Y-122571845D01*
X143605188Y-122421572D01*
X143213331Y-122421230D01*
X142851171Y-122570871D01*
X142573845Y-122847714D01*
X142423572Y-123209612D01*
X142423230Y-123601469D01*
X142393229Y-123601469D01*
X142393570Y-123211331D01*
X142243929Y-122849171D01*
X141967086Y-122571845D01*
X141605188Y-122421572D01*
X141213331Y-122421230D01*
X140851171Y-122570871D01*
X140573845Y-122847714D01*
X140423572Y-123209612D01*
X140423230Y-123601469D01*
X129552700Y-123601469D01*
X129552700Y-121601469D01*
X140423230Y-121601469D01*
X140572871Y-121963629D01*
X140849714Y-122240955D01*
X141211612Y-122391228D01*
X141603469Y-122391570D01*
X141965629Y-122241929D01*
X142242955Y-121965086D01*
X142393228Y-121603188D01*
X142393229Y-121601469D01*
X142423230Y-121601469D01*
X142572871Y-121963629D01*
X142849714Y-122240955D01*
X143211612Y-122391228D01*
X143603469Y-122391570D01*
X143965629Y-122241929D01*
X144242955Y-121965086D01*
X144393228Y-121603188D01*
X144393570Y-121211331D01*
X144243929Y-120849171D01*
X143967086Y-120571845D01*
X143605188Y-120421572D01*
X143213331Y-120421230D01*
X142851171Y-120570871D01*
X142573845Y-120847714D01*
X142423572Y-121209612D01*
X142423230Y-121601469D01*
X142393229Y-121601469D01*
X142393570Y-121211331D01*
X142243929Y-120849171D01*
X141967086Y-120571845D01*
X141605188Y-120421572D01*
X141213331Y-120421230D01*
X140851171Y-120570871D01*
X140573845Y-120847714D01*
X140423572Y-121209612D01*
X140423230Y-121601469D01*
X129552700Y-121601469D01*
X129552700Y-119601469D01*
X140423230Y-119601469D01*
X140572871Y-119963629D01*
X140849714Y-120240955D01*
X141211612Y-120391228D01*
X141603469Y-120391570D01*
X141965629Y-120241929D01*
X142242955Y-119965086D01*
X142393228Y-119603188D01*
X142393229Y-119601469D01*
X142423230Y-119601469D01*
X142572871Y-119963629D01*
X142849714Y-120240955D01*
X143211612Y-120391228D01*
X143603469Y-120391570D01*
X143965629Y-120241929D01*
X144242955Y-119965086D01*
X144393228Y-119603188D01*
X144393570Y-119211331D01*
X144243929Y-118849171D01*
X143967086Y-118571845D01*
X143605188Y-118421572D01*
X143213331Y-118421230D01*
X142851171Y-118570871D01*
X142573845Y-118847714D01*
X142423572Y-119209612D01*
X142423230Y-119601469D01*
X142393229Y-119601469D01*
X142393570Y-119211331D01*
X142243929Y-118849171D01*
X141967086Y-118571845D01*
X141605188Y-118421572D01*
X141213331Y-118421230D01*
X140851171Y-118570871D01*
X140573845Y-118847714D01*
X140423572Y-119209612D01*
X140423230Y-119601469D01*
X129552700Y-119601469D01*
X129552700Y-117601469D01*
X140423230Y-117601469D01*
X140572871Y-117963629D01*
X140849714Y-118240955D01*
X141211612Y-118391228D01*
X141603469Y-118391570D01*
X141965629Y-118241929D01*
X142242955Y-117965086D01*
X142393228Y-117603188D01*
X142393229Y-117601469D01*
X142423230Y-117601469D01*
X142572871Y-117963629D01*
X142849714Y-118240955D01*
X143211612Y-118391228D01*
X143603469Y-118391570D01*
X143965629Y-118241929D01*
X144242955Y-117965086D01*
X144393228Y-117603188D01*
X144393570Y-117211331D01*
X144243929Y-116849171D01*
X143967086Y-116571845D01*
X143605188Y-116421572D01*
X143213331Y-116421230D01*
X142851171Y-116570871D01*
X142573845Y-116847714D01*
X142423572Y-117209612D01*
X142423230Y-117601469D01*
X142393229Y-117601469D01*
X142393570Y-117211331D01*
X142243929Y-116849171D01*
X141967086Y-116571845D01*
X141605188Y-116421572D01*
X141213331Y-116421230D01*
X140851171Y-116570871D01*
X140573845Y-116847714D01*
X140423572Y-117209612D01*
X140423230Y-117601469D01*
X129552700Y-117601469D01*
X129552700Y-115665094D01*
X133239226Y-115665094D01*
X133487538Y-116266055D01*
X133946927Y-116726246D01*
X134547453Y-116975606D01*
X135197694Y-116976174D01*
X135798655Y-116727862D01*
X136258846Y-116268473D01*
X136508206Y-115667947D01*
X136508264Y-115601469D01*
X140423230Y-115601469D01*
X140572871Y-115963629D01*
X140849714Y-116240955D01*
X141211612Y-116391228D01*
X141603469Y-116391570D01*
X141965629Y-116241929D01*
X142242955Y-115965086D01*
X142393228Y-115603188D01*
X142393229Y-115601469D01*
X142423230Y-115601469D01*
X142572871Y-115963629D01*
X142849714Y-116240955D01*
X143211612Y-116391228D01*
X143603469Y-116391570D01*
X143965629Y-116241929D01*
X144242955Y-115965086D01*
X144393228Y-115603188D01*
X144393570Y-115211331D01*
X144243929Y-114849171D01*
X143967086Y-114571845D01*
X143605188Y-114421572D01*
X143213331Y-114421230D01*
X142851171Y-114570871D01*
X142573845Y-114847714D01*
X142423572Y-115209612D01*
X142423230Y-115601469D01*
X142393229Y-115601469D01*
X142393570Y-115211331D01*
X142243929Y-114849171D01*
X141967086Y-114571845D01*
X141605188Y-114421572D01*
X141213331Y-114421230D01*
X140851171Y-114570871D01*
X140573845Y-114847714D01*
X140423572Y-115209612D01*
X140423230Y-115601469D01*
X136508264Y-115601469D01*
X136508774Y-115017706D01*
X136260462Y-114416745D01*
X135801073Y-113956554D01*
X135200547Y-113707194D01*
X134550306Y-113706626D01*
X133949345Y-113954938D01*
X133489154Y-114414327D01*
X133239794Y-115014853D01*
X133239226Y-115665094D01*
X129552700Y-115665094D01*
X129552700Y-111073900D01*
X139425660Y-111073900D01*
X139425660Y-112623900D01*
X139469938Y-112859217D01*
X139609010Y-113075341D01*
X139821210Y-113220331D01*
X140073100Y-113271340D01*
X140673100Y-113271340D01*
X140908417Y-113227062D01*
X141007628Y-113163222D01*
X141091210Y-113220331D01*
X141343100Y-113271340D01*
X141943100Y-113271340D01*
X142178417Y-113227062D01*
X142277628Y-113163222D01*
X142361210Y-113220331D01*
X142613100Y-113271340D01*
X143213100Y-113271340D01*
X143448417Y-113227062D01*
X143547628Y-113163222D01*
X143631210Y-113220331D01*
X143883100Y-113271340D01*
X144483100Y-113271340D01*
X144718417Y-113227062D01*
X144934541Y-113087990D01*
X145079531Y-112875790D01*
X145130540Y-112623900D01*
X145130540Y-111073900D01*
X145086262Y-110838583D01*
X144947190Y-110622459D01*
X144734990Y-110477469D01*
X144483100Y-110426460D01*
X143883100Y-110426460D01*
X143647783Y-110470738D01*
X143548572Y-110534578D01*
X143464990Y-110477469D01*
X143213100Y-110426460D01*
X142613100Y-110426460D01*
X142377783Y-110470738D01*
X142278572Y-110534578D01*
X142194990Y-110477469D01*
X141943100Y-110426460D01*
X141343100Y-110426460D01*
X141107783Y-110470738D01*
X141008572Y-110534578D01*
X140924990Y-110477469D01*
X140673100Y-110426460D01*
X140073100Y-110426460D01*
X139837783Y-110470738D01*
X139621659Y-110609810D01*
X139476669Y-110822010D01*
X139425660Y-111073900D01*
X129552700Y-111073900D01*
X129552700Y-105673900D01*
X139425660Y-105673900D01*
X139425660Y-107223900D01*
X139469938Y-107459217D01*
X139609010Y-107675341D01*
X139821210Y-107820331D01*
X140073100Y-107871340D01*
X140673100Y-107871340D01*
X140908417Y-107827062D01*
X141007628Y-107763222D01*
X141091210Y-107820331D01*
X141343100Y-107871340D01*
X141943100Y-107871340D01*
X142178417Y-107827062D01*
X142277628Y-107763222D01*
X142361210Y-107820331D01*
X142613100Y-107871340D01*
X143213100Y-107871340D01*
X143448417Y-107827062D01*
X143547628Y-107763222D01*
X143631210Y-107820331D01*
X143883100Y-107871340D01*
X144483100Y-107871340D01*
X144718417Y-107827062D01*
X144934541Y-107687990D01*
X145079531Y-107475790D01*
X145130540Y-107223900D01*
X145130540Y-106550261D01*
X148373858Y-106550261D01*
X148586090Y-107063903D01*
X148978730Y-107457229D01*
X149492000Y-107670357D01*
X150047761Y-107670842D01*
X150561403Y-107458610D01*
X150954729Y-107065970D01*
X151041049Y-106858088D01*
X151126090Y-107063903D01*
X151518730Y-107457229D01*
X152032000Y-107670357D01*
X152587761Y-107670842D01*
X153101403Y-107458610D01*
X153494729Y-107065970D01*
X153581049Y-106858088D01*
X153666090Y-107063903D01*
X154058730Y-107457229D01*
X154572000Y-107670357D01*
X155127761Y-107670842D01*
X155641403Y-107458610D01*
X156034729Y-107065970D01*
X156121049Y-106858088D01*
X156206090Y-107063903D01*
X156598730Y-107457229D01*
X157112000Y-107670357D01*
X157667761Y-107670842D01*
X158181403Y-107458610D01*
X158574729Y-107065970D01*
X158661049Y-106858088D01*
X158746090Y-107063903D01*
X159138730Y-107457229D01*
X159652000Y-107670357D01*
X160207761Y-107670842D01*
X160721403Y-107458610D01*
X161114729Y-107065970D01*
X161201049Y-106858088D01*
X161286090Y-107063903D01*
X161678730Y-107457229D01*
X162192000Y-107670357D01*
X162747761Y-107670842D01*
X163261403Y-107458610D01*
X163654729Y-107065970D01*
X163741049Y-106858088D01*
X163826090Y-107063903D01*
X164218730Y-107457229D01*
X164732000Y-107670357D01*
X165287761Y-107670842D01*
X165801403Y-107458610D01*
X166194729Y-107065970D01*
X166281049Y-106858088D01*
X166366090Y-107063903D01*
X166758730Y-107457229D01*
X167272000Y-107670357D01*
X167827761Y-107670842D01*
X168341403Y-107458610D01*
X168734729Y-107065970D01*
X168821049Y-106858088D01*
X168906090Y-107063903D01*
X169298730Y-107457229D01*
X169812000Y-107670357D01*
X170367761Y-107670842D01*
X170881403Y-107458610D01*
X171274729Y-107065970D01*
X171361049Y-106858088D01*
X171446090Y-107063903D01*
X171838730Y-107457229D01*
X172352000Y-107670357D01*
X172907761Y-107670842D01*
X173421403Y-107458610D01*
X173814729Y-107065970D01*
X173901049Y-106858088D01*
X173986090Y-107063903D01*
X174378730Y-107457229D01*
X174892000Y-107670357D01*
X175447761Y-107670842D01*
X175961403Y-107458610D01*
X176354729Y-107065970D01*
X176441049Y-106858088D01*
X176526090Y-107063903D01*
X176918730Y-107457229D01*
X177432000Y-107670357D01*
X177987761Y-107670842D01*
X178501403Y-107458610D01*
X178894729Y-107065970D01*
X178981049Y-106858088D01*
X179066090Y-107063903D01*
X179458730Y-107457229D01*
X179972000Y-107670357D01*
X180527761Y-107670842D01*
X181041403Y-107458610D01*
X181434729Y-107065970D01*
X181521049Y-106858088D01*
X181606090Y-107063903D01*
X181998730Y-107457229D01*
X182512000Y-107670357D01*
X183067761Y-107670842D01*
X183581403Y-107458610D01*
X183974729Y-107065970D01*
X184061049Y-106858088D01*
X184146090Y-107063903D01*
X184538730Y-107457229D01*
X185052000Y-107670357D01*
X185607761Y-107670842D01*
X186121403Y-107458610D01*
X186514729Y-107065970D01*
X186601049Y-106858088D01*
X186686090Y-107063903D01*
X187078730Y-107457229D01*
X187592000Y-107670357D01*
X188147761Y-107670842D01*
X188661403Y-107458610D01*
X189054729Y-107065970D01*
X189141049Y-106858088D01*
X189226090Y-107063903D01*
X189618730Y-107457229D01*
X190132000Y-107670357D01*
X190687761Y-107670842D01*
X191201403Y-107458610D01*
X191594729Y-107065970D01*
X191681049Y-106858088D01*
X191766090Y-107063903D01*
X192158730Y-107457229D01*
X192672000Y-107670357D01*
X193227761Y-107670842D01*
X193741403Y-107458610D01*
X194134729Y-107065970D01*
X194221049Y-106858088D01*
X194306090Y-107063903D01*
X194698730Y-107457229D01*
X195212000Y-107670357D01*
X195767761Y-107670842D01*
X196281403Y-107458610D01*
X196674729Y-107065970D01*
X196761049Y-106858088D01*
X196846090Y-107063903D01*
X197238730Y-107457229D01*
X197752000Y-107670357D01*
X198307761Y-107670842D01*
X198821403Y-107458610D01*
X199214729Y-107065970D01*
X199427857Y-106552700D01*
X199428342Y-105996939D01*
X199216110Y-105483297D01*
X198823470Y-105089971D01*
X198310200Y-104876843D01*
X197754439Y-104876358D01*
X197240797Y-105088590D01*
X196847471Y-105481230D01*
X196761151Y-105689112D01*
X196676110Y-105483297D01*
X196283470Y-105089971D01*
X195770200Y-104876843D01*
X195214439Y-104876358D01*
X194700797Y-105088590D01*
X194307471Y-105481230D01*
X194221151Y-105689112D01*
X194136110Y-105483297D01*
X193743470Y-105089971D01*
X193230200Y-104876843D01*
X192674439Y-104876358D01*
X192160797Y-105088590D01*
X191767471Y-105481230D01*
X191681151Y-105689112D01*
X191596110Y-105483297D01*
X191203470Y-105089971D01*
X190690200Y-104876843D01*
X190134439Y-104876358D01*
X189620797Y-105088590D01*
X189227471Y-105481230D01*
X189141151Y-105689112D01*
X189056110Y-105483297D01*
X188663470Y-105089971D01*
X188150200Y-104876843D01*
X187594439Y-104876358D01*
X187080797Y-105088590D01*
X186687471Y-105481230D01*
X186601151Y-105689112D01*
X186516110Y-105483297D01*
X186123470Y-105089971D01*
X185610200Y-104876843D01*
X185054439Y-104876358D01*
X184540797Y-105088590D01*
X184147471Y-105481230D01*
X184061151Y-105689112D01*
X183976110Y-105483297D01*
X183583470Y-105089971D01*
X183070200Y-104876843D01*
X182514439Y-104876358D01*
X182000797Y-105088590D01*
X181607471Y-105481230D01*
X181521151Y-105689112D01*
X181436110Y-105483297D01*
X181043470Y-105089971D01*
X180530200Y-104876843D01*
X179974439Y-104876358D01*
X179460797Y-105088590D01*
X179067471Y-105481230D01*
X178981151Y-105689112D01*
X178896110Y-105483297D01*
X178503470Y-105089971D01*
X177990200Y-104876843D01*
X177434439Y-104876358D01*
X176920797Y-105088590D01*
X176527471Y-105481230D01*
X176441151Y-105689112D01*
X176356110Y-105483297D01*
X175963470Y-105089971D01*
X175450200Y-104876843D01*
X174894439Y-104876358D01*
X174380797Y-105088590D01*
X173987471Y-105481230D01*
X173901151Y-105689112D01*
X173816110Y-105483297D01*
X173423470Y-105089971D01*
X172910200Y-104876843D01*
X172354439Y-104876358D01*
X171840797Y-105088590D01*
X171447471Y-105481230D01*
X171361151Y-105689112D01*
X171276110Y-105483297D01*
X170883470Y-105089971D01*
X170370200Y-104876843D01*
X169814439Y-104876358D01*
X169300797Y-105088590D01*
X168907471Y-105481230D01*
X168821151Y-105689112D01*
X168736110Y-105483297D01*
X168343470Y-105089971D01*
X167830200Y-104876843D01*
X167274439Y-104876358D01*
X166760797Y-105088590D01*
X166367471Y-105481230D01*
X166281151Y-105689112D01*
X166196110Y-105483297D01*
X165803470Y-105089971D01*
X165290200Y-104876843D01*
X164734439Y-104876358D01*
X164220797Y-105088590D01*
X163827471Y-105481230D01*
X163741151Y-105689112D01*
X163656110Y-105483297D01*
X163263470Y-105089971D01*
X162750200Y-104876843D01*
X162194439Y-104876358D01*
X161680797Y-105088590D01*
X161287471Y-105481230D01*
X161201151Y-105689112D01*
X161116110Y-105483297D01*
X160723470Y-105089971D01*
X160210200Y-104876843D01*
X159654439Y-104876358D01*
X159140797Y-105088590D01*
X158747471Y-105481230D01*
X158661151Y-105689112D01*
X158576110Y-105483297D01*
X158183470Y-105089971D01*
X157670200Y-104876843D01*
X157114439Y-104876358D01*
X156600797Y-105088590D01*
X156207471Y-105481230D01*
X156121151Y-105689112D01*
X156036110Y-105483297D01*
X155643470Y-105089971D01*
X155130200Y-104876843D01*
X154574439Y-104876358D01*
X154060797Y-105088590D01*
X153667471Y-105481230D01*
X153581151Y-105689112D01*
X153496110Y-105483297D01*
X153103470Y-105089971D01*
X152590200Y-104876843D01*
X152034439Y-104876358D01*
X151520797Y-105088590D01*
X151127471Y-105481230D01*
X151041151Y-105689112D01*
X150956110Y-105483297D01*
X150563470Y-105089971D01*
X150050200Y-104876843D01*
X149494439Y-104876358D01*
X148980797Y-105088590D01*
X148587471Y-105481230D01*
X148374343Y-105994500D01*
X148373858Y-106550261D01*
X145130540Y-106550261D01*
X145130540Y-105673900D01*
X145086262Y-105438583D01*
X144947190Y-105222459D01*
X144734990Y-105077469D01*
X144483100Y-105026460D01*
X143883100Y-105026460D01*
X143647783Y-105070738D01*
X143548572Y-105134578D01*
X143464990Y-105077469D01*
X143213100Y-105026460D01*
X142613100Y-105026460D01*
X142377783Y-105070738D01*
X142278572Y-105134578D01*
X142194990Y-105077469D01*
X141943100Y-105026460D01*
X141343100Y-105026460D01*
X141107783Y-105070738D01*
X141008572Y-105134578D01*
X140924990Y-105077469D01*
X140673100Y-105026460D01*
X140073100Y-105026460D01*
X139837783Y-105070738D01*
X139621659Y-105209810D01*
X139476669Y-105422010D01*
X139425660Y-105673900D01*
X129552700Y-105673900D01*
X129552700Y-100342700D01*
X203695300Y-100342700D01*
X203695300Y-133337300D01*
M02*
