M48
METRIC,TZ
T1C0.400
T2C0.500
T3C0.762
T4C1.001
%
G90
G05
T1
X139.192Y-118.745
X140.843Y-108.839
X141.097Y-118.364
X141.224Y-104.775
X141.478Y-120.396
X141.859Y-109.855
X142.875Y-116.459
X143.383Y-104.775
X143.383Y-113.665
X143.764Y-118.364
X143.891Y-110.363
X145.415Y-107.569
X146.812Y-117.348
X147.32Y-113.03
X153.924Y-116.332
X154.686Y-123.317
X160.528Y-123.317
X161.544Y-122.936
X167.64Y-126.746
T2
X141.408Y-115.406
X141.408Y-117.406
X141.408Y-119.406
X141.408Y-121.406
X141.408Y-123.406
X141.408Y-125.406
X141.408Y-127.406
X143.408Y-115.406
X143.408Y-117.406
X143.408Y-119.406
X143.408Y-121.406
X143.408Y-123.406
X143.408Y-125.406
X143.408Y-127.406
T3
X149.771Y-106.274
X149.771Y-129.134
X152.311Y-106.274
X152.311Y-129.134
X154.851Y-106.274
X154.851Y-129.134
X157.391Y-106.274
X157.391Y-129.134
X159.931Y-106.274
X159.931Y-129.134
X162.471Y-106.274
X162.471Y-129.134
X165.011Y-106.274
X165.011Y-129.134
X167.551Y-106.274
X167.551Y-129.134
X170.091Y-106.274
X170.091Y-129.134
X172.631Y-106.274
X172.631Y-129.134
X175.171Y-106.274
X175.171Y-129.134
X177.711Y-106.274
X177.711Y-129.134
X180.251Y-106.274
X180.251Y-129.134
X182.791Y-106.274
X182.791Y-129.134
X185.331Y-106.274
X185.331Y-129.134
X187.871Y-106.274
X187.871Y-129.134
X190.411Y-106.274
X190.411Y-129.134
X192.951Y-106.274
X192.951Y-129.134
X195.491Y-106.274
X195.491Y-129.134
X198.031Y-106.274
X198.031Y-129.134
T4
X134.874Y-115.341
X134.874Y-125.501
T0
M30
