G04 #@! TF.FileFunction,Legend,Top*
%FSLAX46Y46*%
G04 Gerber Fmt 4.6, Leading zero omitted, Abs format (unit mm)*
G04 Created by KiCad (PCBNEW 4.0.0-rc2-stable) date 3/10/2016 10:17:54 AM*
%MOMM*%
G01*
G04 APERTURE LIST*
%ADD10C,0.600000*%
%ADD11C,0.150000*%
G04 APERTURE END LIST*
D10*
D11*
X153581100Y-125323600D02*
G75*
G03X153581100Y-125323600I-1270000J0D01*
G01*
X148501100Y-105003600D02*
X148501100Y-130403600D01*
X148501100Y-130403600D02*
X199301100Y-130403600D01*
X199301100Y-130403600D02*
X199301100Y-105003600D01*
X199301100Y-105003600D02*
X148501100Y-105003600D01*
X151117300Y-141211300D02*
G75*
G03X151117300Y-141211300I-635000J0D01*
G01*
X148482300Y-145497300D02*
X160102300Y-145497300D01*
X148482300Y-133845300D02*
X160102300Y-133845300D01*
X160102300Y-145497300D02*
X160102300Y-133877300D01*
X148482300Y-145497300D02*
X148482300Y-133877300D01*
X186182000Y-144894300D02*
G75*
G03X186182000Y-144894300I-254000J0D01*
G01*
X199372500Y-140314800D02*
X199372500Y-145314800D01*
X185372500Y-140314800D02*
X185372500Y-145314800D01*
X185372500Y-140314800D02*
X199372500Y-140314800D01*
X185372500Y-145314800D02*
X199372500Y-145314800D01*
X170345100Y-138760200D02*
X175425100Y-138760200D01*
X175425100Y-138760200D02*
X175425100Y-141300200D01*
X175425100Y-141300200D02*
X170345100Y-141300200D01*
X170345100Y-141300200D02*
X170345100Y-138760200D01*
X170345100Y-140030200D02*
X169075100Y-140030200D01*
X175425100Y-140030200D02*
X176695100Y-140030200D01*
X160224910Y-122465981D02*
X160224910Y-121465981D01*
X161272529Y-122370743D02*
X161224910Y-122418362D01*
X161082053Y-122465981D01*
X160986815Y-122465981D01*
X160843957Y-122418362D01*
X160748719Y-122323124D01*
X160701100Y-122227886D01*
X160653481Y-122037410D01*
X160653481Y-121894552D01*
X160701100Y-121704076D01*
X160748719Y-121608838D01*
X160843957Y-121513600D01*
X160986815Y-121465981D01*
X161082053Y-121465981D01*
X161224910Y-121513600D01*
X161272529Y-121561219D01*
X162224910Y-122465981D02*
X161653481Y-122465981D01*
X161939195Y-122465981D02*
X161939195Y-121465981D01*
X161843957Y-121608838D01*
X161748719Y-121704076D01*
X161653481Y-121751695D01*
X155665610Y-140520681D02*
X155665610Y-139520681D01*
X156713229Y-140425443D02*
X156665610Y-140473062D01*
X156522753Y-140520681D01*
X156427515Y-140520681D01*
X156284657Y-140473062D01*
X156189419Y-140377824D01*
X156141800Y-140282586D01*
X156094181Y-140092110D01*
X156094181Y-139949252D01*
X156141800Y-139758776D01*
X156189419Y-139663538D01*
X156284657Y-139568300D01*
X156427515Y-139520681D01*
X156522753Y-139520681D01*
X156665610Y-139568300D01*
X156713229Y-139615919D01*
X157094181Y-139615919D02*
X157141800Y-139568300D01*
X157237038Y-139520681D01*
X157475134Y-139520681D01*
X157570372Y-139568300D01*
X157617991Y-139615919D01*
X157665610Y-139711157D01*
X157665610Y-139806395D01*
X157617991Y-139949252D01*
X157046562Y-140520681D01*
X157665610Y-140520681D01*
X187285405Y-138552181D02*
X187285405Y-137552181D01*
X187666358Y-137552181D01*
X187761596Y-137599800D01*
X187809215Y-137647419D01*
X187856834Y-137742657D01*
X187856834Y-137885514D01*
X187809215Y-137980752D01*
X187761596Y-138028371D01*
X187666358Y-138075990D01*
X187285405Y-138075990D01*
X188809215Y-138552181D02*
X188237786Y-138552181D01*
X188523500Y-138552181D02*
X188523500Y-137552181D01*
X188428262Y-137695038D01*
X188333024Y-137790276D01*
X188237786Y-137837895D01*
X172967354Y-136982461D02*
X172634020Y-136506270D01*
X172395925Y-136982461D02*
X172395925Y-135982461D01*
X172776878Y-135982461D01*
X172872116Y-136030080D01*
X172919735Y-136077699D01*
X172967354Y-136172937D01*
X172967354Y-136315794D01*
X172919735Y-136411032D01*
X172872116Y-136458651D01*
X172776878Y-136506270D01*
X172395925Y-136506270D01*
X173919735Y-136982461D02*
X173348306Y-136982461D01*
X173634020Y-136982461D02*
X173634020Y-135982461D01*
X173538782Y-136125318D01*
X173443544Y-136220556D01*
X173348306Y-136268175D01*
M02*
