G04 #@! TF.FileFunction,Legend,Top*
%FSLAX46Y46*%
G04 Gerber Fmt 4.6, Leading zero omitted, Abs format (unit mm)*
G04 Created by KiCad (PCBNEW 4.0.0-rc2-stable) date 3/19/2016 11:55:38 AM*
%MOMM*%
G01*
G04 APERTURE LIST*
%ADD10C,0.600000*%
%ADD11C,0.150000*%
G04 APERTURE END LIST*
D10*
D11*
X154254200Y-133492240D02*
G75*
G03X154254200Y-133492240I-1270000J0D01*
G01*
X149174200Y-113172240D02*
X149174200Y-138572240D01*
X149174200Y-138572240D02*
X199974200Y-138572240D01*
X199974200Y-138572240D02*
X199974200Y-113172240D01*
X199974200Y-113172240D02*
X149174200Y-113172240D01*
X151333200Y-100965000D02*
G75*
G03X151333200Y-100965000I-635000J0D01*
G01*
X148698200Y-105251000D02*
X160318200Y-105251000D01*
X148698200Y-93599000D02*
X160318200Y-93599000D01*
X160318200Y-105251000D02*
X160318200Y-93631000D01*
X148698200Y-105251000D02*
X148698200Y-93631000D01*
X217805562Y-138620500D02*
G75*
G03X217805562Y-138620500I-625402J0D01*
G01*
X213925660Y-102871000D02*
X218021660Y-102871000D01*
X213925660Y-139541000D02*
X218021660Y-139541000D01*
X213925660Y-139541000D02*
X213925660Y-102871000D01*
X218021660Y-139541000D02*
X218021660Y-102871000D01*
X186639200Y-100965000D02*
X181559200Y-100965000D01*
X181559200Y-100965000D02*
X181559200Y-98425000D01*
X181559200Y-98425000D02*
X186639200Y-98425000D01*
X186639200Y-98425000D02*
X186639200Y-100965000D01*
X186639200Y-99695000D02*
X187909200Y-99695000D01*
X181559200Y-99695000D02*
X180289200Y-99695000D01*
X160898010Y-130634621D02*
X160898010Y-129634621D01*
X161945629Y-130539383D02*
X161898010Y-130587002D01*
X161755153Y-130634621D01*
X161659915Y-130634621D01*
X161517057Y-130587002D01*
X161421819Y-130491764D01*
X161374200Y-130396526D01*
X161326581Y-130206050D01*
X161326581Y-130063192D01*
X161374200Y-129872716D01*
X161421819Y-129777478D01*
X161517057Y-129682240D01*
X161659915Y-129634621D01*
X161755153Y-129634621D01*
X161898010Y-129682240D01*
X161945629Y-129729859D01*
X162898010Y-130634621D02*
X162326581Y-130634621D01*
X162612295Y-130634621D02*
X162612295Y-129634621D01*
X162517057Y-129777478D01*
X162421819Y-129872716D01*
X162326581Y-129920335D01*
X155881510Y-100274381D02*
X155881510Y-99274381D01*
X156929129Y-100179143D02*
X156881510Y-100226762D01*
X156738653Y-100274381D01*
X156643415Y-100274381D01*
X156500557Y-100226762D01*
X156405319Y-100131524D01*
X156357700Y-100036286D01*
X156310081Y-99845810D01*
X156310081Y-99702952D01*
X156357700Y-99512476D01*
X156405319Y-99417238D01*
X156500557Y-99322000D01*
X156643415Y-99274381D01*
X156738653Y-99274381D01*
X156881510Y-99322000D01*
X156929129Y-99369619D01*
X157262462Y-99274381D02*
X157881510Y-99274381D01*
X157548176Y-99655333D01*
X157691034Y-99655333D01*
X157786272Y-99702952D01*
X157833891Y-99750571D01*
X157881510Y-99845810D01*
X157881510Y-100083905D01*
X157833891Y-100179143D01*
X157786272Y-100226762D01*
X157691034Y-100274381D01*
X157405319Y-100274381D01*
X157310081Y-100226762D01*
X157262462Y-100179143D01*
X213299301Y-126600175D02*
X212299301Y-126600175D01*
X212299301Y-126219222D01*
X212346920Y-126123984D01*
X212394539Y-126076365D01*
X212489777Y-126028746D01*
X212632634Y-126028746D01*
X212727872Y-126076365D01*
X212775491Y-126123984D01*
X212823110Y-126219222D01*
X212823110Y-126600175D01*
X213299301Y-125076365D02*
X213299301Y-125647794D01*
X213299301Y-125362080D02*
X212299301Y-125362080D01*
X212442158Y-125457318D01*
X212537396Y-125552556D01*
X212585015Y-125647794D01*
X183683614Y-103647501D02*
X183350280Y-103171310D01*
X183112185Y-103647501D02*
X183112185Y-102647501D01*
X183493138Y-102647501D01*
X183588376Y-102695120D01*
X183635995Y-102742739D01*
X183683614Y-102837977D01*
X183683614Y-102980834D01*
X183635995Y-103076072D01*
X183588376Y-103123691D01*
X183493138Y-103171310D01*
X183112185Y-103171310D01*
X184635995Y-103647501D02*
X184064566Y-103647501D01*
X184350280Y-103647501D02*
X184350280Y-102647501D01*
X184255042Y-102790358D01*
X184159804Y-102885596D01*
X184064566Y-102933215D01*
M02*
