G04 #@! TF.FileFunction,Copper,L2,Bot,Signal*
%FSLAX46Y46*%
G04 Gerber Fmt 4.6, Leading zero omitted, Abs format (unit mm)*
G04 Created by KiCad (PCBNEW 4.0.0-rc2-stable) date 3/19/2016 11:55:38 AM*
%MOMM*%
G01*
G04 APERTURE LIST*
%ADD10C,0.600000*%
%ADD11C,1.524000*%
%ADD12C,1.998980*%
%ADD13C,0.600000*%
%ADD14C,0.400000*%
G04 APERTURE END LIST*
D10*
D11*
X150444200Y-137302240D03*
X152984200Y-137302240D03*
X155524200Y-137302240D03*
X158064200Y-137302240D03*
X160604200Y-137302240D03*
X163144200Y-137302240D03*
X165684200Y-137302240D03*
X168224200Y-137302240D03*
X170764200Y-137302240D03*
X173304200Y-137302240D03*
X175844200Y-137302240D03*
X178384200Y-137302240D03*
X180924200Y-137302240D03*
X183464200Y-137302240D03*
X186004200Y-137302240D03*
X188544200Y-137302240D03*
X191084200Y-137302240D03*
X193624200Y-137302240D03*
X196164200Y-137302240D03*
X198704200Y-137302240D03*
X198704200Y-114442240D03*
X196164200Y-114442240D03*
X193624200Y-114442240D03*
X191084200Y-114442240D03*
X188544200Y-114442240D03*
X186004200Y-114442240D03*
X183464200Y-114442240D03*
X180924200Y-114442240D03*
X178384200Y-114442240D03*
X175844200Y-114442240D03*
X173304200Y-114442240D03*
X170764200Y-114442240D03*
X168224200Y-114442240D03*
X165684200Y-114442240D03*
X163144200Y-114442240D03*
X160604200Y-114442240D03*
X158064200Y-114442240D03*
X155524200Y-114442240D03*
X152984200Y-114442240D03*
X150444200Y-114442240D03*
X150698200Y-103251000D03*
X153238200Y-103251000D03*
X155778200Y-103251000D03*
X158318200Y-103251000D03*
X150698200Y-95631000D03*
X153238200Y-95631000D03*
X155778200Y-95631000D03*
X158318200Y-95631000D03*
X215973660Y-137541000D03*
X215973660Y-133911000D03*
X215973660Y-130281000D03*
X215973660Y-126651000D03*
X215973660Y-123021000D03*
X215973660Y-119391000D03*
X215973660Y-115761000D03*
X215973660Y-112131000D03*
X215973660Y-108501000D03*
X215973660Y-104871000D03*
D12*
X189179200Y-99695000D03*
X179019200Y-99695000D03*
D13*
X155448000Y-139700000D03*
X211201000Y-138684000D03*
X175768000Y-111760000D03*
X173609000Y-112141000D03*
X212852000Y-112649000D03*
X205105000Y-115570000D03*
X212471000Y-111379000D03*
X198882000Y-134620000D03*
X201422000Y-134620000D03*
X190246000Y-132080000D03*
D14*
X188544200Y-137302240D02*
X188595000Y-137287000D01*
X188595000Y-137287000D02*
X190119000Y-138811000D01*
X190119000Y-138811000D02*
X199263000Y-138811000D01*
X199263000Y-138811000D02*
X199390000Y-138684000D01*
X199390000Y-138684000D02*
X199517000Y-138684000D01*
X199517000Y-138684000D02*
X200660000Y-137541000D01*
X200660000Y-137541000D02*
X215973660Y-137541000D01*
X173304200Y-137302240D02*
X173355000Y-137287000D01*
X173355000Y-137287000D02*
X171831000Y-138811000D01*
X171831000Y-138811000D02*
X160020000Y-138811000D01*
X160020000Y-138811000D02*
X159893000Y-138684000D01*
X159893000Y-138684000D02*
X159766000Y-138684000D01*
X159766000Y-138684000D02*
X158369000Y-137287000D01*
X158369000Y-137287000D02*
X158115000Y-137287000D01*
X158115000Y-137287000D02*
X158064200Y-137302240D01*
X173304200Y-114442240D02*
X173355000Y-114427000D01*
X173355000Y-114427000D02*
X174879000Y-112903000D01*
X174879000Y-112903000D02*
X178816000Y-112903000D01*
X178816000Y-112903000D02*
X178943000Y-113030000D01*
X178943000Y-113030000D02*
X179197000Y-113030000D01*
X179197000Y-113030000D02*
X180594000Y-114427000D01*
X180594000Y-114427000D02*
X180975000Y-114427000D01*
X180975000Y-114427000D02*
X180924200Y-114442240D01*
X150698200Y-95631000D02*
X150749000Y-95631000D01*
X150749000Y-95631000D02*
X152273000Y-97155000D01*
X152273000Y-97155000D02*
X156210000Y-97155000D01*
X156210000Y-97155000D02*
X156337000Y-97028000D01*
X156337000Y-97028000D02*
X156591000Y-97028000D01*
X156591000Y-97028000D02*
X157988000Y-95631000D01*
X157988000Y-95631000D02*
X158318200Y-95631000D01*
X155524200Y-137302240D02*
X155575000Y-137287000D01*
X155575000Y-137287000D02*
X154051000Y-138811000D01*
X154051000Y-138811000D02*
X152400000Y-138811000D01*
X152400000Y-138811000D02*
X152273000Y-138684000D01*
X152273000Y-138684000D02*
X152146000Y-138684000D01*
X152146000Y-138684000D02*
X150749000Y-137287000D01*
X150749000Y-137287000D02*
X150495000Y-137287000D01*
X150495000Y-137287000D02*
X150444200Y-137302240D01*
X155524200Y-114442240D02*
X155575000Y-114427000D01*
X155575000Y-114427000D02*
X158115000Y-114427000D01*
X158115000Y-114427000D02*
X158064200Y-114442240D01*
X158064200Y-114442240D02*
X158115000Y-114427000D01*
X158115000Y-114427000D02*
X160655000Y-114427000D01*
X160655000Y-114427000D02*
X160604200Y-114442240D01*
X160604200Y-114442240D02*
X160655000Y-114427000D01*
X160655000Y-114427000D02*
X163195000Y-114427000D01*
X163195000Y-114427000D02*
X163144200Y-114442240D01*
X163144200Y-114442240D02*
X163195000Y-114427000D01*
X163195000Y-114427000D02*
X165735000Y-114427000D01*
X165735000Y-114427000D02*
X165684200Y-114442240D01*
X165684200Y-114442240D02*
X165735000Y-114427000D01*
X165735000Y-114427000D02*
X168275000Y-114427000D01*
X168275000Y-114427000D02*
X168224200Y-114442240D01*
X170764200Y-114442240D02*
X170815000Y-114427000D01*
X170815000Y-114427000D02*
X173355000Y-114427000D01*
X173355000Y-114427000D02*
X173304200Y-114442240D01*
X158064200Y-137302240D02*
X158115000Y-137287000D01*
X158115000Y-137287000D02*
X155575000Y-137287000D01*
X155575000Y-137287000D02*
X155524200Y-137302240D01*
X178384200Y-137302240D02*
X178435000Y-137287000D01*
X178435000Y-137287000D02*
X180975000Y-137287000D01*
X180975000Y-137287000D02*
X180924200Y-137302240D01*
X186004200Y-137302240D02*
X186055000Y-137287000D01*
X186055000Y-137287000D02*
X188595000Y-137287000D01*
X188595000Y-137287000D02*
X188544200Y-137302240D01*
X183464200Y-137302240D02*
X183515000Y-137287000D01*
X183515000Y-137287000D02*
X186055000Y-137287000D01*
X186055000Y-137287000D02*
X186004200Y-137302240D01*
X180924200Y-137302240D02*
X180975000Y-137287000D01*
X180975000Y-137287000D02*
X183515000Y-137287000D01*
X183515000Y-137287000D02*
X183464200Y-137302240D01*
X175844200Y-137302240D02*
X175895000Y-137287000D01*
X175895000Y-137287000D02*
X178435000Y-137287000D01*
X178435000Y-137287000D02*
X178384200Y-137302240D01*
X193624200Y-114442240D02*
X193675000Y-114427000D01*
X193675000Y-114427000D02*
X196215000Y-114427000D01*
X196215000Y-114427000D02*
X196164200Y-114442240D01*
X191084200Y-114442240D02*
X191135000Y-114427000D01*
X191135000Y-114427000D02*
X193675000Y-114427000D01*
X193675000Y-114427000D02*
X193624200Y-114442240D01*
X188544200Y-114442240D02*
X188595000Y-114427000D01*
X188595000Y-114427000D02*
X191135000Y-114427000D01*
X191135000Y-114427000D02*
X191084200Y-114442240D01*
X186004200Y-114442240D02*
X186055000Y-114427000D01*
X186055000Y-114427000D02*
X188595000Y-114427000D01*
X188595000Y-114427000D02*
X188544200Y-114442240D01*
X183464200Y-114442240D02*
X183515000Y-114427000D01*
X183515000Y-114427000D02*
X186055000Y-114427000D01*
X186055000Y-114427000D02*
X186004200Y-114442240D01*
X180924200Y-114442240D02*
X180975000Y-114427000D01*
X180975000Y-114427000D02*
X183515000Y-114427000D01*
X183515000Y-114427000D02*
X183464200Y-114442240D01*
X173304200Y-137302240D02*
X173355000Y-137287000D01*
X173355000Y-137287000D02*
X175895000Y-137287000D01*
X175895000Y-137287000D02*
X175844200Y-137302240D01*
X168224200Y-114442240D02*
X168275000Y-114427000D01*
X168275000Y-114427000D02*
X170815000Y-114427000D01*
X170815000Y-114427000D02*
X170764200Y-114442240D01*
X155448000Y-139700000D02*
X155575000Y-139827000D01*
X155575000Y-139827000D02*
X199390000Y-139827000D01*
X199390000Y-139827000D02*
X199517000Y-139700000D01*
X199517000Y-139700000D02*
X199644000Y-139700000D01*
X199644000Y-139700000D02*
X199771000Y-139573000D01*
X199771000Y-139573000D02*
X200025000Y-139573000D01*
X200025000Y-139573000D02*
X200152000Y-139446000D01*
X200152000Y-139446000D02*
X200279000Y-139446000D01*
X200279000Y-139446000D02*
X201041000Y-138684000D01*
X201041000Y-138684000D02*
X211201000Y-138684000D01*
X215973660Y-130281000D02*
X216027000Y-130302000D01*
X216027000Y-130302000D02*
X210566000Y-135763000D01*
X210566000Y-135763000D02*
X195707000Y-135763000D01*
X195707000Y-135763000D02*
X195580000Y-135890000D01*
X195580000Y-135890000D02*
X195453000Y-135890000D01*
X195453000Y-135890000D02*
X195326000Y-136017000D01*
X195326000Y-136017000D02*
X195199000Y-136017000D01*
X195199000Y-136017000D02*
X193929000Y-137287000D01*
X193929000Y-137287000D02*
X193675000Y-137287000D01*
X193675000Y-137287000D02*
X193624200Y-137302240D01*
X175768000Y-111760000D02*
X165735000Y-101727000D01*
X165735000Y-101727000D02*
X152781000Y-101727000D01*
X152781000Y-101727000D02*
X152654000Y-101854000D01*
X152654000Y-101854000D02*
X152400000Y-101854000D01*
X152400000Y-101854000D02*
X151003000Y-103251000D01*
X151003000Y-103251000D02*
X150698200Y-103251000D01*
X158318200Y-103251000D02*
X158369000Y-103251000D01*
X158369000Y-103251000D02*
X167259000Y-112141000D01*
X167259000Y-112141000D02*
X173609000Y-112141000D01*
X179019200Y-99695000D02*
X179070000Y-99695000D01*
X179070000Y-99695000D02*
X192024000Y-112649000D01*
X192024000Y-112649000D02*
X212852000Y-112649000D01*
X179019200Y-99695000D02*
X179070000Y-99695000D01*
X179070000Y-99695000D02*
X173482000Y-94107000D01*
X173482000Y-94107000D02*
X157861000Y-94107000D01*
X157861000Y-94107000D02*
X157734000Y-94234000D01*
X157734000Y-94234000D02*
X157480000Y-94234000D01*
X157480000Y-94234000D02*
X156083000Y-95631000D01*
X156083000Y-95631000D02*
X155778200Y-95631000D01*
X205105000Y-115570000D02*
X208915000Y-119380000D01*
X208915000Y-119380000D02*
X216027000Y-119380000D01*
X216027000Y-119380000D02*
X215973660Y-119391000D01*
X189179200Y-99695000D02*
X189230000Y-99695000D01*
X189230000Y-99695000D02*
X182626000Y-93091000D01*
X182626000Y-93091000D02*
X157734000Y-93091000D01*
X157734000Y-93091000D02*
X157607000Y-93218000D01*
X157607000Y-93218000D02*
X157353000Y-93218000D01*
X157353000Y-93218000D02*
X157226000Y-93345000D01*
X157226000Y-93345000D02*
X157099000Y-93345000D01*
X157099000Y-93345000D02*
X156972000Y-93472000D01*
X156972000Y-93472000D02*
X156718000Y-93472000D01*
X156718000Y-93472000D02*
X156083000Y-94107000D01*
X156083000Y-94107000D02*
X155321000Y-94107000D01*
X155321000Y-94107000D02*
X155194000Y-94234000D01*
X155194000Y-94234000D02*
X154940000Y-94234000D01*
X154940000Y-94234000D02*
X153543000Y-95631000D01*
X153543000Y-95631000D02*
X153238200Y-95631000D01*
X215973660Y-108501000D02*
X216027000Y-108458000D01*
X216027000Y-108458000D02*
X213106000Y-111379000D01*
X213106000Y-111379000D02*
X212471000Y-111379000D01*
X215973660Y-112131000D02*
X216027000Y-112141000D01*
X216027000Y-112141000D02*
X213741000Y-114427000D01*
X213741000Y-114427000D02*
X198755000Y-114427000D01*
X198755000Y-114427000D02*
X198704200Y-114442240D01*
X198882000Y-134620000D02*
X210439000Y-123063000D01*
X210439000Y-123063000D02*
X216027000Y-123063000D01*
X216027000Y-123063000D02*
X215973660Y-123021000D01*
X201422000Y-134620000D02*
X209423000Y-126619000D01*
X209423000Y-126619000D02*
X216027000Y-126619000D01*
X216027000Y-126619000D02*
X215973660Y-126651000D01*
X170764200Y-137302240D02*
X170815000Y-137287000D01*
X170815000Y-137287000D02*
X176022000Y-132080000D01*
X176022000Y-132080000D02*
X190246000Y-132080000D01*
M02*
