G04 #@! TF.FileFunction,Copper,L1,Top,Signal*
%FSLAX46Y46*%
G04 Gerber Fmt 4.6, Leading zero omitted, Abs format (unit mm)*
G04 Created by KiCad (PCBNEW 4.0.0-rc2-stable) date 3/10/2016 10:17:54 AM*
%MOMM*%
G01*
G04 APERTURE LIST*
%ADD10C,0.600000*%
%ADD11C,1.524000*%
%ADD12C,0.700000*%
%ADD13C,1.998980*%
%ADD14C,0.500000*%
%ADD15C,0.500000*%
%ADD16C,0.254000*%
G04 APERTURE END LIST*
D10*
D11*
X149771100Y-129133600D03*
X152311100Y-129133600D03*
X154851100Y-129133600D03*
X157391100Y-129133600D03*
X159931100Y-129133600D03*
X162471100Y-129133600D03*
X165011100Y-129133600D03*
X167551100Y-129133600D03*
X170091100Y-129133600D03*
X172631100Y-129133600D03*
X175171100Y-129133600D03*
X177711100Y-129133600D03*
X180251100Y-129133600D03*
X182791100Y-129133600D03*
X185331100Y-129133600D03*
X187871100Y-129133600D03*
X190411100Y-129133600D03*
X192951100Y-129133600D03*
X195491100Y-129133600D03*
X198031100Y-129133600D03*
X198031100Y-106273600D03*
X195491100Y-106273600D03*
X192951100Y-106273600D03*
X190411100Y-106273600D03*
X187871100Y-106273600D03*
X185331100Y-106273600D03*
X182791100Y-106273600D03*
X180251100Y-106273600D03*
X177711100Y-106273600D03*
X175171100Y-106273600D03*
X172631100Y-106273600D03*
X170091100Y-106273600D03*
X167551100Y-106273600D03*
X165011100Y-106273600D03*
X162471100Y-106273600D03*
X159931100Y-106273600D03*
X157391100Y-106273600D03*
X154851100Y-106273600D03*
X152311100Y-106273600D03*
X149771100Y-106273600D03*
X150482300Y-143497300D03*
X153022300Y-143497300D03*
X155562300Y-143497300D03*
X158102300Y-143497300D03*
X150482300Y-135877300D03*
X153022300Y-135877300D03*
X155562300Y-135877300D03*
X158102300Y-135877300D03*
D12*
X198372500Y-141814800D03*
X196372500Y-141814800D03*
X194372500Y-141814800D03*
X192372500Y-141814800D03*
X190372500Y-141814800D03*
X188372500Y-141814800D03*
X186372500Y-141814800D03*
X186372500Y-143814800D03*
X188372500Y-143814800D03*
X190372500Y-143814800D03*
X192372500Y-143814800D03*
X194372500Y-143814800D03*
X196372500Y-143814800D03*
X198372500Y-143814800D03*
D13*
X167805100Y-140030200D03*
X177965100Y-140030200D03*
D14*
X152654000Y-131318000D03*
X170815000Y-133731000D03*
X149225000Y-127762000D03*
X176022000Y-108458000D03*
X159004000Y-132842000D03*
X157226000Y-131064000D03*
X156718000Y-127889000D03*
X173482000Y-111125000D03*
X176276000Y-145542000D03*
X186563000Y-146939000D03*
X178816000Y-145542000D03*
X191516000Y-146050000D03*
X167132000Y-131318000D03*
X169799000Y-132715000D03*
X172339000Y-132715000D03*
X193802000Y-139573000D03*
X169672000Y-131318000D03*
X172212000Y-131318000D03*
D15*
X172631100Y-106273600D02*
X172593000Y-106299000D01*
X172593000Y-106299000D02*
X172593000Y-129159000D01*
X172593000Y-129159000D02*
X172631100Y-129133600D01*
X185331100Y-129133600D02*
X185293000Y-129159000D01*
X185293000Y-129159000D02*
X185547000Y-129413000D01*
X185547000Y-129413000D02*
X185547000Y-142240000D01*
X185547000Y-142240000D02*
X185674000Y-142367000D01*
X185674000Y-142367000D02*
X185674000Y-142494000D01*
X185674000Y-142494000D02*
X186436000Y-143256000D01*
X186436000Y-143256000D02*
X186436000Y-143764000D01*
X186436000Y-143764000D02*
X186372500Y-143814800D01*
X158102300Y-135877300D02*
X157988000Y-136017000D01*
X157988000Y-136017000D02*
X155575000Y-138430000D01*
X155575000Y-138430000D02*
X155575000Y-143510000D01*
X155575000Y-143510000D02*
X155562300Y-143497300D01*
X149771100Y-129133600D02*
X149733000Y-129159000D01*
X149733000Y-129159000D02*
X150495000Y-129921000D01*
X150495000Y-129921000D02*
X150495000Y-135890000D01*
X150495000Y-135890000D02*
X150482300Y-135877300D01*
X157391100Y-129133600D02*
X157353000Y-129159000D01*
X157353000Y-129159000D02*
X158115000Y-129921000D01*
X158115000Y-129921000D02*
X158115000Y-135890000D01*
X158115000Y-135890000D02*
X158102300Y-135877300D01*
X152311100Y-129133600D02*
X152273000Y-129159000D01*
X152273000Y-129159000D02*
X152654000Y-129540000D01*
X152654000Y-129540000D02*
X152654000Y-131318000D01*
X170815000Y-133731000D02*
X174879000Y-133731000D01*
X174879000Y-133731000D02*
X185674000Y-144526000D01*
X185674000Y-144526000D02*
X185801000Y-144526000D01*
X185801000Y-144526000D02*
X185928000Y-144653000D01*
X185928000Y-144653000D02*
X187452000Y-144653000D01*
X187452000Y-144653000D02*
X188341000Y-143764000D01*
X188341000Y-143764000D02*
X188372500Y-143814800D01*
X190372500Y-143814800D02*
X190373000Y-143764000D01*
X190373000Y-143764000D02*
X191516000Y-142621000D01*
X191516000Y-142621000D02*
X191516000Y-141478000D01*
X191516000Y-141478000D02*
X191643000Y-141351000D01*
X191643000Y-141351000D02*
X191643000Y-141224000D01*
X191643000Y-141224000D02*
X192913000Y-139954000D01*
X192913000Y-139954000D02*
X192913000Y-129159000D01*
X192913000Y-129159000D02*
X192951100Y-129133600D01*
X150482300Y-143497300D02*
X148463000Y-141478000D01*
X148463000Y-141478000D02*
X148463000Y-128778000D01*
X148463000Y-128778000D02*
X148590000Y-128651000D01*
X148590000Y-128651000D02*
X148590000Y-128524000D01*
X148590000Y-128524000D02*
X148717000Y-128397000D01*
X148717000Y-128397000D02*
X148717000Y-128270000D01*
X148717000Y-128270000D02*
X149225000Y-127762000D01*
X176022000Y-108458000D02*
X177673000Y-106807000D01*
X177673000Y-106807000D02*
X177673000Y-106299000D01*
X177673000Y-106299000D02*
X177711100Y-106273600D01*
X158102300Y-143497300D02*
X158242000Y-143383000D01*
X158242000Y-143383000D02*
X159385000Y-142240000D01*
X159385000Y-142240000D02*
X159385000Y-135509000D01*
X159385000Y-135509000D02*
X159258000Y-135382000D01*
X159258000Y-135382000D02*
X159258000Y-135128000D01*
X159258000Y-135128000D02*
X159004000Y-134874000D01*
X159004000Y-134874000D02*
X159004000Y-132842000D01*
X157226000Y-131064000D02*
X156083000Y-129921000D01*
X156083000Y-129921000D02*
X156083000Y-128778000D01*
X156083000Y-128778000D02*
X156210000Y-128651000D01*
X156210000Y-128651000D02*
X156210000Y-128524000D01*
X156210000Y-128524000D02*
X156337000Y-128397000D01*
X156337000Y-128397000D02*
X156337000Y-128270000D01*
X156337000Y-128270000D02*
X156718000Y-127889000D01*
X173482000Y-111125000D02*
X175133000Y-109474000D01*
X175133000Y-109474000D02*
X175133000Y-106299000D01*
X175133000Y-106299000D02*
X175171100Y-106273600D01*
X153022300Y-143497300D02*
X153162000Y-143383000D01*
X153162000Y-143383000D02*
X154305000Y-142240000D01*
X154305000Y-142240000D02*
X154305000Y-135509000D01*
X154305000Y-135509000D02*
X154178000Y-135382000D01*
X154178000Y-135382000D02*
X154178000Y-135128000D01*
X154178000Y-135128000D02*
X153543000Y-134493000D01*
X153543000Y-134493000D02*
X153543000Y-128524000D01*
X153543000Y-128524000D02*
X152273000Y-127254000D01*
X152273000Y-127254000D02*
X152273000Y-106299000D01*
X152273000Y-106299000D02*
X152311100Y-106273600D01*
X188372500Y-141814800D02*
X188341000Y-141859000D01*
X188341000Y-141859000D02*
X190373000Y-139827000D01*
X190373000Y-139827000D02*
X190373000Y-129159000D01*
X190373000Y-129159000D02*
X190411100Y-129133600D01*
X198031100Y-106273600D02*
X197993000Y-106299000D01*
X197993000Y-106299000D02*
X186563000Y-117729000D01*
X186563000Y-117729000D02*
X186563000Y-129667000D01*
X186563000Y-129667000D02*
X186436000Y-129794000D01*
X186436000Y-129794000D02*
X186436000Y-141859000D01*
X186436000Y-141859000D02*
X186372500Y-141814800D01*
X159931100Y-129133600D02*
X159893000Y-129159000D01*
X159893000Y-129159000D02*
X176276000Y-145542000D01*
X186563000Y-146939000D02*
X189484000Y-144018000D01*
X189484000Y-144018000D02*
X189484000Y-143510000D01*
X189484000Y-143510000D02*
X189611000Y-143383000D01*
X189611000Y-143383000D02*
X189611000Y-143002000D01*
X189611000Y-143002000D02*
X190373000Y-142240000D01*
X190373000Y-142240000D02*
X190373000Y-141859000D01*
X190373000Y-141859000D02*
X190372500Y-141814800D01*
X162471100Y-129133600D02*
X162433000Y-129159000D01*
X162433000Y-129159000D02*
X178816000Y-145542000D01*
X191516000Y-146050000D02*
X193294000Y-144272000D01*
X193294000Y-144272000D02*
X193294000Y-143637000D01*
X193294000Y-143637000D02*
X193167000Y-143510000D01*
X193167000Y-143510000D02*
X193167000Y-143256000D01*
X193167000Y-143256000D02*
X192405000Y-142494000D01*
X192405000Y-142494000D02*
X192405000Y-141859000D01*
X192405000Y-141859000D02*
X192372500Y-141814800D01*
X165011100Y-129133600D02*
X164973000Y-129159000D01*
X164973000Y-129159000D02*
X167132000Y-131318000D01*
X169799000Y-132715000D02*
X172339000Y-132715000D01*
X193802000Y-139573000D02*
X194310000Y-140081000D01*
X194310000Y-140081000D02*
X194310000Y-141859000D01*
X194310000Y-141859000D02*
X194372500Y-141814800D01*
X167551100Y-129133600D02*
X167513000Y-129159000D01*
X167513000Y-129159000D02*
X169672000Y-131318000D01*
X172212000Y-131318000D02*
X170053000Y-129159000D01*
X170053000Y-129159000D02*
X170091100Y-129133600D01*
D16*
G36*
X201422000Y-147193000D02*
X187560580Y-147193000D01*
X190019017Y-144734562D01*
X190175712Y-144799628D01*
X190567569Y-144799970D01*
X190929729Y-144650329D01*
X191207055Y-144373486D01*
X191343365Y-144045215D01*
X191387338Y-144001242D01*
X191387330Y-144009869D01*
X191536971Y-144372029D01*
X191739505Y-144574916D01*
X190890210Y-145424210D01*
X190890209Y-145424212D01*
X190766171Y-145548033D01*
X190631154Y-145873190D01*
X190631000Y-146049996D01*
X190630999Y-146050000D01*
X190631000Y-146050004D01*
X190630847Y-146225265D01*
X190765296Y-146550657D01*
X190890209Y-146675788D01*
X190890210Y-146675790D01*
X190890212Y-146675791D01*
X191014033Y-146799829D01*
X191339190Y-146934846D01*
X191515996Y-146935000D01*
X191516000Y-146935001D01*
X191516004Y-146935000D01*
X191691265Y-146935153D01*
X192016657Y-146800704D01*
X192141788Y-146675791D01*
X192141790Y-146675790D01*
X192142102Y-146675478D01*
X192265829Y-146551967D01*
X192265982Y-146551598D01*
X193919787Y-144897792D01*
X193919790Y-144897790D01*
X194026718Y-144737760D01*
X194175712Y-144799628D01*
X194567569Y-144799970D01*
X194929729Y-144650329D01*
X195207055Y-144373486D01*
X195357328Y-144011588D01*
X195357329Y-144009869D01*
X195387330Y-144009869D01*
X195536971Y-144372029D01*
X195813814Y-144649355D01*
X196175712Y-144799628D01*
X196567569Y-144799970D01*
X196929729Y-144650329D01*
X197207055Y-144373486D01*
X197357328Y-144011588D01*
X197357329Y-144009869D01*
X197387330Y-144009869D01*
X197536971Y-144372029D01*
X197813814Y-144649355D01*
X198175712Y-144799628D01*
X198567569Y-144799970D01*
X198929729Y-144650329D01*
X199207055Y-144373486D01*
X199357328Y-144011588D01*
X199357670Y-143619731D01*
X199208029Y-143257571D01*
X198931186Y-142980245D01*
X198569288Y-142829972D01*
X198177431Y-142829630D01*
X197815271Y-142979271D01*
X197537945Y-143256114D01*
X197387672Y-143618012D01*
X197387330Y-144009869D01*
X197357329Y-144009869D01*
X197357670Y-143619731D01*
X197208029Y-143257571D01*
X196931186Y-142980245D01*
X196569288Y-142829972D01*
X196177431Y-142829630D01*
X195815271Y-142979271D01*
X195537945Y-143256114D01*
X195387672Y-143618012D01*
X195387330Y-144009869D01*
X195357329Y-144009869D01*
X195357670Y-143619731D01*
X195208029Y-143257571D01*
X194931186Y-142980245D01*
X194569288Y-142829972D01*
X194177431Y-142829630D01*
X193980427Y-142911030D01*
X193792790Y-142630210D01*
X193792787Y-142630208D01*
X193303588Y-142141008D01*
X193357328Y-142011588D01*
X193357670Y-141619731D01*
X193208029Y-141257571D01*
X193034670Y-141083909D01*
X193425000Y-140693579D01*
X193425000Y-141528116D01*
X193387672Y-141618012D01*
X193387330Y-142009869D01*
X193536971Y-142372029D01*
X193813814Y-142649355D01*
X194175712Y-142799628D01*
X194567569Y-142799970D01*
X194929729Y-142650329D01*
X195207055Y-142373486D01*
X195357328Y-142011588D01*
X195357329Y-142009869D01*
X195387330Y-142009869D01*
X195536971Y-142372029D01*
X195813814Y-142649355D01*
X196175712Y-142799628D01*
X196567569Y-142799970D01*
X196929729Y-142650329D01*
X197207055Y-142373486D01*
X197357328Y-142011588D01*
X197357329Y-142009869D01*
X197387330Y-142009869D01*
X197536971Y-142372029D01*
X197813814Y-142649355D01*
X198175712Y-142799628D01*
X198567569Y-142799970D01*
X198929729Y-142650329D01*
X199207055Y-142373486D01*
X199357328Y-142011588D01*
X199357670Y-141619731D01*
X199208029Y-141257571D01*
X198931186Y-140980245D01*
X198569288Y-140829972D01*
X198177431Y-140829630D01*
X197815271Y-140979271D01*
X197537945Y-141256114D01*
X197387672Y-141618012D01*
X197387330Y-142009869D01*
X197357329Y-142009869D01*
X197357670Y-141619731D01*
X197208029Y-141257571D01*
X196931186Y-140980245D01*
X196569288Y-140829972D01*
X196177431Y-140829630D01*
X195815271Y-140979271D01*
X195537945Y-141256114D01*
X195387672Y-141618012D01*
X195387330Y-142009869D01*
X195357329Y-142009869D01*
X195357670Y-141619731D01*
X195208029Y-141257571D01*
X195195000Y-141244519D01*
X195195000Y-140081000D01*
X195127633Y-139742325D01*
X194935790Y-139455210D01*
X194935787Y-139455208D01*
X194427790Y-138947210D01*
X194427788Y-138947209D01*
X194303967Y-138823171D01*
X193978810Y-138688154D01*
X193802004Y-138688000D01*
X193802000Y-138687999D01*
X193801996Y-138688000D01*
X193798000Y-138687996D01*
X193798000Y-130262112D01*
X194134729Y-129925970D01*
X194221049Y-129718088D01*
X194306090Y-129923903D01*
X194698730Y-130317229D01*
X195212000Y-130530357D01*
X195767761Y-130530842D01*
X196281403Y-130318610D01*
X196674729Y-129925970D01*
X196761049Y-129718088D01*
X196846090Y-129923903D01*
X197238730Y-130317229D01*
X197752000Y-130530357D01*
X198307761Y-130530842D01*
X198821403Y-130318610D01*
X199214729Y-129925970D01*
X199427857Y-129412700D01*
X199428342Y-128856939D01*
X199216110Y-128343297D01*
X198823470Y-127949971D01*
X198310200Y-127736843D01*
X197754439Y-127736358D01*
X197240797Y-127948590D01*
X196847471Y-128341230D01*
X196761151Y-128549112D01*
X196676110Y-128343297D01*
X196283470Y-127949971D01*
X195770200Y-127736843D01*
X195214439Y-127736358D01*
X194700797Y-127948590D01*
X194307471Y-128341230D01*
X194221151Y-128549112D01*
X194136110Y-128343297D01*
X193743470Y-127949971D01*
X193230200Y-127736843D01*
X192674439Y-127736358D01*
X192160797Y-127948590D01*
X191767471Y-128341230D01*
X191681151Y-128549112D01*
X191596110Y-128343297D01*
X191203470Y-127949971D01*
X190690200Y-127736843D01*
X190134439Y-127736358D01*
X189620797Y-127948590D01*
X189227471Y-128341230D01*
X189141151Y-128549112D01*
X189056110Y-128343297D01*
X188663470Y-127949971D01*
X188150200Y-127736843D01*
X187594439Y-127736358D01*
X187448000Y-127796865D01*
X187448000Y-118095580D01*
X197873116Y-107670463D01*
X198307761Y-107670842D01*
X198821403Y-107458610D01*
X199214729Y-107065970D01*
X199427857Y-106552700D01*
X199428342Y-105996939D01*
X199216110Y-105483297D01*
X198823470Y-105089971D01*
X198310200Y-104876843D01*
X197754439Y-104876358D01*
X197240797Y-105088590D01*
X196847471Y-105481230D01*
X196761151Y-105689112D01*
X196676110Y-105483297D01*
X196283470Y-105089971D01*
X195770200Y-104876843D01*
X195214439Y-104876358D01*
X194700797Y-105088590D01*
X194307471Y-105481230D01*
X194221151Y-105689112D01*
X194136110Y-105483297D01*
X193743470Y-105089971D01*
X193230200Y-104876843D01*
X192674439Y-104876358D01*
X192160797Y-105088590D01*
X191767471Y-105481230D01*
X191681151Y-105689112D01*
X191596110Y-105483297D01*
X191203470Y-105089971D01*
X190690200Y-104876843D01*
X190134439Y-104876358D01*
X189620797Y-105088590D01*
X189227471Y-105481230D01*
X189141151Y-105689112D01*
X189056110Y-105483297D01*
X188663470Y-105089971D01*
X188150200Y-104876843D01*
X187594439Y-104876358D01*
X187080797Y-105088590D01*
X186687471Y-105481230D01*
X186601151Y-105689112D01*
X186516110Y-105483297D01*
X186123470Y-105089971D01*
X185610200Y-104876843D01*
X185054439Y-104876358D01*
X184540797Y-105088590D01*
X184147471Y-105481230D01*
X184061151Y-105689112D01*
X183976110Y-105483297D01*
X183583470Y-105089971D01*
X183070200Y-104876843D01*
X182514439Y-104876358D01*
X182000797Y-105088590D01*
X181607471Y-105481230D01*
X181521151Y-105689112D01*
X181436110Y-105483297D01*
X181043470Y-105089971D01*
X180530200Y-104876843D01*
X179974439Y-104876358D01*
X179460797Y-105088590D01*
X179067471Y-105481230D01*
X178981151Y-105689112D01*
X178896110Y-105483297D01*
X178503470Y-105089971D01*
X177990200Y-104876843D01*
X177434439Y-104876358D01*
X176920797Y-105088590D01*
X176527471Y-105481230D01*
X176441151Y-105689112D01*
X176356110Y-105483297D01*
X175963470Y-105089971D01*
X175450200Y-104876843D01*
X174894439Y-104876358D01*
X174380797Y-105088590D01*
X173987471Y-105481230D01*
X173901151Y-105689112D01*
X173816110Y-105483297D01*
X173423470Y-105089971D01*
X172910200Y-104876843D01*
X172354439Y-104876358D01*
X171840797Y-105088590D01*
X171447471Y-105481230D01*
X171361151Y-105689112D01*
X171276110Y-105483297D01*
X170883470Y-105089971D01*
X170370200Y-104876843D01*
X169814439Y-104876358D01*
X169300797Y-105088590D01*
X168907471Y-105481230D01*
X168821151Y-105689112D01*
X168736110Y-105483297D01*
X168343470Y-105089971D01*
X167830200Y-104876843D01*
X167274439Y-104876358D01*
X166760797Y-105088590D01*
X166367471Y-105481230D01*
X166281151Y-105689112D01*
X166196110Y-105483297D01*
X165803470Y-105089971D01*
X165290200Y-104876843D01*
X164734439Y-104876358D01*
X164220797Y-105088590D01*
X163827471Y-105481230D01*
X163741151Y-105689112D01*
X163656110Y-105483297D01*
X163263470Y-105089971D01*
X162750200Y-104876843D01*
X162194439Y-104876358D01*
X161680797Y-105088590D01*
X161287471Y-105481230D01*
X161201151Y-105689112D01*
X161116110Y-105483297D01*
X160723470Y-105089971D01*
X160210200Y-104876843D01*
X159654439Y-104876358D01*
X159140797Y-105088590D01*
X158747471Y-105481230D01*
X158661151Y-105689112D01*
X158576110Y-105483297D01*
X158183470Y-105089971D01*
X157670200Y-104876843D01*
X157114439Y-104876358D01*
X156600797Y-105088590D01*
X156207471Y-105481230D01*
X156121151Y-105689112D01*
X156036110Y-105483297D01*
X155643470Y-105089971D01*
X155130200Y-104876843D01*
X154574439Y-104876358D01*
X154060797Y-105088590D01*
X153667471Y-105481230D01*
X153581151Y-105689112D01*
X153496110Y-105483297D01*
X153103470Y-105089971D01*
X152590200Y-104876843D01*
X152034439Y-104876358D01*
X151520797Y-105088590D01*
X151127471Y-105481230D01*
X151041151Y-105689112D01*
X150956110Y-105483297D01*
X150563470Y-105089971D01*
X150050200Y-104876843D01*
X149494439Y-104876358D01*
X148980797Y-105088590D01*
X148587471Y-105481230D01*
X148374343Y-105994500D01*
X148373858Y-106550261D01*
X148586090Y-107063903D01*
X148978730Y-107457229D01*
X149492000Y-107670357D01*
X150047761Y-107670842D01*
X150561403Y-107458610D01*
X150954729Y-107065970D01*
X151041049Y-106858088D01*
X151126090Y-107063903D01*
X151388000Y-107326271D01*
X151388000Y-127253995D01*
X151387999Y-127254000D01*
X151421681Y-127423326D01*
X151455367Y-127592675D01*
X151616191Y-127833367D01*
X151647210Y-127879790D01*
X151649724Y-127882304D01*
X151579957Y-127911203D01*
X151510492Y-128153387D01*
X152311100Y-128953995D01*
X152325243Y-128939853D01*
X152504848Y-129119458D01*
X152490705Y-129133600D01*
X152504848Y-129147743D01*
X152325243Y-129327348D01*
X152311100Y-129313205D01*
X152296958Y-129327348D01*
X152117353Y-129147743D01*
X152131495Y-129133600D01*
X151330887Y-128332992D01*
X151088703Y-128402457D01*
X151038591Y-128542918D01*
X150956110Y-128343297D01*
X150563470Y-127949971D01*
X150110000Y-127761674D01*
X150110153Y-127586735D01*
X149975704Y-127261343D01*
X149726967Y-127012171D01*
X149401810Y-126877154D01*
X149049735Y-126876847D01*
X148724343Y-127011296D01*
X148475171Y-127260033D01*
X148475017Y-127260404D01*
X148091210Y-127644210D01*
X147899367Y-127931325D01*
X147897878Y-127938810D01*
X147881260Y-128022354D01*
X147772367Y-128185325D01*
X147772367Y-128185326D01*
X147754260Y-128276354D01*
X147645367Y-128439325D01*
X147645367Y-128439326D01*
X147577999Y-128778000D01*
X147578000Y-128778005D01*
X147578000Y-141477995D01*
X147577999Y-141478000D01*
X147617458Y-141676367D01*
X147645367Y-141816675D01*
X147775603Y-142011588D01*
X147837210Y-142103790D01*
X149085426Y-143352006D01*
X149085058Y-143773961D01*
X149297290Y-144287603D01*
X149689930Y-144680929D01*
X150203200Y-144894057D01*
X150758961Y-144894542D01*
X151272603Y-144682310D01*
X151665929Y-144289670D01*
X151752249Y-144081788D01*
X151837290Y-144287603D01*
X152229930Y-144680929D01*
X152743200Y-144894057D01*
X153298961Y-144894542D01*
X153812603Y-144682310D01*
X154205929Y-144289670D01*
X154292249Y-144081788D01*
X154377290Y-144287603D01*
X154769930Y-144680929D01*
X155283200Y-144894057D01*
X155838961Y-144894542D01*
X156352603Y-144682310D01*
X156745929Y-144289670D01*
X156832249Y-144081788D01*
X156917290Y-144287603D01*
X157309930Y-144680929D01*
X157823200Y-144894057D01*
X158378961Y-144894542D01*
X158892603Y-144682310D01*
X159285929Y-144289670D01*
X159499057Y-143776400D01*
X159499405Y-143377174D01*
X160010787Y-142865792D01*
X160010790Y-142865790D01*
X160202633Y-142578675D01*
X160222724Y-142477672D01*
X160270001Y-142240000D01*
X160270000Y-142239995D01*
X160270000Y-135509005D01*
X160270001Y-135509000D01*
X160202633Y-135170325D01*
X160177025Y-135132000D01*
X160129711Y-135061189D01*
X160075633Y-134789325D01*
X160011719Y-134693671D01*
X159889000Y-134510007D01*
X159889000Y-132842000D01*
X159889153Y-132666735D01*
X159754704Y-132341343D01*
X159629791Y-132216212D01*
X159629790Y-132216210D01*
X159629788Y-132216209D01*
X159505967Y-132092171D01*
X159180810Y-131957154D01*
X159000000Y-131956996D01*
X159000000Y-130178257D01*
X159138730Y-130317229D01*
X159652000Y-130530357D01*
X160013092Y-130530672D01*
X167878193Y-138395773D01*
X167481406Y-138395426D01*
X166880445Y-138643738D01*
X166420254Y-139103127D01*
X166170894Y-139703653D01*
X166170326Y-140353894D01*
X166418638Y-140954855D01*
X166878027Y-141415046D01*
X167478553Y-141664406D01*
X168128794Y-141664974D01*
X168729755Y-141416662D01*
X169189946Y-140957273D01*
X169439306Y-140356747D01*
X169439655Y-139957234D01*
X175649950Y-146167529D01*
X175774033Y-146291829D01*
X176099190Y-146426846D01*
X176275996Y-146427000D01*
X176276000Y-146427001D01*
X176276004Y-146427000D01*
X176451265Y-146427153D01*
X176776657Y-146292704D01*
X176901788Y-146167791D01*
X176901790Y-146167790D01*
X176901791Y-146167788D01*
X177025829Y-146043967D01*
X177160846Y-145718810D01*
X177161000Y-145542004D01*
X177161001Y-145542000D01*
X177161000Y-145541996D01*
X177161153Y-145366735D01*
X177026704Y-145041343D01*
X176777967Y-144792171D01*
X176777596Y-144792017D01*
X162516220Y-130530640D01*
X162553092Y-130530672D01*
X178189950Y-146167529D01*
X178314033Y-146291829D01*
X178639190Y-146426846D01*
X178815996Y-146427000D01*
X178816000Y-146427001D01*
X178816004Y-146427000D01*
X178991265Y-146427153D01*
X179316657Y-146292704D01*
X179441788Y-146167791D01*
X179441790Y-146167790D01*
X179441791Y-146167788D01*
X179565829Y-146043967D01*
X179700846Y-145718810D01*
X179701000Y-145542004D01*
X179701001Y-145542000D01*
X179701000Y-145541996D01*
X179701153Y-145366735D01*
X179566704Y-145041343D01*
X179317967Y-144792171D01*
X179317596Y-144792017D01*
X174879474Y-140353894D01*
X176330326Y-140353894D01*
X176578638Y-140954855D01*
X177038027Y-141415046D01*
X177638553Y-141664406D01*
X178288794Y-141664974D01*
X178889755Y-141416662D01*
X179349946Y-140957273D01*
X179599306Y-140356747D01*
X179599874Y-139706506D01*
X179351562Y-139105545D01*
X178892173Y-138645354D01*
X178291647Y-138395994D01*
X177641406Y-138395426D01*
X177040445Y-138643738D01*
X176580254Y-139103127D01*
X176330894Y-139703653D01*
X176330326Y-140353894D01*
X174879474Y-140353894D01*
X165056220Y-130530640D01*
X165093092Y-130530672D01*
X166505950Y-131943529D01*
X166630033Y-132067829D01*
X166955190Y-132202846D01*
X167131996Y-132203000D01*
X167132000Y-132203001D01*
X167132004Y-132203000D01*
X167307265Y-132203153D01*
X167632657Y-132068704D01*
X167881829Y-131819967D01*
X168016846Y-131494810D01*
X168017000Y-131318004D01*
X168017001Y-131318000D01*
X168017000Y-131317996D01*
X168017153Y-131142735D01*
X167882704Y-130817343D01*
X167633967Y-130568171D01*
X167633596Y-130568017D01*
X167596219Y-130530640D01*
X167633092Y-130530672D01*
X169045950Y-131943529D01*
X169170033Y-132067829D01*
X169187403Y-132075042D01*
X169173212Y-132089209D01*
X169173210Y-132089210D01*
X169173209Y-132089212D01*
X169049171Y-132213033D01*
X168914154Y-132538190D01*
X168913847Y-132890265D01*
X169048296Y-133215657D01*
X169173209Y-133340788D01*
X169173210Y-133340790D01*
X169173212Y-133340791D01*
X169297033Y-133464829D01*
X169622190Y-133599846D01*
X169974265Y-133600153D01*
X169974635Y-133600000D01*
X172338801Y-133600000D01*
X172514265Y-133600153D01*
X172839657Y-133465704D01*
X172964788Y-133340791D01*
X172964790Y-133340790D01*
X172964791Y-133340788D01*
X173088829Y-133216967D01*
X173223846Y-132891810D01*
X173224153Y-132539735D01*
X173089704Y-132214343D01*
X172964791Y-132089212D01*
X172964790Y-132089210D01*
X172964788Y-132089209D01*
X172840967Y-131965171D01*
X172823597Y-131957958D01*
X172961829Y-131819967D01*
X173096846Y-131494810D01*
X173097000Y-131318004D01*
X173097001Y-131318000D01*
X173097000Y-131317996D01*
X173097153Y-131142735D01*
X172962704Y-130817343D01*
X172713967Y-130568171D01*
X172713596Y-130568017D01*
X172676219Y-130530640D01*
X172907761Y-130530842D01*
X173421403Y-130318610D01*
X173814729Y-129925970D01*
X173901049Y-129718088D01*
X173986090Y-129923903D01*
X174378730Y-130317229D01*
X174892000Y-130530357D01*
X175447761Y-130530842D01*
X175961403Y-130318610D01*
X176354729Y-129925970D01*
X176441049Y-129718088D01*
X176526090Y-129923903D01*
X176918730Y-130317229D01*
X177432000Y-130530357D01*
X177987761Y-130530842D01*
X178501403Y-130318610D01*
X178894729Y-129925970D01*
X178981049Y-129718088D01*
X179066090Y-129923903D01*
X179458730Y-130317229D01*
X179972000Y-130530357D01*
X180527761Y-130530842D01*
X181041403Y-130318610D01*
X181434729Y-129925970D01*
X181521049Y-129718088D01*
X181606090Y-129923903D01*
X181998730Y-130317229D01*
X182512000Y-130530357D01*
X183067761Y-130530842D01*
X183581403Y-130318610D01*
X183974729Y-129925970D01*
X184061049Y-129718088D01*
X184146090Y-129923903D01*
X184538730Y-130317229D01*
X184662000Y-130368415D01*
X184662000Y-142239995D01*
X184661999Y-142240000D01*
X184690497Y-142383265D01*
X184729367Y-142578675D01*
X184838260Y-142741646D01*
X184840320Y-142752000D01*
X184856367Y-142832675D01*
X184963351Y-142992789D01*
X185048210Y-143119790D01*
X185434253Y-143505832D01*
X185387672Y-143618012D01*
X185387330Y-144009869D01*
X185536971Y-144372029D01*
X185813814Y-144649355D01*
X186175712Y-144799628D01*
X186567569Y-144799970D01*
X186929729Y-144650329D01*
X187207055Y-144373486D01*
X187357328Y-144011588D01*
X187357594Y-143705725D01*
X187374143Y-143705725D01*
X187408397Y-144096082D01*
X187491880Y-144297627D01*
X187691588Y-144316107D01*
X188192895Y-143814800D01*
X187691588Y-143313493D01*
X187491880Y-143331973D01*
X187374143Y-143705725D01*
X187357594Y-143705725D01*
X187357670Y-143619731D01*
X187321000Y-143530983D01*
X187321000Y-143256005D01*
X187321001Y-143256000D01*
X187253633Y-142917326D01*
X187253633Y-142917325D01*
X187061790Y-142630210D01*
X187061787Y-142630208D01*
X187005885Y-142574306D01*
X187207055Y-142373486D01*
X187357328Y-142011588D01*
X187357670Y-141619731D01*
X187321000Y-141530983D01*
X187321000Y-130417828D01*
X187592000Y-130530357D01*
X188147761Y-130530842D01*
X188661403Y-130318610D01*
X189054729Y-129925970D01*
X189141049Y-129718088D01*
X189226090Y-129923903D01*
X189488000Y-130186271D01*
X189488000Y-139460421D01*
X188077499Y-140870921D01*
X187815271Y-140979271D01*
X187537945Y-141256114D01*
X187387672Y-141618012D01*
X187387330Y-142009869D01*
X187536971Y-142372029D01*
X187813814Y-142649355D01*
X188175712Y-142799628D01*
X188567569Y-142799970D01*
X188783973Y-142710554D01*
X188746320Y-142899841D01*
X188481575Y-142816443D01*
X188091218Y-142850697D01*
X187889673Y-142934180D01*
X187871193Y-143133888D01*
X188372500Y-143635195D01*
X188386643Y-143621053D01*
X188508005Y-143742415D01*
X185937210Y-146313210D01*
X185937209Y-146313212D01*
X185813171Y-146437033D01*
X185678154Y-146762190D01*
X185678000Y-146938996D01*
X185677999Y-146939000D01*
X185678000Y-146939004D01*
X185677847Y-147114265D01*
X185710380Y-147193000D01*
X146354800Y-147193000D01*
X146354800Y-103060500D01*
X201422000Y-103060500D01*
X201422000Y-147193000D01*
X201422000Y-147193000D01*
G37*
X201422000Y-147193000D02*
X187560580Y-147193000D01*
X190019017Y-144734562D01*
X190175712Y-144799628D01*
X190567569Y-144799970D01*
X190929729Y-144650329D01*
X191207055Y-144373486D01*
X191343365Y-144045215D01*
X191387338Y-144001242D01*
X191387330Y-144009869D01*
X191536971Y-144372029D01*
X191739505Y-144574916D01*
X190890210Y-145424210D01*
X190890209Y-145424212D01*
X190766171Y-145548033D01*
X190631154Y-145873190D01*
X190631000Y-146049996D01*
X190630999Y-146050000D01*
X190631000Y-146050004D01*
X190630847Y-146225265D01*
X190765296Y-146550657D01*
X190890209Y-146675788D01*
X190890210Y-146675790D01*
X190890212Y-146675791D01*
X191014033Y-146799829D01*
X191339190Y-146934846D01*
X191515996Y-146935000D01*
X191516000Y-146935001D01*
X191516004Y-146935000D01*
X191691265Y-146935153D01*
X192016657Y-146800704D01*
X192141788Y-146675791D01*
X192141790Y-146675790D01*
X192142102Y-146675478D01*
X192265829Y-146551967D01*
X192265982Y-146551598D01*
X193919787Y-144897792D01*
X193919790Y-144897790D01*
X194026718Y-144737760D01*
X194175712Y-144799628D01*
X194567569Y-144799970D01*
X194929729Y-144650329D01*
X195207055Y-144373486D01*
X195357328Y-144011588D01*
X195357329Y-144009869D01*
X195387330Y-144009869D01*
X195536971Y-144372029D01*
X195813814Y-144649355D01*
X196175712Y-144799628D01*
X196567569Y-144799970D01*
X196929729Y-144650329D01*
X197207055Y-144373486D01*
X197357328Y-144011588D01*
X197357329Y-144009869D01*
X197387330Y-144009869D01*
X197536971Y-144372029D01*
X197813814Y-144649355D01*
X198175712Y-144799628D01*
X198567569Y-144799970D01*
X198929729Y-144650329D01*
X199207055Y-144373486D01*
X199357328Y-144011588D01*
X199357670Y-143619731D01*
X199208029Y-143257571D01*
X198931186Y-142980245D01*
X198569288Y-142829972D01*
X198177431Y-142829630D01*
X197815271Y-142979271D01*
X197537945Y-143256114D01*
X197387672Y-143618012D01*
X197387330Y-144009869D01*
X197357329Y-144009869D01*
X197357670Y-143619731D01*
X197208029Y-143257571D01*
X196931186Y-142980245D01*
X196569288Y-142829972D01*
X196177431Y-142829630D01*
X195815271Y-142979271D01*
X195537945Y-143256114D01*
X195387672Y-143618012D01*
X195387330Y-144009869D01*
X195357329Y-144009869D01*
X195357670Y-143619731D01*
X195208029Y-143257571D01*
X194931186Y-142980245D01*
X194569288Y-142829972D01*
X194177431Y-142829630D01*
X193980427Y-142911030D01*
X193792790Y-142630210D01*
X193792787Y-142630208D01*
X193303588Y-142141008D01*
X193357328Y-142011588D01*
X193357670Y-141619731D01*
X193208029Y-141257571D01*
X193034670Y-141083909D01*
X193425000Y-140693579D01*
X193425000Y-141528116D01*
X193387672Y-141618012D01*
X193387330Y-142009869D01*
X193536971Y-142372029D01*
X193813814Y-142649355D01*
X194175712Y-142799628D01*
X194567569Y-142799970D01*
X194929729Y-142650329D01*
X195207055Y-142373486D01*
X195357328Y-142011588D01*
X195357329Y-142009869D01*
X195387330Y-142009869D01*
X195536971Y-142372029D01*
X195813814Y-142649355D01*
X196175712Y-142799628D01*
X196567569Y-142799970D01*
X196929729Y-142650329D01*
X197207055Y-142373486D01*
X197357328Y-142011588D01*
X197357329Y-142009869D01*
X197387330Y-142009869D01*
X197536971Y-142372029D01*
X197813814Y-142649355D01*
X198175712Y-142799628D01*
X198567569Y-142799970D01*
X198929729Y-142650329D01*
X199207055Y-142373486D01*
X199357328Y-142011588D01*
X199357670Y-141619731D01*
X199208029Y-141257571D01*
X198931186Y-140980245D01*
X198569288Y-140829972D01*
X198177431Y-140829630D01*
X197815271Y-140979271D01*
X197537945Y-141256114D01*
X197387672Y-141618012D01*
X197387330Y-142009869D01*
X197357329Y-142009869D01*
X197357670Y-141619731D01*
X197208029Y-141257571D01*
X196931186Y-140980245D01*
X196569288Y-140829972D01*
X196177431Y-140829630D01*
X195815271Y-140979271D01*
X195537945Y-141256114D01*
X195387672Y-141618012D01*
X195387330Y-142009869D01*
X195357329Y-142009869D01*
X195357670Y-141619731D01*
X195208029Y-141257571D01*
X195195000Y-141244519D01*
X195195000Y-140081000D01*
X195127633Y-139742325D01*
X194935790Y-139455210D01*
X194935787Y-139455208D01*
X194427790Y-138947210D01*
X194427788Y-138947209D01*
X194303967Y-138823171D01*
X193978810Y-138688154D01*
X193802004Y-138688000D01*
X193802000Y-138687999D01*
X193801996Y-138688000D01*
X193798000Y-138687996D01*
X193798000Y-130262112D01*
X194134729Y-129925970D01*
X194221049Y-129718088D01*
X194306090Y-129923903D01*
X194698730Y-130317229D01*
X195212000Y-130530357D01*
X195767761Y-130530842D01*
X196281403Y-130318610D01*
X196674729Y-129925970D01*
X196761049Y-129718088D01*
X196846090Y-129923903D01*
X197238730Y-130317229D01*
X197752000Y-130530357D01*
X198307761Y-130530842D01*
X198821403Y-130318610D01*
X199214729Y-129925970D01*
X199427857Y-129412700D01*
X199428342Y-128856939D01*
X199216110Y-128343297D01*
X198823470Y-127949971D01*
X198310200Y-127736843D01*
X197754439Y-127736358D01*
X197240797Y-127948590D01*
X196847471Y-128341230D01*
X196761151Y-128549112D01*
X196676110Y-128343297D01*
X196283470Y-127949971D01*
X195770200Y-127736843D01*
X195214439Y-127736358D01*
X194700797Y-127948590D01*
X194307471Y-128341230D01*
X194221151Y-128549112D01*
X194136110Y-128343297D01*
X193743470Y-127949971D01*
X193230200Y-127736843D01*
X192674439Y-127736358D01*
X192160797Y-127948590D01*
X191767471Y-128341230D01*
X191681151Y-128549112D01*
X191596110Y-128343297D01*
X191203470Y-127949971D01*
X190690200Y-127736843D01*
X190134439Y-127736358D01*
X189620797Y-127948590D01*
X189227471Y-128341230D01*
X189141151Y-128549112D01*
X189056110Y-128343297D01*
X188663470Y-127949971D01*
X188150200Y-127736843D01*
X187594439Y-127736358D01*
X187448000Y-127796865D01*
X187448000Y-118095580D01*
X197873116Y-107670463D01*
X198307761Y-107670842D01*
X198821403Y-107458610D01*
X199214729Y-107065970D01*
X199427857Y-106552700D01*
X199428342Y-105996939D01*
X199216110Y-105483297D01*
X198823470Y-105089971D01*
X198310200Y-104876843D01*
X197754439Y-104876358D01*
X197240797Y-105088590D01*
X196847471Y-105481230D01*
X196761151Y-105689112D01*
X196676110Y-105483297D01*
X196283470Y-105089971D01*
X195770200Y-104876843D01*
X195214439Y-104876358D01*
X194700797Y-105088590D01*
X194307471Y-105481230D01*
X194221151Y-105689112D01*
X194136110Y-105483297D01*
X193743470Y-105089971D01*
X193230200Y-104876843D01*
X192674439Y-104876358D01*
X192160797Y-105088590D01*
X191767471Y-105481230D01*
X191681151Y-105689112D01*
X191596110Y-105483297D01*
X191203470Y-105089971D01*
X190690200Y-104876843D01*
X190134439Y-104876358D01*
X189620797Y-105088590D01*
X189227471Y-105481230D01*
X189141151Y-105689112D01*
X189056110Y-105483297D01*
X188663470Y-105089971D01*
X188150200Y-104876843D01*
X187594439Y-104876358D01*
X187080797Y-105088590D01*
X186687471Y-105481230D01*
X186601151Y-105689112D01*
X186516110Y-105483297D01*
X186123470Y-105089971D01*
X185610200Y-104876843D01*
X185054439Y-104876358D01*
X184540797Y-105088590D01*
X184147471Y-105481230D01*
X184061151Y-105689112D01*
X183976110Y-105483297D01*
X183583470Y-105089971D01*
X183070200Y-104876843D01*
X182514439Y-104876358D01*
X182000797Y-105088590D01*
X181607471Y-105481230D01*
X181521151Y-105689112D01*
X181436110Y-105483297D01*
X181043470Y-105089971D01*
X180530200Y-104876843D01*
X179974439Y-104876358D01*
X179460797Y-105088590D01*
X179067471Y-105481230D01*
X178981151Y-105689112D01*
X178896110Y-105483297D01*
X178503470Y-105089971D01*
X177990200Y-104876843D01*
X177434439Y-104876358D01*
X176920797Y-105088590D01*
X176527471Y-105481230D01*
X176441151Y-105689112D01*
X176356110Y-105483297D01*
X175963470Y-105089971D01*
X175450200Y-104876843D01*
X174894439Y-104876358D01*
X174380797Y-105088590D01*
X173987471Y-105481230D01*
X173901151Y-105689112D01*
X173816110Y-105483297D01*
X173423470Y-105089971D01*
X172910200Y-104876843D01*
X172354439Y-104876358D01*
X171840797Y-105088590D01*
X171447471Y-105481230D01*
X171361151Y-105689112D01*
X171276110Y-105483297D01*
X170883470Y-105089971D01*
X170370200Y-104876843D01*
X169814439Y-104876358D01*
X169300797Y-105088590D01*
X168907471Y-105481230D01*
X168821151Y-105689112D01*
X168736110Y-105483297D01*
X168343470Y-105089971D01*
X167830200Y-104876843D01*
X167274439Y-104876358D01*
X166760797Y-105088590D01*
X166367471Y-105481230D01*
X166281151Y-105689112D01*
X166196110Y-105483297D01*
X165803470Y-105089971D01*
X165290200Y-104876843D01*
X164734439Y-104876358D01*
X164220797Y-105088590D01*
X163827471Y-105481230D01*
X163741151Y-105689112D01*
X163656110Y-105483297D01*
X163263470Y-105089971D01*
X162750200Y-104876843D01*
X162194439Y-104876358D01*
X161680797Y-105088590D01*
X161287471Y-105481230D01*
X161201151Y-105689112D01*
X161116110Y-105483297D01*
X160723470Y-105089971D01*
X160210200Y-104876843D01*
X159654439Y-104876358D01*
X159140797Y-105088590D01*
X158747471Y-105481230D01*
X158661151Y-105689112D01*
X158576110Y-105483297D01*
X158183470Y-105089971D01*
X157670200Y-104876843D01*
X157114439Y-104876358D01*
X156600797Y-105088590D01*
X156207471Y-105481230D01*
X156121151Y-105689112D01*
X156036110Y-105483297D01*
X155643470Y-105089971D01*
X155130200Y-104876843D01*
X154574439Y-104876358D01*
X154060797Y-105088590D01*
X153667471Y-105481230D01*
X153581151Y-105689112D01*
X153496110Y-105483297D01*
X153103470Y-105089971D01*
X152590200Y-104876843D01*
X152034439Y-104876358D01*
X151520797Y-105088590D01*
X151127471Y-105481230D01*
X151041151Y-105689112D01*
X150956110Y-105483297D01*
X150563470Y-105089971D01*
X150050200Y-104876843D01*
X149494439Y-104876358D01*
X148980797Y-105088590D01*
X148587471Y-105481230D01*
X148374343Y-105994500D01*
X148373858Y-106550261D01*
X148586090Y-107063903D01*
X148978730Y-107457229D01*
X149492000Y-107670357D01*
X150047761Y-107670842D01*
X150561403Y-107458610D01*
X150954729Y-107065970D01*
X151041049Y-106858088D01*
X151126090Y-107063903D01*
X151388000Y-107326271D01*
X151388000Y-127253995D01*
X151387999Y-127254000D01*
X151421681Y-127423326D01*
X151455367Y-127592675D01*
X151616191Y-127833367D01*
X151647210Y-127879790D01*
X151649724Y-127882304D01*
X151579957Y-127911203D01*
X151510492Y-128153387D01*
X152311100Y-128953995D01*
X152325243Y-128939853D01*
X152504848Y-129119458D01*
X152490705Y-129133600D01*
X152504848Y-129147743D01*
X152325243Y-129327348D01*
X152311100Y-129313205D01*
X152296958Y-129327348D01*
X152117353Y-129147743D01*
X152131495Y-129133600D01*
X151330887Y-128332992D01*
X151088703Y-128402457D01*
X151038591Y-128542918D01*
X150956110Y-128343297D01*
X150563470Y-127949971D01*
X150110000Y-127761674D01*
X150110153Y-127586735D01*
X149975704Y-127261343D01*
X149726967Y-127012171D01*
X149401810Y-126877154D01*
X149049735Y-126876847D01*
X148724343Y-127011296D01*
X148475171Y-127260033D01*
X148475017Y-127260404D01*
X148091210Y-127644210D01*
X147899367Y-127931325D01*
X147897878Y-127938810D01*
X147881260Y-128022354D01*
X147772367Y-128185325D01*
X147772367Y-128185326D01*
X147754260Y-128276354D01*
X147645367Y-128439325D01*
X147645367Y-128439326D01*
X147577999Y-128778000D01*
X147578000Y-128778005D01*
X147578000Y-141477995D01*
X147577999Y-141478000D01*
X147617458Y-141676367D01*
X147645367Y-141816675D01*
X147775603Y-142011588D01*
X147837210Y-142103790D01*
X149085426Y-143352006D01*
X149085058Y-143773961D01*
X149297290Y-144287603D01*
X149689930Y-144680929D01*
X150203200Y-144894057D01*
X150758961Y-144894542D01*
X151272603Y-144682310D01*
X151665929Y-144289670D01*
X151752249Y-144081788D01*
X151837290Y-144287603D01*
X152229930Y-144680929D01*
X152743200Y-144894057D01*
X153298961Y-144894542D01*
X153812603Y-144682310D01*
X154205929Y-144289670D01*
X154292249Y-144081788D01*
X154377290Y-144287603D01*
X154769930Y-144680929D01*
X155283200Y-144894057D01*
X155838961Y-144894542D01*
X156352603Y-144682310D01*
X156745929Y-144289670D01*
X156832249Y-144081788D01*
X156917290Y-144287603D01*
X157309930Y-144680929D01*
X157823200Y-144894057D01*
X158378961Y-144894542D01*
X158892603Y-144682310D01*
X159285929Y-144289670D01*
X159499057Y-143776400D01*
X159499405Y-143377174D01*
X160010787Y-142865792D01*
X160010790Y-142865790D01*
X160202633Y-142578675D01*
X160222724Y-142477672D01*
X160270001Y-142240000D01*
X160270000Y-142239995D01*
X160270000Y-135509005D01*
X160270001Y-135509000D01*
X160202633Y-135170325D01*
X160177025Y-135132000D01*
X160129711Y-135061189D01*
X160075633Y-134789325D01*
X160011719Y-134693671D01*
X159889000Y-134510007D01*
X159889000Y-132842000D01*
X159889153Y-132666735D01*
X159754704Y-132341343D01*
X159629791Y-132216212D01*
X159629790Y-132216210D01*
X159629788Y-132216209D01*
X159505967Y-132092171D01*
X159180810Y-131957154D01*
X159000000Y-131956996D01*
X159000000Y-130178257D01*
X159138730Y-130317229D01*
X159652000Y-130530357D01*
X160013092Y-130530672D01*
X167878193Y-138395773D01*
X167481406Y-138395426D01*
X166880445Y-138643738D01*
X166420254Y-139103127D01*
X166170894Y-139703653D01*
X166170326Y-140353894D01*
X166418638Y-140954855D01*
X166878027Y-141415046D01*
X167478553Y-141664406D01*
X168128794Y-141664974D01*
X168729755Y-141416662D01*
X169189946Y-140957273D01*
X169439306Y-140356747D01*
X169439655Y-139957234D01*
X175649950Y-146167529D01*
X175774033Y-146291829D01*
X176099190Y-146426846D01*
X176275996Y-146427000D01*
X176276000Y-146427001D01*
X176276004Y-146427000D01*
X176451265Y-146427153D01*
X176776657Y-146292704D01*
X176901788Y-146167791D01*
X176901790Y-146167790D01*
X176901791Y-146167788D01*
X177025829Y-146043967D01*
X177160846Y-145718810D01*
X177161000Y-145542004D01*
X177161001Y-145542000D01*
X177161000Y-145541996D01*
X177161153Y-145366735D01*
X177026704Y-145041343D01*
X176777967Y-144792171D01*
X176777596Y-144792017D01*
X162516220Y-130530640D01*
X162553092Y-130530672D01*
X178189950Y-146167529D01*
X178314033Y-146291829D01*
X178639190Y-146426846D01*
X178815996Y-146427000D01*
X178816000Y-146427001D01*
X178816004Y-146427000D01*
X178991265Y-146427153D01*
X179316657Y-146292704D01*
X179441788Y-146167791D01*
X179441790Y-146167790D01*
X179441791Y-146167788D01*
X179565829Y-146043967D01*
X179700846Y-145718810D01*
X179701000Y-145542004D01*
X179701001Y-145542000D01*
X179701000Y-145541996D01*
X179701153Y-145366735D01*
X179566704Y-145041343D01*
X179317967Y-144792171D01*
X179317596Y-144792017D01*
X174879474Y-140353894D01*
X176330326Y-140353894D01*
X176578638Y-140954855D01*
X177038027Y-141415046D01*
X177638553Y-141664406D01*
X178288794Y-141664974D01*
X178889755Y-141416662D01*
X179349946Y-140957273D01*
X179599306Y-140356747D01*
X179599874Y-139706506D01*
X179351562Y-139105545D01*
X178892173Y-138645354D01*
X178291647Y-138395994D01*
X177641406Y-138395426D01*
X177040445Y-138643738D01*
X176580254Y-139103127D01*
X176330894Y-139703653D01*
X176330326Y-140353894D01*
X174879474Y-140353894D01*
X165056220Y-130530640D01*
X165093092Y-130530672D01*
X166505950Y-131943529D01*
X166630033Y-132067829D01*
X166955190Y-132202846D01*
X167131996Y-132203000D01*
X167132000Y-132203001D01*
X167132004Y-132203000D01*
X167307265Y-132203153D01*
X167632657Y-132068704D01*
X167881829Y-131819967D01*
X168016846Y-131494810D01*
X168017000Y-131318004D01*
X168017001Y-131318000D01*
X168017000Y-131317996D01*
X168017153Y-131142735D01*
X167882704Y-130817343D01*
X167633967Y-130568171D01*
X167633596Y-130568017D01*
X167596219Y-130530640D01*
X167633092Y-130530672D01*
X169045950Y-131943529D01*
X169170033Y-132067829D01*
X169187403Y-132075042D01*
X169173212Y-132089209D01*
X169173210Y-132089210D01*
X169173209Y-132089212D01*
X169049171Y-132213033D01*
X168914154Y-132538190D01*
X168913847Y-132890265D01*
X169048296Y-133215657D01*
X169173209Y-133340788D01*
X169173210Y-133340790D01*
X169173212Y-133340791D01*
X169297033Y-133464829D01*
X169622190Y-133599846D01*
X169974265Y-133600153D01*
X169974635Y-133600000D01*
X172338801Y-133600000D01*
X172514265Y-133600153D01*
X172839657Y-133465704D01*
X172964788Y-133340791D01*
X172964790Y-133340790D01*
X172964791Y-133340788D01*
X173088829Y-133216967D01*
X173223846Y-132891810D01*
X173224153Y-132539735D01*
X173089704Y-132214343D01*
X172964791Y-132089212D01*
X172964790Y-132089210D01*
X172964788Y-132089209D01*
X172840967Y-131965171D01*
X172823597Y-131957958D01*
X172961829Y-131819967D01*
X173096846Y-131494810D01*
X173097000Y-131318004D01*
X173097001Y-131318000D01*
X173097000Y-131317996D01*
X173097153Y-131142735D01*
X172962704Y-130817343D01*
X172713967Y-130568171D01*
X172713596Y-130568017D01*
X172676219Y-130530640D01*
X172907761Y-130530842D01*
X173421403Y-130318610D01*
X173814729Y-129925970D01*
X173901049Y-129718088D01*
X173986090Y-129923903D01*
X174378730Y-130317229D01*
X174892000Y-130530357D01*
X175447761Y-130530842D01*
X175961403Y-130318610D01*
X176354729Y-129925970D01*
X176441049Y-129718088D01*
X176526090Y-129923903D01*
X176918730Y-130317229D01*
X177432000Y-130530357D01*
X177987761Y-130530842D01*
X178501403Y-130318610D01*
X178894729Y-129925970D01*
X178981049Y-129718088D01*
X179066090Y-129923903D01*
X179458730Y-130317229D01*
X179972000Y-130530357D01*
X180527761Y-130530842D01*
X181041403Y-130318610D01*
X181434729Y-129925970D01*
X181521049Y-129718088D01*
X181606090Y-129923903D01*
X181998730Y-130317229D01*
X182512000Y-130530357D01*
X183067761Y-130530842D01*
X183581403Y-130318610D01*
X183974729Y-129925970D01*
X184061049Y-129718088D01*
X184146090Y-129923903D01*
X184538730Y-130317229D01*
X184662000Y-130368415D01*
X184662000Y-142239995D01*
X184661999Y-142240000D01*
X184690497Y-142383265D01*
X184729367Y-142578675D01*
X184838260Y-142741646D01*
X184840320Y-142752000D01*
X184856367Y-142832675D01*
X184963351Y-142992789D01*
X185048210Y-143119790D01*
X185434253Y-143505832D01*
X185387672Y-143618012D01*
X185387330Y-144009869D01*
X185536971Y-144372029D01*
X185813814Y-144649355D01*
X186175712Y-144799628D01*
X186567569Y-144799970D01*
X186929729Y-144650329D01*
X187207055Y-144373486D01*
X187357328Y-144011588D01*
X187357594Y-143705725D01*
X187374143Y-143705725D01*
X187408397Y-144096082D01*
X187491880Y-144297627D01*
X187691588Y-144316107D01*
X188192895Y-143814800D01*
X187691588Y-143313493D01*
X187491880Y-143331973D01*
X187374143Y-143705725D01*
X187357594Y-143705725D01*
X187357670Y-143619731D01*
X187321000Y-143530983D01*
X187321000Y-143256005D01*
X187321001Y-143256000D01*
X187253633Y-142917326D01*
X187253633Y-142917325D01*
X187061790Y-142630210D01*
X187061787Y-142630208D01*
X187005885Y-142574306D01*
X187207055Y-142373486D01*
X187357328Y-142011588D01*
X187357670Y-141619731D01*
X187321000Y-141530983D01*
X187321000Y-130417828D01*
X187592000Y-130530357D01*
X188147761Y-130530842D01*
X188661403Y-130318610D01*
X189054729Y-129925970D01*
X189141049Y-129718088D01*
X189226090Y-129923903D01*
X189488000Y-130186271D01*
X189488000Y-139460421D01*
X188077499Y-140870921D01*
X187815271Y-140979271D01*
X187537945Y-141256114D01*
X187387672Y-141618012D01*
X187387330Y-142009869D01*
X187536971Y-142372029D01*
X187813814Y-142649355D01*
X188175712Y-142799628D01*
X188567569Y-142799970D01*
X188783973Y-142710554D01*
X188746320Y-142899841D01*
X188481575Y-142816443D01*
X188091218Y-142850697D01*
X187889673Y-142934180D01*
X187871193Y-143133888D01*
X188372500Y-143635195D01*
X188386643Y-143621053D01*
X188508005Y-143742415D01*
X185937210Y-146313210D01*
X185937209Y-146313212D01*
X185813171Y-146437033D01*
X185678154Y-146762190D01*
X185678000Y-146938996D01*
X185677999Y-146939000D01*
X185678000Y-146939004D01*
X185677847Y-147114265D01*
X185710380Y-147193000D01*
X146354800Y-147193000D01*
X146354800Y-103060500D01*
X201422000Y-103060500D01*
X201422000Y-147193000D01*
G36*
X151579957Y-130355997D02*
X152103402Y-130542744D01*
X152658000Y-130514985D01*
X152658000Y-134492995D01*
X152657999Y-134493000D01*
X152662276Y-134514503D01*
X152231997Y-134692290D01*
X151838671Y-135084930D01*
X151752351Y-135292812D01*
X151667310Y-135086997D01*
X151380000Y-134799185D01*
X151380000Y-130213344D01*
X151395482Y-130228826D01*
X151510493Y-130113815D01*
X151579957Y-130355997D01*
X151579957Y-130355997D01*
G37*
X151579957Y-130355997D02*
X152103402Y-130542744D01*
X152658000Y-130514985D01*
X152658000Y-134492995D01*
X152657999Y-134493000D01*
X152662276Y-134514503D01*
X152231997Y-134692290D01*
X151838671Y-135084930D01*
X151752351Y-135292812D01*
X151667310Y-135086997D01*
X151380000Y-134799185D01*
X151380000Y-130213344D01*
X151395482Y-130228826D01*
X151510493Y-130113815D01*
X151579957Y-130355997D01*
M02*
