M48
METRIC,TZ
T1C0.400
T2C0.762
T3C1.000
T4C1.001
T5C1.090
%
G90
G05
T1
X155.448Y-139.7
X173.609Y-112.141
X175.768Y-111.76
X190.246Y-132.08
X198.882Y-134.62
X201.422Y-134.62
X205.105Y-115.57
X211.201Y-138.684
X212.471Y-111.379
X212.852Y-112.649
T2
X150.698Y-95.631
X150.698Y-103.251
X153.238Y-95.631
X153.238Y-103.251
X155.778Y-95.631
X155.778Y-103.251
X158.318Y-95.631
X158.318Y-103.251
T3
X215.974Y-104.871
X215.974Y-108.501
X215.974Y-112.131
X215.974Y-115.761
X215.974Y-119.391
X215.974Y-123.021
X215.974Y-126.651
X215.974Y-130.281
X215.974Y-133.911
X215.974Y-137.541
T4
X179.019Y-99.695
X189.179Y-99.695
T5
X150.444Y-114.442
X150.444Y-137.302
X152.984Y-114.442
X152.984Y-137.302
X155.524Y-114.442
X155.524Y-137.302
X158.064Y-114.442
X158.064Y-137.302
X160.604Y-114.442
X160.604Y-137.302
X163.144Y-114.442
X163.144Y-137.302
X165.684Y-114.442
X165.684Y-137.302
X168.224Y-114.442
X168.224Y-137.302
X170.764Y-114.442
X170.764Y-137.302
X173.304Y-114.442
X173.304Y-137.302
X175.844Y-114.442
X175.844Y-137.302
X178.384Y-114.442
X178.384Y-137.302
X180.924Y-114.442
X180.924Y-137.302
X183.464Y-114.442
X183.464Y-137.302
X186.004Y-114.442
X186.004Y-137.302
X188.544Y-114.442
X188.544Y-137.302
X191.084Y-114.442
X191.084Y-137.302
X193.624Y-114.442
X193.624Y-137.302
X196.164Y-114.442
X196.164Y-137.302
X198.704Y-114.442
X198.704Y-137.302
T0
M30
