M48
METRIC,TZ
T1C0.400
T2C0.500
T3C0.762
T4C1.001
%
G90
G05
T1
X149.225Y-127.762
X152.654Y-131.318
X156.718Y-127.889
X157.226Y-131.064
X159.004Y-132.842
X167.132Y-131.318
X169.672Y-131.318
X169.799Y-132.715
X170.815Y-133.731
X172.212Y-131.318
X172.339Y-132.715
X173.482Y-111.125
X176.022Y-108.458
X176.276Y-145.542
X178.816Y-145.542
X186.563Y-146.939
X191.516Y-146.05
X193.802Y-139.573
T2
X186.373Y-141.815
X186.373Y-143.815
X188.373Y-141.815
X188.373Y-143.815
X190.373Y-141.815
X190.373Y-143.815
X192.373Y-141.815
X192.373Y-143.815
X194.373Y-141.815
X194.373Y-143.815
X196.373Y-141.815
X196.373Y-143.815
X198.373Y-141.815
X198.373Y-143.815
T3
X149.771Y-106.274
X149.771Y-129.134
X150.482Y-135.877
X150.482Y-143.497
X152.311Y-106.274
X152.311Y-129.134
X153.022Y-135.877
X153.022Y-143.497
X154.851Y-106.274
X154.851Y-129.134
X155.562Y-135.877
X155.562Y-143.497
X157.391Y-106.274
X157.391Y-129.134
X158.102Y-135.877
X158.102Y-143.497
X159.931Y-106.274
X159.931Y-129.134
X162.471Y-106.274
X162.471Y-129.134
X165.011Y-106.274
X165.011Y-129.134
X167.551Y-106.274
X167.551Y-129.134
X170.091Y-106.274
X170.091Y-129.134
X172.631Y-106.274
X172.631Y-129.134
X175.171Y-106.274
X175.171Y-129.134
X177.711Y-106.274
X177.711Y-129.134
X180.251Y-106.274
X180.251Y-129.134
X182.791Y-106.274
X182.791Y-129.134
X185.331Y-106.274
X185.331Y-129.134
X187.871Y-106.274
X187.871Y-129.134
X190.411Y-106.274
X190.411Y-129.134
X192.951Y-106.274
X192.951Y-129.134
X195.491Y-106.274
X195.491Y-129.134
X198.031Y-106.274
X198.031Y-129.134
T4
X167.805Y-140.03
X177.965Y-140.03
T0
M30
