<?xml version="1.0" standalone="no"?>
 <!DOCTYPE svg PUBLIC "-//W3C//DTD SVG 1.1//EN" 
 "http://www.w3.org/Graphics/SVG/1.1/DTD/svg11.dtd"> 
<svg xmlns="http://www.w3.org/2000/svg" version="1.1" 
    width="29.7002cm" height="21.0007cm" viewBox="0 0 116930 82680 ">
<title>SVG Picture created as schematic-F.Cu.svg date 2016/03/11 01:22:33 </title>
  <desc>Picture generated by PCBNEW </desc>
<g style="fill:#000000; fill-opacity:1;stroke:#000000; stroke-opacity:1;
stroke-linecap:round; stroke-linejoin:round; "
 transform="translate(0 0) scale(1 1)">
</g>
<g style="fill:#000000; fill-opacity:0.0; 
stroke:#000000; stroke-width:-0.000393701; stroke-opacity:1; 
stroke-linecap:round; stroke-linejoin:round;">
</g>
<g style="fill:#000000; fill-opacity:1.0; 
stroke:#000000; stroke-width:0; stroke-opacity:1; 
stroke-linecap:round; stroke-linejoin:round;">
<circle cx="58965" cy="50840" r="300" /> 
</g>
<g style="fill:#000000; fill-opacity:1.0; 
stroke:#000000; stroke-width:236.22; stroke-opacity:1; 
stroke-linecap:round; stroke-linejoin:round;">
</g>
<g style="fill:#000000; fill-opacity:1.0; 
stroke:#000000; stroke-width:0; stroke-opacity:1; 
stroke-linecap:round; stroke-linejoin:round;">
<circle cx="59965" cy="50840" r="300" /> 
</g>
<g style="fill:#000000; fill-opacity:1.0; 
stroke:#000000; stroke-width:236.22; stroke-opacity:1; 
stroke-linecap:round; stroke-linejoin:round;">
</g>
<g style="fill:#000000; fill-opacity:1.0; 
stroke:#000000; stroke-width:0; stroke-opacity:1; 
stroke-linecap:round; stroke-linejoin:round;">
<circle cx="60965" cy="50840" r="300" /> 
</g>
<g style="fill:#000000; fill-opacity:1.0; 
stroke:#000000; stroke-width:236.22; stroke-opacity:1; 
stroke-linecap:round; stroke-linejoin:round;">
</g>
<g style="fill:#000000; fill-opacity:1.0; 
stroke:#000000; stroke-width:0; stroke-opacity:1; 
stroke-linecap:round; stroke-linejoin:round;">
<circle cx="61965" cy="50840" r="300" /> 
</g>
<g style="fill:#000000; fill-opacity:1.0; 
stroke:#000000; stroke-width:236.22; stroke-opacity:1; 
stroke-linecap:round; stroke-linejoin:round;">
</g>
<g style="fill:#000000; fill-opacity:1.0; 
stroke:#000000; stroke-width:0; stroke-opacity:1; 
stroke-linecap:round; stroke-linejoin:round;">
<circle cx="62965" cy="50840" r="300" /> 
</g>
<g style="fill:#000000; fill-opacity:1.0; 
stroke:#000000; stroke-width:236.22; stroke-opacity:1; 
stroke-linecap:round; stroke-linejoin:round;">
</g>
<g style="fill:#000000; fill-opacity:1.0; 
stroke:#000000; stroke-width:0; stroke-opacity:1; 
stroke-linecap:round; stroke-linejoin:round;">
<circle cx="63965" cy="50840" r="300" /> 
</g>
<g style="fill:#000000; fill-opacity:1.0; 
stroke:#000000; stroke-width:236.22; stroke-opacity:1; 
stroke-linecap:round; stroke-linejoin:round;">
</g>
<g style="fill:#000000; fill-opacity:1.0; 
stroke:#000000; stroke-width:0; stroke-opacity:1; 
stroke-linecap:round; stroke-linejoin:round;">
<circle cx="64965" cy="50840" r="300" /> 
</g>
<g style="fill:#000000; fill-opacity:1.0; 
stroke:#000000; stroke-width:236.22; stroke-opacity:1; 
stroke-linecap:round; stroke-linejoin:round;">
</g>
<g style="fill:#000000; fill-opacity:1.0; 
stroke:#000000; stroke-width:0; stroke-opacity:1; 
stroke-linecap:round; stroke-linejoin:round;">
<circle cx="65965" cy="50840" r="300" /> 
</g>
<g style="fill:#000000; fill-opacity:1.0; 
stroke:#000000; stroke-width:236.22; stroke-opacity:1; 
stroke-linecap:round; stroke-linejoin:round;">
</g>
<g style="fill:#000000; fill-opacity:1.0; 
stroke:#000000; stroke-width:0; stroke-opacity:1; 
stroke-linecap:round; stroke-linejoin:round;">
<circle cx="66965" cy="50840" r="300" /> 
</g>
<g style="fill:#000000; fill-opacity:1.0; 
stroke:#000000; stroke-width:236.22; stroke-opacity:1; 
stroke-linecap:round; stroke-linejoin:round;">
</g>
<g style="fill:#000000; fill-opacity:1.0; 
stroke:#000000; stroke-width:0; stroke-opacity:1; 
stroke-linecap:round; stroke-linejoin:round;">
<circle cx="67965" cy="50840" r="300" /> 
</g>
<g style="fill:#000000; fill-opacity:1.0; 
stroke:#000000; stroke-width:236.22; stroke-opacity:1; 
stroke-linecap:round; stroke-linejoin:round;">
</g>
<g style="fill:#000000; fill-opacity:1.0; 
stroke:#000000; stroke-width:0; stroke-opacity:1; 
stroke-linecap:round; stroke-linejoin:round;">
<circle cx="68965" cy="50840" r="300" /> 
</g>
<g style="fill:#000000; fill-opacity:1.0; 
stroke:#000000; stroke-width:236.22; stroke-opacity:1; 
stroke-linecap:round; stroke-linejoin:round;">
</g>
<g style="fill:#000000; fill-opacity:1.0; 
stroke:#000000; stroke-width:0; stroke-opacity:1; 
stroke-linecap:round; stroke-linejoin:round;">
<circle cx="69965" cy="50840" r="300" /> 
</g>
<g style="fill:#000000; fill-opacity:1.0; 
stroke:#000000; stroke-width:236.22; stroke-opacity:1; 
stroke-linecap:round; stroke-linejoin:round;">
</g>
<g style="fill:#000000; fill-opacity:1.0; 
stroke:#000000; stroke-width:0; stroke-opacity:1; 
stroke-linecap:round; stroke-linejoin:round;">
<circle cx="70965" cy="50840" r="300" /> 
</g>
<g style="fill:#000000; fill-opacity:1.0; 
stroke:#000000; stroke-width:236.22; stroke-opacity:1; 
stroke-linecap:round; stroke-linejoin:round;">
</g>
<g style="fill:#000000; fill-opacity:1.0; 
stroke:#000000; stroke-width:0; stroke-opacity:1; 
stroke-linecap:round; stroke-linejoin:round;">
<circle cx="71965" cy="50840" r="300" /> 
</g>
<g style="fill:#000000; fill-opacity:1.0; 
stroke:#000000; stroke-width:236.22; stroke-opacity:1; 
stroke-linecap:round; stroke-linejoin:round;">
</g>
<g style="fill:#000000; fill-opacity:1.0; 
stroke:#000000; stroke-width:0; stroke-opacity:1; 
stroke-linecap:round; stroke-linejoin:round;">
<circle cx="72965" cy="50840" r="300" /> 
</g>
<g style="fill:#000000; fill-opacity:1.0; 
stroke:#000000; stroke-width:236.22; stroke-opacity:1; 
stroke-linecap:round; stroke-linejoin:round;">
</g>
<g style="fill:#000000; fill-opacity:1.0; 
stroke:#000000; stroke-width:0; stroke-opacity:1; 
stroke-linecap:round; stroke-linejoin:round;">
<circle cx="73965" cy="50840" r="300" /> 
</g>
<g style="fill:#000000; fill-opacity:1.0; 
stroke:#000000; stroke-width:236.22; stroke-opacity:1; 
stroke-linecap:round; stroke-linejoin:round;">
</g>
<g style="fill:#000000; fill-opacity:1.0; 
stroke:#000000; stroke-width:0; stroke-opacity:1; 
stroke-linecap:round; stroke-linejoin:round;">
<circle cx="74965" cy="50840" r="300" /> 
</g>
<g style="fill:#000000; fill-opacity:1.0; 
stroke:#000000; stroke-width:236.22; stroke-opacity:1; 
stroke-linecap:round; stroke-linejoin:round;">
</g>
<g style="fill:#000000; fill-opacity:1.0; 
stroke:#000000; stroke-width:0; stroke-opacity:1; 
stroke-linecap:round; stroke-linejoin:round;">
<circle cx="75965" cy="50840" r="300" /> 
</g>
<g style="fill:#000000; fill-opacity:1.0; 
stroke:#000000; stroke-width:236.22; stroke-opacity:1; 
stroke-linecap:round; stroke-linejoin:round;">
</g>
<g style="fill:#000000; fill-opacity:1.0; 
stroke:#000000; stroke-width:0; stroke-opacity:1; 
stroke-linecap:round; stroke-linejoin:round;">
<circle cx="76965" cy="50840" r="300" /> 
</g>
<g style="fill:#000000; fill-opacity:1.0; 
stroke:#000000; stroke-width:236.22; stroke-opacity:1; 
stroke-linecap:round; stroke-linejoin:round;">
</g>
<g style="fill:#000000; fill-opacity:1.0; 
stroke:#000000; stroke-width:0; stroke-opacity:1; 
stroke-linecap:round; stroke-linejoin:round;">
<circle cx="77965" cy="50840" r="300" /> 
</g>
<g style="fill:#000000; fill-opacity:1.0; 
stroke:#000000; stroke-width:236.22; stroke-opacity:1; 
stroke-linecap:round; stroke-linejoin:round;">
</g>
<g style="fill:#000000; fill-opacity:1.0; 
stroke:#000000; stroke-width:0; stroke-opacity:1; 
stroke-linecap:round; stroke-linejoin:round;">
<circle cx="77965" cy="41840" r="300" /> 
</g>
<g style="fill:#000000; fill-opacity:1.0; 
stroke:#000000; stroke-width:236.22; stroke-opacity:1; 
stroke-linecap:round; stroke-linejoin:round;">
</g>
<g style="fill:#000000; fill-opacity:1.0; 
stroke:#000000; stroke-width:0; stroke-opacity:1; 
stroke-linecap:round; stroke-linejoin:round;">
<circle cx="76965" cy="41840" r="300" /> 
</g>
<g style="fill:#000000; fill-opacity:1.0; 
stroke:#000000; stroke-width:236.22; stroke-opacity:1; 
stroke-linecap:round; stroke-linejoin:round;">
</g>
<g style="fill:#000000; fill-opacity:1.0; 
stroke:#000000; stroke-width:0; stroke-opacity:1; 
stroke-linecap:round; stroke-linejoin:round;">
<circle cx="75965" cy="41840" r="300" /> 
</g>
<g style="fill:#000000; fill-opacity:1.0; 
stroke:#000000; stroke-width:236.22; stroke-opacity:1; 
stroke-linecap:round; stroke-linejoin:round;">
</g>
<g style="fill:#000000; fill-opacity:1.0; 
stroke:#000000; stroke-width:0; stroke-opacity:1; 
stroke-linecap:round; stroke-linejoin:round;">
<circle cx="74965" cy="41840" r="300" /> 
</g>
<g style="fill:#000000; fill-opacity:1.0; 
stroke:#000000; stroke-width:236.22; stroke-opacity:1; 
stroke-linecap:round; stroke-linejoin:round;">
</g>
<g style="fill:#000000; fill-opacity:1.0; 
stroke:#000000; stroke-width:0; stroke-opacity:1; 
stroke-linecap:round; stroke-linejoin:round;">
<circle cx="73965" cy="41840" r="300" /> 
</g>
<g style="fill:#000000; fill-opacity:1.0; 
stroke:#000000; stroke-width:236.22; stroke-opacity:1; 
stroke-linecap:round; stroke-linejoin:round;">
</g>
<g style="fill:#000000; fill-opacity:1.0; 
stroke:#000000; stroke-width:0; stroke-opacity:1; 
stroke-linecap:round; stroke-linejoin:round;">
<circle cx="72965" cy="41840" r="300" /> 
</g>
<g style="fill:#000000; fill-opacity:1.0; 
stroke:#000000; stroke-width:236.22; stroke-opacity:1; 
stroke-linecap:round; stroke-linejoin:round;">
</g>
<g style="fill:#000000; fill-opacity:1.0; 
stroke:#000000; stroke-width:0; stroke-opacity:1; 
stroke-linecap:round; stroke-linejoin:round;">
<circle cx="71965" cy="41840" r="300" /> 
</g>
<g style="fill:#000000; fill-opacity:1.0; 
stroke:#000000; stroke-width:236.22; stroke-opacity:1; 
stroke-linecap:round; stroke-linejoin:round;">
</g>
<g style="fill:#000000; fill-opacity:1.0; 
stroke:#000000; stroke-width:0; stroke-opacity:1; 
stroke-linecap:round; stroke-linejoin:round;">
<circle cx="70965" cy="41840" r="300" /> 
</g>
<g style="fill:#000000; fill-opacity:1.0; 
stroke:#000000; stroke-width:236.22; stroke-opacity:1; 
stroke-linecap:round; stroke-linejoin:round;">
</g>
<g style="fill:#000000; fill-opacity:1.0; 
stroke:#000000; stroke-width:0; stroke-opacity:1; 
stroke-linecap:round; stroke-linejoin:round;">
<circle cx="69965" cy="41840" r="300" /> 
</g>
<g style="fill:#000000; fill-opacity:1.0; 
stroke:#000000; stroke-width:236.22; stroke-opacity:1; 
stroke-linecap:round; stroke-linejoin:round;">
</g>
<g style="fill:#000000; fill-opacity:1.0; 
stroke:#000000; stroke-width:0; stroke-opacity:1; 
stroke-linecap:round; stroke-linejoin:round;">
<circle cx="68965" cy="41840" r="300" /> 
</g>
<g style="fill:#000000; fill-opacity:1.0; 
stroke:#000000; stroke-width:236.22; stroke-opacity:1; 
stroke-linecap:round; stroke-linejoin:round;">
</g>
<g style="fill:#000000; fill-opacity:1.0; 
stroke:#000000; stroke-width:0; stroke-opacity:1; 
stroke-linecap:round; stroke-linejoin:round;">
<circle cx="67965" cy="41840" r="300" /> 
</g>
<g style="fill:#000000; fill-opacity:1.0; 
stroke:#000000; stroke-width:236.22; stroke-opacity:1; 
stroke-linecap:round; stroke-linejoin:round;">
</g>
<g style="fill:#000000; fill-opacity:1.0; 
stroke:#000000; stroke-width:0; stroke-opacity:1; 
stroke-linecap:round; stroke-linejoin:round;">
<circle cx="66965" cy="41840" r="300" /> 
</g>
<g style="fill:#000000; fill-opacity:1.0; 
stroke:#000000; stroke-width:236.22; stroke-opacity:1; 
stroke-linecap:round; stroke-linejoin:round;">
</g>
<g style="fill:#000000; fill-opacity:1.0; 
stroke:#000000; stroke-width:0; stroke-opacity:1; 
stroke-linecap:round; stroke-linejoin:round;">
<circle cx="65965" cy="41840" r="300" /> 
</g>
<g style="fill:#000000; fill-opacity:1.0; 
stroke:#000000; stroke-width:236.22; stroke-opacity:1; 
stroke-linecap:round; stroke-linejoin:round;">
</g>
<g style="fill:#000000; fill-opacity:1.0; 
stroke:#000000; stroke-width:0; stroke-opacity:1; 
stroke-linecap:round; stroke-linejoin:round;">
<circle cx="64965" cy="41840" r="300" /> 
</g>
<g style="fill:#000000; fill-opacity:1.0; 
stroke:#000000; stroke-width:236.22; stroke-opacity:1; 
stroke-linecap:round; stroke-linejoin:round;">
</g>
<g style="fill:#000000; fill-opacity:1.0; 
stroke:#000000; stroke-width:0; stroke-opacity:1; 
stroke-linecap:round; stroke-linejoin:round;">
<circle cx="63965" cy="41840" r="300" /> 
</g>
<g style="fill:#000000; fill-opacity:1.0; 
stroke:#000000; stroke-width:236.22; stroke-opacity:1; 
stroke-linecap:round; stroke-linejoin:round;">
</g>
<g style="fill:#000000; fill-opacity:1.0; 
stroke:#000000; stroke-width:0; stroke-opacity:1; 
stroke-linecap:round; stroke-linejoin:round;">
<circle cx="62965" cy="41840" r="300" /> 
</g>
<g style="fill:#000000; fill-opacity:1.0; 
stroke:#000000; stroke-width:236.22; stroke-opacity:1; 
stroke-linecap:round; stroke-linejoin:round;">
</g>
<g style="fill:#000000; fill-opacity:1.0; 
stroke:#000000; stroke-width:0; stroke-opacity:1; 
stroke-linecap:round; stroke-linejoin:round;">
<circle cx="61965" cy="41840" r="300" /> 
</g>
<g style="fill:#000000; fill-opacity:1.0; 
stroke:#000000; stroke-width:236.22; stroke-opacity:1; 
stroke-linecap:round; stroke-linejoin:round;">
</g>
<g style="fill:#000000; fill-opacity:1.0; 
stroke:#000000; stroke-width:0; stroke-opacity:1; 
stroke-linecap:round; stroke-linejoin:round;">
<circle cx="60965" cy="41840" r="300" /> 
</g>
<g style="fill:#000000; fill-opacity:1.0; 
stroke:#000000; stroke-width:236.22; stroke-opacity:1; 
stroke-linecap:round; stroke-linejoin:round;">
</g>
<g style="fill:#000000; fill-opacity:1.0; 
stroke:#000000; stroke-width:0; stroke-opacity:1; 
stroke-linecap:round; stroke-linejoin:round;">
<circle cx="59965" cy="41840" r="300" /> 
</g>
<g style="fill:#000000; fill-opacity:1.0; 
stroke:#000000; stroke-width:236.22; stroke-opacity:1; 
stroke-linecap:round; stroke-linejoin:round;">
</g>
<g style="fill:#000000; fill-opacity:1.0; 
stroke:#000000; stroke-width:0; stroke-opacity:1; 
stroke-linecap:round; stroke-linejoin:round;">
<circle cx="58965" cy="41840" r="300" /> 
</g>
<g style="fill:#000000; fill-opacity:1.0; 
stroke:#000000; stroke-width:236.22; stroke-opacity:1; 
stroke-linecap:round; stroke-linejoin:round;">
</g>
<g style="fill:#000000; fill-opacity:1.0; 
stroke:#000000; stroke-width:0; stroke-opacity:1; 
stroke-linecap:round; stroke-linejoin:round;">
<circle cx="59245" cy="56495" r="300" /> 
</g>
<g style="fill:#000000; fill-opacity:1.0; 
stroke:#000000; stroke-width:236.22; stroke-opacity:1; 
stroke-linecap:round; stroke-linejoin:round;">
</g>
<g style="fill:#000000; fill-opacity:1.0; 
stroke:#000000; stroke-width:0; stroke-opacity:1; 
stroke-linecap:round; stroke-linejoin:round;">
<circle cx="60245" cy="56495" r="300" /> 
</g>
<g style="fill:#000000; fill-opacity:1.0; 
stroke:#000000; stroke-width:236.22; stroke-opacity:1; 
stroke-linecap:round; stroke-linejoin:round;">
</g>
<g style="fill:#000000; fill-opacity:1.0; 
stroke:#000000; stroke-width:0; stroke-opacity:1; 
stroke-linecap:round; stroke-linejoin:round;">
<circle cx="61245" cy="56495" r="300" /> 
</g>
<g style="fill:#000000; fill-opacity:1.0; 
stroke:#000000; stroke-width:236.22; stroke-opacity:1; 
stroke-linecap:round; stroke-linejoin:round;">
</g>
<g style="fill:#000000; fill-opacity:1.0; 
stroke:#000000; stroke-width:0; stroke-opacity:1; 
stroke-linecap:round; stroke-linejoin:round;">
<circle cx="62245" cy="56495" r="300" /> 
</g>
<g style="fill:#000000; fill-opacity:1.0; 
stroke:#000000; stroke-width:236.22; stroke-opacity:1; 
stroke-linecap:round; stroke-linejoin:round;">
</g>
<g style="fill:#000000; fill-opacity:1.0; 
stroke:#000000; stroke-width:0; stroke-opacity:1; 
stroke-linecap:round; stroke-linejoin:round;">
<circle cx="59245" cy="53495" r="300" /> 
</g>
<g style="fill:#000000; fill-opacity:1.0; 
stroke:#000000; stroke-width:236.22; stroke-opacity:1; 
stroke-linecap:round; stroke-linejoin:round;">
</g>
<g style="fill:#000000; fill-opacity:1.0; 
stroke:#000000; stroke-width:0; stroke-opacity:1; 
stroke-linecap:round; stroke-linejoin:round;">
<circle cx="60245" cy="53495" r="300" /> 
</g>
<g style="fill:#000000; fill-opacity:1.0; 
stroke:#000000; stroke-width:236.22; stroke-opacity:1; 
stroke-linecap:round; stroke-linejoin:round;">
</g>
<g style="fill:#000000; fill-opacity:1.0; 
stroke:#000000; stroke-width:0; stroke-opacity:1; 
stroke-linecap:round; stroke-linejoin:round;">
<circle cx="61245" cy="53495" r="300" /> 
</g>
<g style="fill:#000000; fill-opacity:1.0; 
stroke:#000000; stroke-width:236.22; stroke-opacity:1; 
stroke-linecap:round; stroke-linejoin:round;">
</g>
<g style="fill:#000000; fill-opacity:1.0; 
stroke:#000000; stroke-width:0; stroke-opacity:1; 
stroke-linecap:round; stroke-linejoin:round;">
<circle cx="62245" cy="53495" r="300" /> 
</g>
<g style="fill:#000000; fill-opacity:1.0; 
stroke:#000000; stroke-width:236.22; stroke-opacity:1; 
stroke-linecap:round; stroke-linejoin:round;">
</g>
<g style="fill:#000000; fill-opacity:1.0; 
stroke:#000000; stroke-width:0; stroke-opacity:1; 
stroke-linecap:round; stroke-linejoin:round;">
<circle cx="78099.4" cy="55832.6" r="137.795" /> 
</g>
<g style="fill:#000000; fill-opacity:1.0; 
stroke:#000000; stroke-width:236.22; stroke-opacity:1; 
stroke-linecap:round; stroke-linejoin:round;">
</g>
<g style="fill:#000000; fill-opacity:1.0; 
stroke:#000000; stroke-width:0; stroke-opacity:1; 
stroke-linecap:round; stroke-linejoin:round;">
<circle cx="77312" cy="55832.6" r="137.795" /> 
</g>
<g style="fill:#000000; fill-opacity:1.0; 
stroke:#000000; stroke-width:236.22; stroke-opacity:1; 
stroke-linecap:round; stroke-linejoin:round;">
</g>
<g style="fill:#000000; fill-opacity:1.0; 
stroke:#000000; stroke-width:0; stroke-opacity:1; 
stroke-linecap:round; stroke-linejoin:round;">
<circle cx="76524.6" cy="55832.6" r="137.795" /> 
</g>
<g style="fill:#000000; fill-opacity:1.0; 
stroke:#000000; stroke-width:236.22; stroke-opacity:1; 
stroke-linecap:round; stroke-linejoin:round;">
</g>
<g style="fill:#000000; fill-opacity:1.0; 
stroke:#000000; stroke-width:0; stroke-opacity:1; 
stroke-linecap:round; stroke-linejoin:round;">
<circle cx="75737.2" cy="55832.6" r="137.795" /> 
</g>
<g style="fill:#000000; fill-opacity:1.0; 
stroke:#000000; stroke-width:236.22; stroke-opacity:1; 
stroke-linecap:round; stroke-linejoin:round;">
</g>
<g style="fill:#000000; fill-opacity:1.0; 
stroke:#000000; stroke-width:0; stroke-opacity:1; 
stroke-linecap:round; stroke-linejoin:round;">
<circle cx="74949.8" cy="55832.6" r="137.795" /> 
</g>
<g style="fill:#000000; fill-opacity:1.0; 
stroke:#000000; stroke-width:236.22; stroke-opacity:1; 
stroke-linecap:round; stroke-linejoin:round;">
</g>
<g style="fill:#000000; fill-opacity:1.0; 
stroke:#000000; stroke-width:0; stroke-opacity:1; 
stroke-linecap:round; stroke-linejoin:round;">
<circle cx="74162.4" cy="55832.6" r="137.795" /> 
</g>
<g style="fill:#000000; fill-opacity:1.0; 
stroke:#000000; stroke-width:236.22; stroke-opacity:1; 
stroke-linecap:round; stroke-linejoin:round;">
</g>
<g style="fill:#000000; fill-opacity:1.0; 
stroke:#000000; stroke-width:0; stroke-opacity:1; 
stroke-linecap:round; stroke-linejoin:round;">
<circle cx="73375" cy="55832.6" r="137.795" /> 
</g>
<g style="fill:#000000; fill-opacity:1.0; 
stroke:#000000; stroke-width:236.22; stroke-opacity:1; 
stroke-linecap:round; stroke-linejoin:round;">
</g>
<g style="fill:#000000; fill-opacity:1.0; 
stroke:#000000; stroke-width:0; stroke-opacity:1; 
stroke-linecap:round; stroke-linejoin:round;">
<circle cx="73375" cy="56620" r="137.795" /> 
</g>
<g style="fill:#000000; fill-opacity:1.0; 
stroke:#000000; stroke-width:236.22; stroke-opacity:1; 
stroke-linecap:round; stroke-linejoin:round;">
</g>
<g style="fill:#000000; fill-opacity:1.0; 
stroke:#000000; stroke-width:0; stroke-opacity:1; 
stroke-linecap:round; stroke-linejoin:round;">
<circle cx="74162.4" cy="56620" r="137.795" /> 
</g>
<g style="fill:#000000; fill-opacity:1.0; 
stroke:#000000; stroke-width:236.22; stroke-opacity:1; 
stroke-linecap:round; stroke-linejoin:round;">
</g>
<g style="fill:#000000; fill-opacity:1.0; 
stroke:#000000; stroke-width:0; stroke-opacity:1; 
stroke-linecap:round; stroke-linejoin:round;">
<circle cx="74949.8" cy="56620" r="137.795" /> 
</g>
<g style="fill:#000000; fill-opacity:1.0; 
stroke:#000000; stroke-width:236.22; stroke-opacity:1; 
stroke-linecap:round; stroke-linejoin:round;">
</g>
<g style="fill:#000000; fill-opacity:1.0; 
stroke:#000000; stroke-width:0; stroke-opacity:1; 
stroke-linecap:round; stroke-linejoin:round;">
<circle cx="75737.2" cy="56620" r="137.795" /> 
</g>
<g style="fill:#000000; fill-opacity:1.0; 
stroke:#000000; stroke-width:236.22; stroke-opacity:1; 
stroke-linecap:round; stroke-linejoin:round;">
</g>
<g style="fill:#000000; fill-opacity:1.0; 
stroke:#000000; stroke-width:0; stroke-opacity:1; 
stroke-linecap:round; stroke-linejoin:round;">
<circle cx="76524.6" cy="56620" r="137.795" /> 
</g>
<g style="fill:#000000; fill-opacity:1.0; 
stroke:#000000; stroke-width:236.22; stroke-opacity:1; 
stroke-linecap:round; stroke-linejoin:round;">
</g>
<g style="fill:#000000; fill-opacity:1.0; 
stroke:#000000; stroke-width:0; stroke-opacity:1; 
stroke-linecap:round; stroke-linejoin:round;">
<circle cx="77312" cy="56620" r="137.795" /> 
</g>
<g style="fill:#000000; fill-opacity:1.0; 
stroke:#000000; stroke-width:236.22; stroke-opacity:1; 
stroke-linecap:round; stroke-linejoin:round;">
</g>
<g style="fill:#000000; fill-opacity:1.0; 
stroke:#000000; stroke-width:0; stroke-opacity:1; 
stroke-linecap:round; stroke-linejoin:round;">
<circle cx="78099.4" cy="56620" r="137.795" /> 
</g>
<g style="fill:#000000; fill-opacity:1.0; 
stroke:#000000; stroke-width:236.22; stroke-opacity:1; 
stroke-linecap:round; stroke-linejoin:round;">
</g>
<g style="fill:#000000; fill-opacity:1.0; 
stroke:#000000; stroke-width:0; stroke-opacity:1; 
stroke-linecap:round; stroke-linejoin:round;">
<circle cx="66065" cy="55130" r="393.5" /> 
</g>
<g style="fill:#000000; fill-opacity:1.0; 
stroke:#000000; stroke-width:236.22; stroke-opacity:1; 
stroke-linecap:round; stroke-linejoin:round;">
</g>
<g style="fill:#000000; fill-opacity:1.0; 
stroke:#000000; stroke-width:0; stroke-opacity:1; 
stroke-linecap:round; stroke-linejoin:round;">
<circle cx="70065" cy="55130" r="393.5" /> 
</g>
<g style="fill:#000000; fill-opacity:1.0; 
stroke:#000000; stroke-width:236.22; stroke-opacity:1; 
stroke-linecap:round; stroke-linejoin:round;">
</g>
<g style="fill:#000000; fill-opacity:1.0; 
stroke:#000000; stroke-width:0; stroke-opacity:1; 
stroke-linecap:round; stroke-linejoin:round;">
<circle cx="60100" cy="51700" r="98.4252" /> 
</g>
<g style="fill:#000000; fill-opacity:1.0; 
stroke:#000000; stroke-width:236.22; stroke-opacity:1; 
stroke-linecap:round; stroke-linejoin:round;">
</g>
<g style="fill:#000000; fill-opacity:1.0; 
stroke:#000000; stroke-width:0; stroke-opacity:1; 
stroke-linecap:round; stroke-linejoin:round;">
<circle cx="67250" cy="52650" r="98.4252" /> 
</g>
<g style="fill:#000000; fill-opacity:1.0; 
stroke:#000000; stroke-width:236.22; stroke-opacity:1; 
stroke-linecap:round; stroke-linejoin:round;">
</g>
<g style="fill:#000000; fill-opacity:1.0; 
stroke:#000000; stroke-width:0; stroke-opacity:1; 
stroke-linecap:round; stroke-linejoin:round;">
<circle cx="58750" cy="50300" r="98.4252" /> 
</g>
<g style="fill:#000000; fill-opacity:1.0; 
stroke:#000000; stroke-width:236.22; stroke-opacity:1; 
stroke-linecap:round; stroke-linejoin:round;">
</g>
<g style="fill:#000000; fill-opacity:1.0; 
stroke:#000000; stroke-width:0; stroke-opacity:1; 
stroke-linecap:round; stroke-linejoin:round;">
<circle cx="69300" cy="42700" r="98.4252" /> 
</g>
<g style="fill:#000000; fill-opacity:1.0; 
stroke:#000000; stroke-width:236.22; stroke-opacity:1; 
stroke-linecap:round; stroke-linejoin:round;">
</g>
<g style="fill:#000000; fill-opacity:1.0; 
stroke:#000000; stroke-width:0; stroke-opacity:1; 
stroke-linecap:round; stroke-linejoin:round;">
<circle cx="62600" cy="52300" r="98.4252" /> 
</g>
<g style="fill:#000000; fill-opacity:1.0; 
stroke:#000000; stroke-width:236.22; stroke-opacity:1; 
stroke-linecap:round; stroke-linejoin:round;">
</g>
<g style="fill:#000000; fill-opacity:1.0; 
stroke:#000000; stroke-width:0; stroke-opacity:1; 
stroke-linecap:round; stroke-linejoin:round;">
<circle cx="61900" cy="51600" r="98.4252" /> 
</g>
<g style="fill:#000000; fill-opacity:1.0; 
stroke:#000000; stroke-width:236.22; stroke-opacity:1; 
stroke-linecap:round; stroke-linejoin:round;">
</g>
<g style="fill:#000000; fill-opacity:1.0; 
stroke:#000000; stroke-width:0; stroke-opacity:1; 
stroke-linecap:round; stroke-linejoin:round;">
<circle cx="61700" cy="50350" r="98.4252" /> 
</g>
<g style="fill:#000000; fill-opacity:1.0; 
stroke:#000000; stroke-width:236.22; stroke-opacity:1; 
stroke-linecap:round; stroke-linejoin:round;">
</g>
<g style="fill:#000000; fill-opacity:1.0; 
stroke:#000000; stroke-width:0; stroke-opacity:1; 
stroke-linecap:round; stroke-linejoin:round;">
<circle cx="68300" cy="43750" r="98.4252" /> 
</g>
<g style="fill:#000000; fill-opacity:1.0; 
stroke:#000000; stroke-width:236.22; stroke-opacity:1; 
stroke-linecap:round; stroke-linejoin:round;">
</g>
<g style="fill:#000000; fill-opacity:1.0; 
stroke:#000000; stroke-width:0; stroke-opacity:1; 
stroke-linecap:round; stroke-linejoin:round;">
<circle cx="69400" cy="57300" r="98.4252" /> 
</g>
<g style="fill:#000000; fill-opacity:1.0; 
stroke:#000000; stroke-width:236.22; stroke-opacity:1; 
stroke-linecap:round; stroke-linejoin:round;">
</g>
<g style="fill:#000000; fill-opacity:1.0; 
stroke:#000000; stroke-width:0; stroke-opacity:1; 
stroke-linecap:round; stroke-linejoin:round;">
<circle cx="73450" cy="57850" r="98.4252" /> 
</g>
<g style="fill:#000000; fill-opacity:1.0; 
stroke:#000000; stroke-width:236.22; stroke-opacity:1; 
stroke-linecap:round; stroke-linejoin:round;">
</g>
<g style="fill:#000000; fill-opacity:1.0; 
stroke:#000000; stroke-width:0; stroke-opacity:1; 
stroke-linecap:round; stroke-linejoin:round;">
<circle cx="70400" cy="57300" r="98.4252" /> 
</g>
<g style="fill:#000000; fill-opacity:1.0; 
stroke:#000000; stroke-width:236.22; stroke-opacity:1; 
stroke-linecap:round; stroke-linejoin:round;">
</g>
<g style="fill:#000000; fill-opacity:1.0; 
stroke:#000000; stroke-width:0; stroke-opacity:1; 
stroke-linecap:round; stroke-linejoin:round;">
<circle cx="75400" cy="57500" r="98.4252" /> 
</g>
<g style="fill:#000000; fill-opacity:1.0; 
stroke:#000000; stroke-width:236.22; stroke-opacity:1; 
stroke-linecap:round; stroke-linejoin:round;">
</g>
<g style="fill:#000000; fill-opacity:1.0; 
stroke:#000000; stroke-width:0; stroke-opacity:1; 
stroke-linecap:round; stroke-linejoin:round;">
<circle cx="65800" cy="51700" r="98.4252" /> 
</g>
<g style="fill:#000000; fill-opacity:1.0; 
stroke:#000000; stroke-width:236.22; stroke-opacity:1; 
stroke-linecap:round; stroke-linejoin:round;">
</g>
<g style="fill:#000000; fill-opacity:1.0; 
stroke:#000000; stroke-width:0; stroke-opacity:1; 
stroke-linecap:round; stroke-linejoin:round;">
<circle cx="66850" cy="52250" r="98.4252" /> 
</g>
<g style="fill:#000000; fill-opacity:1.0; 
stroke:#000000; stroke-width:236.22; stroke-opacity:1; 
stroke-linecap:round; stroke-linejoin:round;">
</g>
<g style="fill:#000000; fill-opacity:1.0; 
stroke:#000000; stroke-width:0; stroke-opacity:1; 
stroke-linecap:round; stroke-linejoin:round;">
<circle cx="67850" cy="52250" r="98.4252" /> 
</g>
<g style="fill:#000000; fill-opacity:1.0; 
stroke:#000000; stroke-width:236.22; stroke-opacity:1; 
stroke-linecap:round; stroke-linejoin:round;">
</g>
<g style="fill:#000000; fill-opacity:1.0; 
stroke:#000000; stroke-width:0; stroke-opacity:1; 
stroke-linecap:round; stroke-linejoin:round;">
<circle cx="76300" cy="54950" r="98.4252" /> 
</g>
<g style="fill:#000000; fill-opacity:1.0; 
stroke:#000000; stroke-width:236.22; stroke-opacity:1; 
stroke-linecap:round; stroke-linejoin:round;">
</g>
<g style="fill:#000000; fill-opacity:1.0; 
stroke:#000000; stroke-width:0; stroke-opacity:1; 
stroke-linecap:round; stroke-linejoin:round;">
<circle cx="66800" cy="51700" r="98.4252" /> 
</g>
<g style="fill:#000000; fill-opacity:1.0; 
stroke:#000000; stroke-width:236.22; stroke-opacity:1; 
stroke-linecap:round; stroke-linejoin:round;">
</g>
<g style="fill:#000000; fill-opacity:1.0; 
stroke:#000000; stroke-width:0; stroke-opacity:1; 
stroke-linecap:round; stroke-linejoin:round;">
<circle cx="67800" cy="51700" r="98.4252" /> 
</g>
<g style="fill:#000000; fill-opacity:1.0; 
stroke:#000000; stroke-width:236.22; stroke-opacity:1; 
stroke-linecap:round; stroke-linejoin:round;">
</g>
<g style="fill:#000000; fill-opacity:1.0; 
stroke:#000000; stroke-width:196.85; stroke-opacity:1; 
stroke-linecap:round; stroke-linejoin:round;">
</g>
<g style="fill:#000000; fill-opacity:0.0; 
stroke:#000000; stroke-width:196.85; stroke-opacity:1; 
stroke-linecap:round; stroke-linejoin:round;">
<path d="M67965 41840
L67950 41850
" />
<path d="M67950 41850
L67950 50850
" />
<path d="M67950 50850
L67965 50840
" />
<path d="M72965 50840
L72950 50850
" />
<path d="M72950 50850
L73050 50950
" />
<path d="M73050 50950
L73050 56000
" />
<path d="M73050 56000
L73100 56050
" />
<path d="M73100 56050
L73100 56100
" />
<path d="M73100 56100
L73400 56400
" />
<path d="M73400 56400
L73400 56600
" />
<path d="M73400 56600
L73375 56620
" />
<path d="M62245 53495
L62200 53550
" />
<path d="M62200 53550
L61250 54500
" />
<path d="M61250 54500
L61250 56500
" />
<path d="M61250 56500
L61245 56495
" />
<path d="M58965 50840
L58950 50850
" />
<path d="M58950 50850
L59250 51150
" />
<path d="M59250 51150
L59250 53500
" />
<path d="M59250 53500
L59245 53495
" />
<path d="M61965 50840
L61950 50850
" />
<path d="M61950 50850
L62250 51150
" />
<path d="M62250 51150
L62250 53500
" />
<path d="M62250 53500
L62245 53495
" />
<path d="M59965 50840
L59950 50850
" />
<path d="M59950 50850
L60100 51000
" />
<path d="M60100 51000
L60100 51700
" />
<path d="M67250 52650
L68850 52650
" />
<path d="M68850 52650
L73100 56900
" />
<path d="M73100 56900
L73150 56900
" />
<path d="M73150 56900
L73200 56950
" />
<path d="M73200 56950
L73800 56950
" />
<path d="M73800 56950
L74150 56600
" />
<path d="M74150 56600
L74162 56620
" />
<path d="M74949 56620
L74950 56600
" />
<path d="M74950 56600
L75400 56150
" />
<path d="M75400 56150
L75400 55700
" />
<path d="M75400 55700
L75450 55650
" />
<path d="M75450 55650
L75450 55600
" />
<path d="M75450 55600
L75950 55100
" />
<path d="M75950 55100
L75950 50850
" />
<path d="M75950 50850
L75965 50840
" />
<path d="M59245 56495
L58450 55700
" />
<path d="M58450 55700
L58450 50700
" />
<path d="M58450 50700
L58500 50650
" />
<path d="M58500 50650
L58500 50600
" />
<path d="M58500 50600
L58550 50550
" />
<path d="M58550 50550
L58550 50500
" />
<path d="M58550 50500
L58750 50300
" />
<path d="M69300 42700
L69950 42050
" />
<path d="M69950 42050
L69950 41850
" />
<path d="M69950 41850
L69965 41840
" />
<path d="M62245 56495
L62300 56450
" />
<path d="M62300 56450
L62750 56000
" />
<path d="M62750 56000
L62750 53350
" />
<path d="M62750 53350
L62700 53300
" />
<path d="M62700 53300
L62700 53200
" />
<path d="M62700 53200
L62600 53100
" />
<path d="M62600 53100
L62600 52300
" />
<path d="M61900 51600
L61450 51150
" />
<path d="M61450 51150
L61450 50700
" />
<path d="M61450 50700
L61500 50650
" />
<path d="M61500 50650
L61500 50600
" />
<path d="M61500 50600
L61550 50550
" />
<path d="M61550 50550
L61550 50500
" />
<path d="M61550 50500
L61700 50350
" />
<path d="M68300 43750
L68950 43100
" />
<path d="M68950 43100
L68950 41850
" />
<path d="M68950 41850
L68965 41840
" />
<path d="M60245 56495
L60300 56450
" />
<path d="M60300 56450
L60750 56000
" />
<path d="M60750 56000
L60750 53350
" />
<path d="M60750 53350
L60700 53300
" />
<path d="M60700 53300
L60700 53200
" />
<path d="M60700 53200
L60450 52950
" />
<path d="M60450 52950
L60450 50600
" />
<path d="M60450 50600
L59950 50100
" />
<path d="M59950 50100
L59950 41850
" />
<path d="M59950 41850
L59965 41840
" />
<path d="M74162 55832
L74150 55850
" />
<path d="M74150 55850
L74950 55050
" />
<path d="M74950 55050
L74950 50850
" />
<path d="M74950 50850
L74965 50840
" />
<path d="M77965 41840
L77950 41850
" />
<path d="M77950 41850
L73450 46350
" />
<path d="M73450 46350
L73450 51050
" />
<path d="M73450 51050
L73400 51100
" />
<path d="M73400 51100
L73400 55850
" />
<path d="M73400 55850
L73375 55832
" />
<path d="M62965 50840
L62950 50850
" />
<path d="M62950 50850
L69400 57300
" />
<path d="M73450 57850
L74600 56700
" />
<path d="M74600 56700
L74600 56500
" />
<path d="M74600 56500
L74650 56450
" />
<path d="M74650 56450
L74650 56300
" />
<path d="M74650 56300
L74950 56000
" />
<path d="M74950 56000
L74950 55850
" />
<path d="M74950 55850
L74949 55832
" />
<path d="M63965 50840
L63950 50850
" />
<path d="M63950 50850
L70400 57300
" />
<path d="M75400 57500
L76100 56800
" />
<path d="M76100 56800
L76100 56550
" />
<path d="M76100 56550
L76050 56500
" />
<path d="M76050 56500
L76050 56400
" />
<path d="M76050 56400
L75750 56100
" />
<path d="M75750 56100
L75750 55850
" />
<path d="M75750 55850
L75737 55832
" />
<path d="M64965 50840
L64950 50850
" />
<path d="M64950 50850
L65800 51700
" />
<path d="M66850 52250
L67850 52250
" />
<path d="M76300 54950
L76500 55150
" />
<path d="M76500 55150
L76500 55850
" />
<path d="M76500 55850
L76524 55832
" />
<path d="M65965 50840
L65950 50850
" />
<path d="M65950 50850
L66800 51700
" />
<path d="M67800 51700
L66950 50850
" />
<path d="M66950 50850
L66965 50840
" />
</g>
<g style="fill:#000000; fill-opacity:1.0; 
stroke:#000000; stroke-width:100; stroke-opacity:1; 
stroke-linecap:round; stroke-linejoin:round;">
<polyline style="fill-rule:evenodd;"
points="79300,57950
73842,57950
74810,56982
74872,57007
75026,57007
75169,56948
75278,56839
75332,56710
75349,56693
75349,56696
75408,56839
75487,56919
75153,57253
75153,57253
75104,57302
75051,57430
75051,57499
75051,57500
75051,57500
75051,57569
75104,57697
75153,57746
75153,57746
75153,57746
75202,57795
75330,57848
75399,57848
75400,57848
75400,57848
75469,57848
75597,57795
75646,57746
75646,57746
75646,57746
75695,57697
75695,57697
76346,57046
76346,57046
76388,56983
76447,57007
76601,57007
76743,56948
76853,56839
76912,56697
76912,56696
76924,56696
76983,56839
77092,56948
77234,57007
77388,57007
77531,56948
77640,56839
77699,56697
77699,56696
77711,56696
77770,56839
77879,56948
78021,57007
78176,57007
78318,56948
78427,56839
78487,56697
78487,56543
78428,56400
78319,56291
78176,56232
78022,56232
77880,56291
77770,56400
77711,56542
77711,56696
77699,56696
77699,56543
77640,56400
77531,56291
77389,56232
77235,56232
77092,56291
76983,56400
76924,56542
76924,56696
76912,56696
76912,56543
76853,56400
76744,56291
76602,56232
76447,56232
76370,56264
76296,56153
76296,56153
76103,55961
76124,55910
76125,55755
76066,55613
75997,55544
76151,55391
76151,55719
76136,55755
76136,55909
76195,56051
76304,56161
76447,56220
76601,56220
76743,56161
76853,56052
76912,55910
76912,55909
76924,55909
76983,56051
77092,56161
77234,56220
77388,56220
77531,56161
77640,56052
77699,55910
77699,55909
77711,55909
77770,56051
77879,56161
78021,56220
78176,56220
78318,56161
78427,56052
78487,55910
78487,55755
78428,55613
78319,55504
78176,55444
78022,55444
77880,55503
77770,55612
77711,55755
77711,55909
77699,55909
77699,55755
77640,55613
77531,55504
77389,55444
77235,55444
77092,55503
76983,55612
76924,55755
76924,55909
76912,55909
76912,55755
76853,55613
76848,55608
76848,55150
76821,55016
76746,54903
76746,54903
76546,54703
76546,54703
76497,54654
76369,54601
76300,54601
76300,54601
76299,54601
76298,54601
76298,51284
76430,51151
76464,51070
76498,51151
76653,51305
76855,51389
77073,51390
77276,51306
77430,51151
77464,51070
77498,51151
77653,51305
77855,51389
78073,51390
78276,51306
78430,51151
78514,50949
78515,50731
78431,50528
78276,50374
78074,50290
77856,50289
77653,50373
77499,50528
77465,50609
77431,50528
77276,50374
77074,50290
76856,50289
76653,50373
76499,50528
76465,50609
76431,50528
76276,50374
76074,50290
75856,50289
75653,50373
75499,50528
75465,50609
75431,50528
75276,50374
75074,50290
74856,50289
74653,50373
74499,50528
74465,50609
74431,50528
74276,50374
74074,50290
73856,50289
73798,50313
73798,46494
77902,42389
78073,42390
78276,42306
78430,42151
78514,41949
78515,41731
78431,41528
78276,41374
78074,41290
77856,41289
77653,41373
77499,41528
77465,41609
77431,41528
77276,41374
77074,41290
76856,41289
76653,41373
76499,41528
76465,41609
76431,41528
76276,41374
76074,41290
75856,41289
75653,41373
75499,41528
75465,41609
75431,41528
75276,41374
75074,41290
74856,41289
74653,41373
74499,41528
74465,41609
74431,41528
74276,41374
74074,41290
73856,41289
73653,41373
73499,41528
73465,41609
73431,41528
73276,41374
73074,41290
72856,41289
72653,41373
72499,41528
72465,41609
72431,41528
72276,41374
72074,41290
71856,41289
71653,41373
71499,41528
71465,41609
71431,41528
71276,41374
71074,41290
70856,41289
70653,41373
70499,41528
70465,41609
70431,41528
70276,41374
70074,41290
69856,41289
69653,41373
69499,41528
69465,41609
69431,41528
69276,41374
69074,41290
68856,41289
68653,41373
68499,41528
68465,41609
68431,41528
68276,41374
68074,41290
67856,41289
67653,41373
67499,41528
67465,41609
67431,41528
67276,41374
67074,41290
66856,41289
66653,41373
66499,41528
66465,41609
66431,41528
66276,41374
66074,41290
65856,41289
65653,41373
65499,41528
65465,41609
65431,41528
65276,41374
65074,41290
64856,41289
64653,41373
64499,41528
64465,41609
64431,41528
64276,41374
64074,41290
63856,41289
63653,41373
63499,41528
63465,41609
63431,41528
63276,41374
63074,41290
62856,41289
62653,41373
62499,41528
62465,41609
62431,41528
62276,41374
62074,41290
61856,41289
61653,41373
61499,41528
61465,41609
61431,41528
61276,41374
61074,41290
60856,41289
60653,41373
60499,41528
60465,41609
60431,41528
60276,41374
60074,41290
59856,41289
59653,41373
59499,41528
59465,41609
59431,41528
59276,41374
59074,41290
58856,41289
58653,41373
58499,41528
58415,41730
58414,41948
58498,42151
58653,42305
58855,42389
59073,42390
59276,42306
59430,42151
59464,42070
59498,42151
59601,42254
59601,50099
59601,50100
59614,50166
59628,50233
59691,50328
59703,50346
59704,50347
59677,50358
59649,50454
59965,50769
59970,50763
60041,50834
60035,50840
60041,50845
59970,50916
59965,50910
59959,50916
59888,50845
59894,50840
59579,50524
59483,50552
59464,50607
59431,50528
59276,50374
59098,50299
59098,50230
59045,50102
58947,50004
58819,49951
58680,49951
58552,50004
58454,50102
58454,50102
58303,50253
58228,50366
58227,50369
58220,50402
58178,50466
58178,50466
58170,50502
58128,50566
58128,50566
58101,50700
58101,50700
58101,55699
58101,55700
58117,55778
58128,55833
58179,55910
58203,55946
58695,56437
58694,56603
58778,56806
58933,56960
59135,57044
59353,57045
59556,56961
59710,56806
59744,56725
59778,56806
59933,56960
60135,57044
60353,57045
60556,56961
60710,56806
60744,56725
60778,56806
60933,56960
61135,57044
61353,57045
61556,56961
61710,56806
61744,56725
61778,56806
61933,56960
62135,57044
62353,57045
62556,56961
62710,56806
62794,56604
62795,56447
62996,56246
62996,56246
63071,56133
63079,56093
63098,56000
63098,55999
63098,53350
63098,53350
63071,53216
63061,53201
63043,53173
63021,53066
62996,53029
62948,52956
62948,52300
62948,52230
62895,52102
62846,52053
62846,52053
62846,52053
62797,52004
62669,51951
62598,51951
62598,51251
62653,51305
62855,51389
62997,51390
66093,54486
65937,54486
65700,54584
65519,54765
65421,55001
65421,55257
65519,55494
65700,55675
65936,55773
66192,55773
66429,55675
66610,55494
66708,55258
66708,55101
69153,57546
69202,57595
69330,57648
69399,57648
69400,57648
69400,57648
69469,57648
69597,57595
69646,57546
69646,57546
69646,57546
69695,57497
69748,57369
69748,57300
69748,57300
69748,57299
69748,57230
69695,57102
69597,57004
69597,57004
63982,51390
63997,51390
70153,57546
70202,57595
70330,57648
70399,57648
70400,57648
70400,57648
70469,57648
70597,57595
70646,57546
70646,57546
70646,57546
70695,57497
70748,57369
70748,57300
70748,57300
70748,57299
70748,57230
70695,57102
70597,57004
70597,57004
68850,55257
69421,55257
69519,55494
69700,55675
69936,55773
70192,55773
70429,55675
70610,55494
70708,55258
70708,55002
70610,54765
70429,54584
70193,54486
69937,54486
69700,54584
69519,54765
69421,55001
69421,55257
68850,55257
64982,51390
64997,51390
65553,51946
65602,51995
65730,52048
65799,52048
65800,52048
65800,52048
65869,52048
65997,51995
66095,51897
66148,51769
66148,51700
66148,51700
66148,51699
66148,51630
66095,51502
65997,51404
65997,51404
65982,51390
65997,51390
66553,51946
66602,51995
66609,51998
66603,52003
66603,52003
66603,52003
66554,52052
66501,52180
66501,52319
66554,52447
66603,52496
66603,52496
66603,52496
66652,52545
66780,52598
66919,52598
66919,52598
67849,52598
67919,52598
68047,52545
68096,52496
68096,52496
68096,52496
68145,52447
68198,52319
68198,52180
68145,52052
68096,52003
68096,52003
68096,52003
68047,51954
68040,51951
68095,51897
68148,51769
68148,51700
68148,51700
68148,51699
68148,51630
68095,51502
67997,51404
67997,51404
67982,51390
68073,51390
68276,51306
68430,51151
68464,51070
68498,51151
68653,51305
68855,51389
69073,51390
69276,51306
69430,51151
69464,51070
69498,51151
69653,51305
69855,51389
70073,51390
70276,51306
70430,51151
70464,51070
70498,51151
70653,51305
70855,51389
71073,51390
71276,51306
71430,51151
71464,51070
71498,51151
71653,51305
71855,51389
72073,51390
72276,51306
72430,51151
72464,51070
72498,51151
72653,51305
72701,51326
72701,55999
72701,56000
72712,56056
72728,56133
72770,56197
72771,56201
72778,56233
72820,56296
72853,56346
73005,56498
72987,56542
72987,56696
73046,56839
73155,56948
73297,57007
73451,57007
73594,56948
73703,56839
73762,56697
73762,56577
73769,56577
73782,56730
73815,56810
73894,56817
74091,56620
73894,56422
73815,56429
73769,56577
73762,56577
73762,56543
73748,56508
73748,56400
73748,56400
73721,56266
73721,56266
73646,56153
73646,56153
73624,56131
73703,56052
73762,55910
73762,55755
73748,55720
73748,51345
73855,51389
74073,51390
74276,51306
74430,51151
74464,51070
74498,51151
74601,51254
74601,54905
74046,55460
73943,55503
73833,55612
73774,55755
73774,55909
73833,56051
73942,56161
74084,56220
74239,56220
74324,56185
74309,56259
74205,56226
74051,56240
73972,56273
73965,56351
74162,56549
74167,56543
74215,56591
73203,57603
73203,57603
73154,57652
73101,57780
73101,57849
73101,57850
73101,57850
73101,57919
73114,57950
57620,57950
57620,40575
79300,40575
79300,57950
" /> 
<polyline style="fill-rule:evenodd;"
points="59677,51321
59883,51394
60101,51383
60101,52949
60101,52950
60103,52958
59933,53028
59779,53183
59745,53264
59711,53183
59598,53070
59598,51265
59604,51271
59649,51225
59677,51321
" /> 
</g> 
</svg>
