<?xml version="1.0" standalone="no"?>
 <!DOCTYPE svg PUBLIC "-//W3C//DTD SVG 1.1//EN" 
 "http://www.w3.org/Graphics/SVG/1.1/DTD/svg11.dtd"> 
<svg xmlns="http://www.w3.org/2000/svg" version="1.1" 
    width="29.7002cm" height="21.0007cm" viewBox="0 0 116930 82680 ">
<title>SVG Picture created as schematic-F.SilkS.svg date 2016/03/11 01:22:33 </title>
  <desc>Picture generated by PCBNEW </desc>
<g style="fill:#000000; fill-opacity:1;stroke:#000000; stroke-opacity:1;
stroke-linecap:round; stroke-linejoin:round; "
 transform="translate(0 0) scale(1 1)">
</g>
<g style="fill:#000000; fill-opacity:0.0; 
stroke:#000000; stroke-width:-0.000393701; stroke-opacity:1; 
stroke-linecap:round; stroke-linejoin:round;">
</g>
<g style="fill:#000000; fill-opacity:0.0; 
stroke:#000000; stroke-width:59.0551; stroke-opacity:1; 
stroke-linecap:round; stroke-linejoin:round;">
<circle cx="59965" cy="49340" r="500" /> 
<path d="M58465 41340
L58465 51340
" />
<path d="M58465 51340
L78465 51340
" />
<path d="M78465 51340
L78465 41340
" />
<path d="M78465 41340
L58465 41340
" />
<circle cx="59245" cy="55595" r="250" /> 
<path d="M58457 57282
L63032 57282
" />
<path d="M58457 52695
L63032 52695
" />
<path d="M63032 57282
L63032 52707
" />
<path d="M58457 57282
L58457 52707
" />
<circle cx="73200" cy="57045" r="100" /> 
<path d="M78493 55242
L78493 57210
" />
<path d="M72981 55242
L72981 57210
" />
<path d="M72981 55242
L78493 55242
" />
<path d="M72981 57210
L78493 57210
" />
<path d="M67065 54630
L69065 54630
" />
<path d="M69065 54630
L69065 55630
" />
<path d="M69065 55630
L67065 55630
" />
<path d="M67065 55630
L67065 54630
" />
<path d="M67065 55130
L66565 55130
" />
<path d="M69065 55130
L69565 55130
" />
<path d="M63080 48214
L63080 47821
" />
<path d="M63493 48177
L63474 48196
L63418 48214
L63380 48214
L63324 48196
L63286 48158
L63268 48121
L63249 48046
L63249 47989
L63268 47914
L63286 47877
L63324 47840
L63380 47821
L63418 47821
L63474 47840
L63493 47858
" />
<path d="M63868 48214
L63643 48214
" />
<path d="M63755 48214
L63755 47821
L63718 47877
L63680 47914
L63643 47933
" />
<path d="M61285 55323
L61285 54929
" />
<path d="M61698 55285
L61679 55304
L61623 55323
L61585 55323
L61529 55304
L61491 55266
L61473 55229
L61454 55154
L61454 55098
L61473 55023
L61491 54985
L61529 54948
L61585 54929
L61623 54929
L61679 54948
L61698 54966
" />
<path d="M61848 54966
L61866 54948
L61904 54929
L61998 54929
L62035 54948
L62054 54966
L62073 55004
L62073 55041
L62054 55098
L61829 55323
L62073 55323
" />
<path d="M73734 54548
L73734 54154
L73884 54154
L73921 54173
L73940 54191
L73959 54229
L73959 54285
L73940 54323
L73921 54341
L73884 54360
L73734 54360
" />
<path d="M74334 54548
L74109 54548
" />
<path d="M74221 54548
L74221 54154
L74184 54210
L74146 54248
L74109 54266
" />
<path d="M68097 53930
L67966 53742
" />
<path d="M67872 53930
L67872 53536
L68022 53536
L68059 53555
L68078 53573
L68097 53611
L68097 53667
L68078 53705
L68059 53723
L68022 53742
L67872 53742
" />
<path d="M68472 53930
L68247 53930
" />
<path d="M68359 53930
L68359 53536
L68322 53592
L68284 53630
L68247 53648
" />
</g> 
</svg>
